<svg xmlns="http://www.w3.org/2000/svg" width="28" height="28" fill="none"><path fill="#fff" fill-rule="evenodd" d="M13.7 2.26c-3.17 0-6.03 1.27-8.11 3.35-2.07 2.08-3.35 4.91-3.35 8.1s1.28 6.02 3.35 8.1c2.08 2.08 4.93 3.32 8.11 3.32s6.03-1.25 8.1-3.32c2.08-2.08 3.32-4.93 3.32-8.1s-1.24-6.02-3.32-8.1a11.39 11.39 0 0 0-8.1-3.35m.16 14.41c.6 0 1.12.49 1.12 1.09 0 .63-.52 1.12-1.12 1.12-.57 0-1.06-.49-1.06-1.12s.49-1.09 1.06-1.09m-.05-.6c-.26 0-.58-.13-.76-.34-.2-.18-.31-.49-.31-.8V8.1c0-.34.1-.62.31-.81.19-.23.5-.34.76-.34.33 0 .62.1.82.34.21.19.34.47.34.81v6.83c0 .31-.13.62-.34.8-.21.21-.49.34-.82.34m-.11 11.34c-3.77 0-7.19-1.53-9.68-4.02A13.56 13.56 0 0 1 0 13.71c0-3.79 1.53-7.19 4.02-9.68S9.93 0 13.7 0s7.21 1.54 9.68 4.03c2.49 2.49 4.02 5.92 4.02 9.68s-1.53 7.22-4.02 9.68a13.56 13.56 0 0 1-9.68 4.02" clip-rule="evenodd"/></svg>