<svg xmlns="http://www.w3.org/2000/svg" width="28" height="25" fill="none"><path fill="#fff" fill-rule="evenodd" d="M24.99 9.76c-1.3 0-2.31.99-2.42 2.23h-4.86a4.06 4.06 0 0 0-1.82-3.18l2.44-4.19a2.4 2.4 0 0 0 3.1-.99c.66-1.15.26-2.63-.88-3.31a2.434 2.434 0 0 0-3.31.88c-.62 1.11-.29 2.49.73 3.17L15.54 8.6c-.56-.28-1.15-.44-1.82-.44s-1.28.16-1.84.44L9.43 4.37c1.03-.68 1.35-2.07.73-3.17C9.5.05 8.01-.33 6.86.32a2.44 2.44 0 0 0-.89 3.31 2.437 2.437 0 0 0 3.13.99l2.45 4.19a4 4 0 0 0-1.85 3.18H4.81c-.09-1.24-1.11-2.23-2.36-2.23C1.09 9.76 0 10.84 0 12.2s1.09 2.42 2.45 2.42c1.25 0 2.27-1 2.36-2.23H9.7c.07 1.33.8 2.51 1.85 3.17L9.1 19.78c-1.12-.51-2.51-.12-3.13.96-.67 1.15-.26 2.64.89 3.3 1.15.68 2.64.28 3.3-.87.62-1.12.3-2.46-.73-3.18l2.45-4.22c.56.29 1.18.46 1.84.46s1.29-.17 1.82-.46l2.43 4.22a2.43 2.43 0 0 0-.73 3.18 2.414 2.414 0 0 0 3.31.87c1.17-.66 1.55-2.15.88-3.3-.62-1.08-1.98-1.48-3.1-.96l-2.44-4.22c1.05-.66 1.74-1.83 1.82-3.17h4.86c.11 1.23 1.12 2.23 2.42 2.23s2.41-1.09 2.41-2.42-1.1-2.44-2.41-2.44" clip-rule="evenodd"/></svg>