<svg width="28" height="25" viewBox="0 0 28 25" fill="none" xmlns="http://www.w3.org/2000/svg">
<path fill-rule="evenodd" clip-rule="evenodd" d="M24.99 9.76079C23.69 9.76079 22.68 10.7508 22.57 11.9908H17.71C17.63 10.6508 16.94 9.50079 15.89 8.81079L18.33 4.62079C19.45 5.15079 20.81 4.72079 21.43 3.63079C22.09 2.48079 21.69 1.00079 20.55 0.320789C19.38 -0.339211 17.91 0.0507863 17.24 1.20079C16.62 2.31079 16.95 3.69079 17.97 4.37079L15.54 8.60079C14.98 8.32079 14.39 8.16079 13.72 8.16079C13.05 8.16079 12.44 8.32079 11.88 8.60079L9.42999 4.37079C10.46 3.69079 10.78 2.30079 10.16 1.20079C9.5 0.0507863 8.00998 -0.329211 6.85999 0.320789C5.70999 1.00079 5.31 2.47079 5.97 3.63079C6.59 4.72079 7.98001 5.15079 9.10001 4.62079L11.55 8.81079C10.49 9.49079 9.76001 10.6508 9.70001 11.9908H4.81C4.72 10.7508 3.70001 9.76079 2.45001 9.76079C1.09001 9.76079 0 10.8408 0 12.2008C0 13.5608 1.09001 14.6208 2.45001 14.6208C3.70001 14.6208 4.72 13.6208 4.81 12.3908H9.70001C9.77001 13.7208 10.5 14.9008 11.55 15.5608L9.10001 19.7808C7.98001 19.2708 6.59 19.6608 5.97 20.7408C5.3 21.8908 5.70999 23.3808 6.85999 24.0408C8.00998 24.7208 9.5 24.3208 10.16 23.1708C10.78 22.0508 10.46 20.7108 9.42999 19.9908L11.88 15.7708C12.44 16.0608 13.06 16.2308 13.72 16.2308C14.38 16.2308 15.01 16.0608 15.54 15.7708L17.97 19.9908C16.95 20.7108 16.63 22.0508 17.24 23.1708C17.91 24.3208 19.38 24.7208 20.55 24.0408C21.72 23.3808 22.1 21.8908 21.43 20.7408C20.81 19.6608 19.45 19.2608 18.33 19.7808L15.89 15.5608C16.94 14.9008 17.63 13.7308 17.71 12.3908H22.57C22.68 13.6208 23.69 14.6208 24.99 14.6208C26.29 14.6208 27.4 13.5308 27.4 12.2008C27.4 10.8708 26.3 9.76079 24.99 9.76079Z" fill="white"/>
</svg>
