<svg xmlns="http://www.w3.org/2000/svg" width="28" height="28" fill="none"><path fill="#fff" fill-rule="evenodd" d="M14.38 22.05v-1.22h-1.3v1.22c-4.13-.31-7.42-3.6-7.72-7.68h1.26v-1.3H5.36c.35-4.32 3.93-7.76 8.37-7.76s8.03 3.44 8.33 7.76H20.8v1.3h1.26c-.31 4.09-3.59 7.38-7.68 7.68M13.04 9.18h-.61V5.97h.8s.95 1.79 1.14 2.25V5.97h.61v3.21h-.72s-1.07-1.98-1.22-2.37zm14.37 4.5c0 7.57-6.12 13.72-13.69 13.72S0 21.25 0 13.68 6.16 0 13.72 0 27.4 6.12 27.4 13.68zM12.84 1.72c0 .46.39.85.88.85.46 0 .85-.39.85-.85 0-.5-.39-.88-.85-.88-.49 0-.88.38-.88.88M2.61 13.68c0-.46-.39-.83-.89-.83-.46 0-.83.38-.83.83 0 .5.38.89.83.89.5 0 .89-.39.89-.89m11.96 12c0-.5-.39-.88-.85-.88-.49 0-.88.38-.88.88 0 .46.39.84.88.84.46 0 .85-.39.85-.84m9.4-12c0-5.65-4.59-10.24-10.25-10.24S3.44 8.03 3.44 13.68s4.62 10.28 10.28 10.28 10.25-4.62 10.25-10.28m2.6 0c0-.46-.39-.83-.88-.83-.46 0-.84.38-.84.83 0 .5.39.89.84.89.49 0 .88-.39.88-.89m-11.66.43 2.9 3.7-3.71-2.91c-.46.16-.95.08-1.3-.26-.35-.38-.46-.88-.31-1.3l-2.9-3.75 3.75 2.91c.42-.15.92-.04 1.29.3.35.35.43.84.27 1.3z" clip-rule="evenodd"/></svg>