<svg width="22" height="28" viewBox="0 0 22 28" fill="none" xmlns="http://www.w3.org/2000/svg">
<path fill-rule="evenodd" clip-rule="evenodd" d="M14.12 0.97H7.8V9.86H14.12V0.97ZM7.3 0H15.13V10.86H6.8V0H7.3ZM10.07 1.71H11.87V3.37H10.07V1.71ZM18.17 23.42C18.14 23.33 18.13 23.2 18.07 23.11C18.02 23.05 17.97 22.99 17.91 22.92C17.85 22.83 17.8 22.74 17.73 22.68C17.64 22.62 17.58 22.58 17.49 22.53C17.42 22.49 17.36 22.43 17.27 22.41C17.14 22.37 14.18 21.3 11.43 21.15L11.06 21.91H11.05L11.54 25.66H15V24.8C15.14 24.84 15.28 24.88 15.4 24.91L15.49 25.66H18.45L18.23 23.64C18.23 23.56 18.19 23.51 18.17 23.43V23.42ZM10.2 25.64L10.68 21.89H10.66L10.29 21.13C7.55999 21.28 4.60001 22.35 4.46001 22.39C4.37001 22.41 4.31001 22.49 4.24001 22.53C4.17001 22.57 4.09 22.61 4.02 22.67C3.93 22.73 3.86999 22.82 3.81999 22.91C3.75999 22.98 3.70999 23.04 3.65999 23.1C3.60999 23.2 3.58998 23.33 3.55998 23.41C3.53998 23.48 3.49998 23.54 3.49998 23.62L3.27998 25.64H6.24998L6.33 24.89C6.46 24.86 6.58001 24.82 6.74001 24.78V25.64H10.2ZM10.86 20.82C12.91 20.82 14.6 18.45 14.6 16.38C14.6 14.31 12.91 12.65 10.86 12.65C8.81 12.65 7.12999 14.32 7.12999 16.38C7.12999 18.44 8.81 20.82 10.86 20.82ZM0.589996 3.25H5.99001V4.42H1.17999V26.24H20.58V4.42H15.75V3.25H21.73V27.41H0V3.25H0.580002H0.589996Z" fill="white"/>
</svg>
