<svg xmlns="http://www.w3.org/2000/svg" width="22" height="28" fill="none"><path fill="#fff" fill-rule="evenodd" d="M14.12.97H7.8v8.89h6.32zM7.3 0h7.83v10.86H6.8V0zm2.77 1.71h1.8v1.66h-1.8zm8.1 21.71c-.03-.09-.04-.22-.1-.31l-.16-.19c-.06-.09-.11-.18-.18-.24-.09-.06-.15-.1-.24-.15-.07-.04-.13-.1-.22-.12-.13-.04-3.09-1.11-5.84-1.26l-.37.76h-.01l.49 3.75H15v-.86c.14.04.28.08.4.11l.09.75h2.96l-.22-2.02c0-.08-.04-.13-.06-.21zm-7.97 2.22.48-3.75h-.02l-.37-.76c-2.73.15-5.69 1.22-5.83 1.26-.09.02-.15.1-.22.14s-.15.08-.22.14a.66.66 0 0 0-.2.24l-.16.19c-.05.1-.07.23-.1.31-.02.07-.06.13-.06.21l-.22 2.02h2.97l.08-.75c.13-.03.25-.07.41-.11v.86zm.66-4.82c2.05 0 3.74-2.37 3.74-4.44s-1.69-3.73-3.74-3.73-3.73 1.67-3.73 3.73 1.68 4.44 3.73 4.44M.59 3.25h5.4v1.17H1.18v21.82h19.4V4.42h-4.83V3.25h5.98v24.16H0V3.25h.59" clip-rule="evenodd"/></svg>