<svg width="28" height="28" viewBox="0 0 28 28" fill="none" xmlns="http://www.w3.org/2000/svg">
<path d="M22.2651 0H14.025C13.635 0 13.285 2.44081e-05 12.975 0.150024C12.645 0.310024 12.3451 0.53002 12.0751 0.77002L1.19506 11.69C-0.404943 13.34 -0.404965 16.01 1.23504 17.66L9.70507 26.16C11.3951 27.83 14.1151 27.83 15.7651 26.16L26.5651 15.35C26.8051 15.1 27.0351 14.8 27.1951 14.5C27.2251 14.5 27.265 14.44 27.285 14.42C27.285 14.36 27.305 14.31 27.285 14.31C27.395 14.04 27.395 13.7 27.395 13.37V5.17004C27.395 1.73004 25.6751 0.0100098 22.2651 0.0100098V0ZM18.735 16.32L19.0151 16.59V16.62L19.125 16.73C19.455 17.1 19.455 17.62 19.125 17.97C18.795 18.3 18.255 18.3 17.905 17.97L17.7651 17.86L17.5751 17.64C16.7251 18.47 15.645 19.02 14.925 19.24L13.8251 17.42C14.6251 17.18 15.6151 16.67 16.4451 15.88C17.1851 15.14 17.3751 14.39 16.8851 13.89C16.4151 13.4 15.7051 13.5 14.4551 14.14C12.6751 15.02 11.125 15.33 9.91503 14.11C8.81503 13.01 8.71501 11.38 9.77501 9.78003L9.69506 9.66003C9.65506 9.6467 9.62837 9.62002 9.61504 9.58002L9.35503 9.37C9.00503 9.04 9.00503 8.48001 9.35503 8.13C9.69503 7.79 10.245 7.79 10.605 8.13L10.685 8.21002L10.935 8.46002C11.785 7.65002 12.525 7.28003 13.165 7.03003L14.2051 8.82001C13.7451 8.99001 12.865 9.28001 11.985 10.2C11.155 10.99 11.265 11.63 11.595 11.99C12.005 12.37 12.725 12.24 14.185 11.55C16.195 10.55 17.465 10.63 18.625 11.79C19.7351 12.89 19.925 14.64 18.725 16.31L18.735 16.32ZM23.165 6.65002C22.505 7.26002 21.435 7.23003 20.835 6.59003C20.965 6.75003 21.135 6.91003 20.835 6.59003C20.475 6.25003 20.635 6.42003 20.795 6.59003C20.165 5.95003 20.135 4.87003 20.745 4.22003C21.405 3.53003 22.565 3.50004 23.225 4.17004C23.885 4.86004 23.885 5.99002 23.165 6.65002Z" fill="white"/>
</svg>
