<svg xmlns="http://www.w3.org/2000/svg" width="28" height="28" fill="none"><path fill="#fff" d="M22.265 0h-8.24c-.39 0-.74 0-1.05.15-.33.16-.63.38-.9.62L1.195 11.69c-1.6 1.65-1.6 4.32.04 5.97l8.47 8.5c1.69 1.67 4.41 1.67 6.06 0l10.8-10.81c.24-.25.47-.55.63-.85.03 0 .07-.06.09-.08 0-.06.02-.11 0-.11.11-.27.11-.61.11-.94v-8.2c0-3.44-1.72-5.16-5.13-5.16zm-3.53 16.32.28.27v.03l.11.11c.33.37.33.89 0 1.24-.33.33-.87.33-1.22 0l-.14-.11-.19-.22c-.85.83-1.93 1.38-2.65 1.6l-1.1-1.82c.8-.24 1.79-.75 2.62-1.54.74-.74.93-1.49.44-1.99-.47-.49-1.18-.39-2.43.25-1.78.88-3.33 1.19-4.54-.03-1.1-1.1-1.2-2.73-.14-4.33l-.08-.12a.12.12 0 0 1-.08-.08l-.26-.21a.863.863 0 0 1 0-1.24c.34-.34.89-.34 1.25 0l.08.08.25.25c.85-.81 1.59-1.18 2.23-1.43l1.04 1.79c-.46.17-1.34.46-2.22 1.38-.83.79-.72 1.43-.39 1.79.41.38 1.13.25 2.59-.44 2.01-1 3.28-.92 4.44.24 1.11 1.1 1.3 2.85.1 4.52zm4.43-9.67c-.66.61-1.73.58-2.33-.06.13.16.3.32 0 0-.36-.34-.2-.17-.04 0-.63-.64-.66-1.72-.05-2.37.66-.69 1.82-.72 2.48-.05.66.69.66 1.82-.06 2.48"/></svg>