<svg xmlns="http://www.w3.org/2000/svg" width="26" height="28" fill="none"><path fill="#fff" fill-rule="evenodd" d="M9.77 23.83h5.52v.97H9.77zm0-2.01h5.52v1.01H9.77zM12.07 0H13v3.93h-.93zM5.85 1.92l.83-.49 1.98 3.4-.83.49zM1.43 6.67l.49-.84 3.4 1.99-.48.83zM0 13v-.94h3.93V13zM18.38 1.43l.84.49-1.98 3.4-.83-.49zm4.76 4.4.48.84-3.4 1.98-.48-.83zm1.92 6.23V13h-3.94v-.94zM12.51 8.62c.73 0 1.28 1.7 1.28 3.82s-.55 3.82-1.28 3.82c-.69 0-1.25-1.7-1.25-3.82s.56-3.82 1.25-3.82m0 7.91c.63 0 1.14.52 1.14 1.12s-.51 1.07-1.14 1.07c-.59 0-1.11-.48-1.11-1.07s.52-1.12 1.11-1.12m0-11.18c-4.34 0-7.89 3.54-7.89 7.93 0 2.59 1.28 4.89 3.23 6.32.48.41 1.01.76 1.6 1.04h-.49v5.59h1.71c.21.66.93 1.19 1.84 1.19s1.67-.52 1.88-1.19h1.7v-5.59h-.48c.55-.28 1.08-.6 1.53-.98a7.76 7.76 0 0 0 3.3-6.39c0-4.39-3.54-7.93-7.92-7.93z" clip-rule="evenodd"/></svg>