<svg width="21" height="28" viewBox="0 0 21 28" fill="none" xmlns="http://www.w3.org/2000/svg">
<path fill-rule="evenodd" clip-rule="evenodd" d="M20.54 8.42C20.44 7.81 20.14 7.25999 19.67 6.79999L13.81 0.939987C13.33 0.429987 12.72 0.139993 12.09 0.0399933L12.06 0.0599976L12.03 0H3.16C1.41 0 0 1.44 0 3.17V24.45C0.11 26.09 1.49 27.42 3.16 27.42H17.41C19.16 27.42 20.56 26.05 20.56 24.29V8.5L20.54 8.42ZM15.66 15.34H4.91C4.32 15.34 3.85 15.82 3.85 16.4C3.85 16.98 4.33 17.44 4.91 17.44H15.66C16.24 17.44 16.7 16.96 16.7 16.4C16.7 15.84 16.24 15.34 15.66 15.34ZM15.66 19.54H4.91C4.32 19.54 3.85 20.01 3.85 20.57C3.85 21.16 4.33 21.63 4.91 21.63H15.66C16.24 21.63 16.7 21.15 16.7 20.57C16.7 20.01 16.24 19.54 15.66 19.54ZM12.95 3.03L17.52 7.56999H14.04C13.46 7.56999 12.95 7.1 12.95 6.48V3.03ZM18.46 24.29C18.46 24.88 17.99 25.35 17.41 25.35H3.16C2.55 25.35 2.09 24.88 2.09 24.29V3.17C2.09 2.58 2.57 2.10999 3.16 2.10999H10.85V6.48999C10.85 8.24999 12.28 9.67999 14.03 9.67999H18.46V24.3V24.29Z" fill="white"/>
</svg>
