<svg xmlns="http://www.w3.org/2000/svg" width="21" height="28" fill="none"><path fill="#fff" fill-rule="evenodd" d="M20.54 8.42c-.1-.61-.4-1.16-.87-1.62L13.81.94c-.48-.51-1.09-.8-1.72-.9l-.03.02-.03-.06H3.16C1.41 0 0 1.44 0 3.17v21.28c.11 1.64 1.49 2.97 3.16 2.97h14.25c1.75 0 3.15-1.37 3.15-3.13V8.5zm-4.88 6.92H4.91c-.59 0-1.06.48-1.06 1.06s.48 1.04 1.06 1.04h10.75c.58 0 1.04-.48 1.04-1.04s-.46-1.06-1.04-1.06m0 4.2H4.91c-.59 0-1.06.47-1.06 1.03 0 .59.48 1.06 1.06 1.06h10.75c.58 0 1.04-.48 1.04-1.06 0-.56-.46-1.03-1.04-1.03M12.95 3.03l4.57 4.54h-3.48c-.58 0-1.09-.47-1.09-1.09zm5.51 21.26c0 .59-.47 1.06-1.05 1.06H3.16c-.61 0-1.07-.47-1.07-1.06V3.17c0-.59.48-1.06 1.07-1.06h7.69v4.38a3.19 3.19 0 0 0 3.18 3.19h4.43V24.3z" clip-rule="evenodd"/></svg>