<svg xmlns="http://www.w3.org/2000/svg" width="28" height="24" fill="none"><path fill="#fff" fill-rule="evenodd" d="M23.21 7.65c.38.23.78.41 1.22.41s.82.26.99.67l1.94 5.04c.2.54-.07 1.16-.61 1.36s-1.16-.07-1.36-.62l-.92-2.41v2.96l.4 6.94c.04.57-.4 1.09-.98 1.12h-.07c-.57 0-1.01-.44-1.05-1.02l-.34-5.95-.37 5.95c-.04.58-.48 1.02-1.05 1.02h-.04c-.61-.03-1.05-.54-1.02-1.12l.41-6.94v-4.89h-.17L14 8.84c-.55-.14-.92-.69-.82-1.26.1-.41.38-.67.75-.78H13l-1.59 1.42v1.02h-1.6v-.98c-.47-.44-1.09-.95-1.53-1.33H7.09c-.78.61-2.05 1.63-2.9 2.31v1.13H2.63v-1.6h1.43l2.89-2.25V5.37h1.6v1.15c.41.34.92.79 1.36 1.16h1.36c.44-.41 1.02-.92 1.42-1.3V5.19h1.6v1.54s.1.03.14.03l6.05 1.3c.61 0 1.06-.14 1.36-.32-.78-.26-1.33-.95-1.33-1.79 0-1.02.85-1.88 1.91-1.88a1.87 1.87 0 0 1 .78 3.57zm-6.8-6.19H9.54c.1-.13.13-.27.13-.44C9.67.44 9.23 0 8.68 0S7.67.44 7.67 1.02c0 .17.06.31.13.44H.92c-.51 0-.92.45-.92.93v10.23c0 .51.41.92.92.92h5.61l-1.09 8.92c-.06.27.06.54.37.57l.41.07c.27.06.58-.11.64-.38l1.16-9.18h1.26l1.18 9.18c.07.27.35.44.61.38l.44-.07c.28-.03.44-.3.35-.57l-1.09-8.92h5.61c.52 0 .95-.41.95-.92V9.9l-1.77-.41v2.24H1.76V3.09h13.8v3.6l1.77.44V2.38c0-.48-.43-.93-.95-.93z" clip-rule="evenodd"/></svg>