<svg xmlns="http://www.w3.org/2000/svg" width="28" height="24" fill="none"><path fill="#fff" d="M27.06 7.55c-.27-.34-.71-.55-1.18-.55H21.3c0-1.04.03-2.04.03-3.06 0-.83-.7-1.51-1.53-1.51h-.77V.76c0-.42-.35-.76-.76-.76H3.04c-.42 0-.77.35-.77.76v2.06h-.76C.67 2.82 0 3.5 0 4.33V22.2c0 .84.67 1.53 1.51 1.53h21.32c.72 0 1.34-.51 1.49-1.21l3.06-13.68c.02-.09.04-.21.04-.3v-.07c-.02-.32-.14-.64-.35-.92zm-24.8 6.79-.76 3.5V4.34h.76zM5.09 6.9c-.65 0-1.33.56-1.46 1.21l-.59 2.74V.77h15.23V6.9zM19.8 7h-.07a.8.8 0 0 0-.42-.1h-.27V3.94h.77V7zm-3.32-1.9c0 .42-.35.77-.76.77H5.63c-.42 0-.74-.35-.74-.77s.32-.76.74-.76h10.09c.42 0 .76.35.76.76m0-2.5c0 .42-.35.77-.76.77H5.63c-.42 0-.74-.35-.74-.77s.32-.76.74-.76h10.09c.42 0 .76.35.76.76"/></svg>