<svg xmlns="http://www.w3.org/2000/svg" width="28" height="35" fill="none"><path fill="#7B0000" d="M4.538 13.689 0 34.589l11.654-17.575c.413-.623.58-1.38.469-2.121L10.338 3.027H6.965L5.443 9.995l3.712-.015c.183 0 .353.094.45.25a2.444 2.444 0 0 1-.559 3.207 1.13 1.13 0 0 1-.696.243zM20.828 3.027h-6.585L15.9 11.35zM13.685 20.756 24.463 4.115s6.989 4.039 1.318 11.817c-5.084 6.971-9.654 5.347-12.096 4.825M19.693 2.617 11.7 2.78 18.738.104a.707.707 0 0 1 .955.668zM7.676 2.872S13.868.159 14.66.014c.793-.146 1.164.91.195 1.247a746 746 0 0 1-4.803 1.61z"/><path fill="#7B0000" d="M8.31 12.263a.427.427 0 0 0 .425-.43c0-.236-.19-.429-.425-.429a.427.427 0 0 0-.424.43c0 .237.19.429.424.429"/></svg>