<svg width="23" height="21" viewBox="0 0 23 21" fill="none" xmlns="http://www.w3.org/2000/svg">
<g clip-path="url(#clip0_497_3654)">
<path d="M20.4628 0V4.23256H13.6419V7.08139C15.3264 7.14977 17.0228 7.28895 18.6823 7.58238C19.6663 7.75657 22.4367 8.32145 22.9058 9.2286C23.0655 9.5375 23.0144 9.74099 22.8093 10.0076C22.1909 10.8113 19.8044 11.316 18.8004 11.4975C17.111 11.8031 15.3596 11.9598 13.6424 12.0054V20.9996H9.27535V12.0054C7.59551 11.9513 5.8878 11.8003 4.23499 11.5044C3.14407 11.3091 1.63392 10.9823 0.6948 10.4105C-1.37849 9.14802 1.75037 8.16884 2.77807 7.90674C4.87923 7.37076 7.11056 7.19942 9.27535 7.08139V4.23256H2.45408V0H20.4628ZM9.27493 7.32558C7.69491 7.37035 6.08119 7.5075 4.52571 7.78587C3.75129 7.92465 1.79861 8.3068 1.35443 8.95593C1.09657 9.33279 1.39352 9.61686 1.71793 9.81587C3.48885 10.9029 7.96442 11.0885 10.0872 11.1495C13.0277 11.2338 16.0871 11.1646 18.973 10.5688C19.6805 10.4227 23.0302 9.67343 21.2493 8.61081C20.432 8.12326 18.9701 7.85587 18.0173 7.70366C16.5849 7.47453 15.0922 7.35855 13.6415 7.32558V10.5H9.27452V7.32558H9.27493Z" fill="#5529A6"/>
</g>
<defs>
<clipPath id="clip0_497_3654">
<rect width="23" height="21" fill="white"/>
</clipPath>
</defs>
</svg>
