<svg xmlns="http://www.w3.org/2000/svg" width="23" height="21" fill="none"><g clip-path="url(#a)"><path fill="#5529A6" d="M20.463 0v4.233h-6.821V7.08c1.684.069 3.38.208 5.04.501.984.175 3.755.74 4.224 1.647.16.309.108.512-.097.779-.618.803-3.005 1.308-4.009 1.49-1.689.305-3.44.462-5.158.507V21H9.275v-8.995c-1.68-.054-3.387-.205-5.04-.5-1.09-.196-2.601-.523-3.54-1.094-2.073-1.263 1.055-2.242 2.083-2.504 2.101-.536 4.333-.708 6.497-.826V4.233h-6.82V0zM9.275 7.326c-1.58.044-3.194.182-4.75.46-.774.139-2.726.52-3.17 1.17-.258.377.039.66.363.86 1.77 1.087 6.246 1.272 8.37 1.333 2.94.085 6 .016 8.885-.58.707-.146 4.057-.896 2.276-1.958-.817-.488-2.279-.755-3.232-.907a33 33 0 0 0-4.375-.378V10.5H9.275z"/></g><defs><clipPath id="a"><path fill="#fff" d="M0 0h23v21H0z"/></clipPath></defs></svg>