<svg xmlns="http://www.w3.org/2000/svg" width="100" height="78" fill="none"><g fill="#D8D8D8" clip-path="url(#a)"><path d="M36.677.005c-.54.18-1.255.202-1.776.379-1.886.638-4.057 2.61-5.076 4.29-.24.397-.351 1.125-.761 1.389-.02.198-.17.975-.338 1.015l-18.763-.01c-1.197.207-2.63.4-3.738.889-1.718.758-3.897 2.792-4.822 4.416-.245.43-.353 1.2-.761 1.515.007.316-.103.37-.127.505-.085.465-.334.908-.38 1.135-.016.076.013.174 0 .253-.015.078.01.172 0 .252-.095.632-.107 1.254-.128 1.893-.02.639.01 1.264 0 1.893-.009.628.005 1.263 0 1.893s.004 1.263 0 1.893c-.003.63.003 1.263 0 1.892-.002.63.003 1.264 0 1.893-.002.63.002 1.264 0 1.893 0 .63.002 1.264 0 1.893v32.179c0 .63.003 1.264 0 1.893-.002.63.008 1.264 0 1.893-.003.375.026.764 0 1.136a.95.95 0 0 1 .127.379c.015.12-.019.262 0 .378.207 1.246.74 2.706 1.396 3.786.944 1.555 3.049 3.508 4.695 4.29.27.13 1.58.553 1.903.632.515.124 1.235.092 1.776.252 7.315.007 14.636-.01 21.951 0h.254c19.308.025 38.62-.024 57.929.006.579-.098 1.276-.126 1.834-.258.417-.099 1.512-.46 1.903-.632 1.68-.739 3.917-2.827 4.821-4.416.245-.43.353-1.2.762-1.514-.005-.12-.016-.267 0-.38.045-.351.46-1.044.507-1.261.017-.075-.014-.174 0-.252s-.011-.172 0-.253c.09-.62.106-1.266.127-1.893s-.009-1.264 0-1.893c.009-.628-.005-1.263 0-1.893s-.004-1.263 0-1.892c.004-.63-.002-1.264 0-1.893.003-.63-.002-1.264 0-1.893.003-.63-.001-1.263 0-1.893V21.712c.001-.63-.002-1.264 0-1.893.003-.63-.01-1.263 0-1.893.007-.375-.026-.763 0-1.136-.11-.156-.103-.327-.127-.505-.01-.08.013-.172 0-.252a11 11 0 0 0-1.395-3.786c-1.008-1.667-2.868-3.341-4.568-4.164-.51-.246-1.493-.627-2.03-.757-.201-.048-1.221-.253-1.333-.253H71.19c-.374-.72-.638-1.716-1.015-2.397-.983-1.778-3.023-3.495-4.948-4.165a9.8 9.8 0 0 0-2.216-.51L36.677.007zm28.168 10.348c.022.046.182.107.24.231.52 1.113 1.046 2.253 1.41 3.429.142 0 .449.126.761.126h9.389c.675.001 1.356-.003 2.03 0 .59.002 1.187-.003 1.777 0 .675.002 1.355-.004 2.03 0 .59.002 1.186-.004 1.776 0 .675.005 1.356-.008 2.03 0 .59.008 1.187-.016 1.777 0 .72.02 1.184.005 1.903.126 1.78.3 2.566 1.386 2.92 3.09l.004 50.23c-.066 1.07-.659 2.15-1.536 2.764-1.09.764-2.051.55-3.291.576-.632.013-1.271-.007-1.903 0-.632.006-1.27-.004-1.904 0-.633.003-1.27-.003-1.903 0-.633.002-1.27-.003-1.903 0-.633.002-1.27-.002-1.903 0H23.354c-.633-.002-1.27 0-1.903 0-.633-.002-1.27.002-1.904 0-.633-.003-1.27.002-1.903 0-.633-.003-1.27.003-1.903 0-.633-.004-1.27.007-1.903 0-.633-.008-1.272.017-1.904 0-.72-.02-1.182 0-1.903-.127-1.75-.305-2.568-1.397-2.92-3.09l-.003-50.23c.066-1.069.658-2.15 1.535-2.764 1.091-.763 2.052-.549 3.291-.575.676-.015 1.356.006 2.03 0 .59-.005 1.187.004 1.777 0 .675-.004 1.355.002 2.03 0 .59-.003 1.186.001 1.776 0 .675-.003 1.356.001 2.03 0h11.42c.21 0 .428-.126.508-.126.368-1.293 1.101-2.451 1.65-3.66.379-.838.51-2.038 1.262-2.72.7-.635 1.313-.53 2.163-.56.63-.024 1.272.007 1.903 0 .632-.009 1.27.003 1.904 0 .633-.005 1.27.002 1.903 0 .633-.003 1.27.002 1.903 0 .633-.003 1.27 0 1.904 0q.952-.002 1.903 0 .952-.002 1.903 0 .952-.002 1.903 0c.633 0 1.27-.003 1.904 0 .633.002 1.27-.005 1.903 0 .633.003 1.27-.009 1.903 0 .633.007 1.273-.024 1.903 0 .837.03 1.19-.133 1.906.438.963.769 1.053 1.873 1.52 2.842"/><path d="M51.269 21.205c-.418-.022-.85 0-1.269 0-.691.002-1.232.064-1.903.127-.435.041-.979.06-1.396.126-1.56.245-3.03.814-4.568 1.136-.101.103-.106.177-.285.278-.364.205-1.061.323-1.364.479-.158.08-.41.258-.635.378-.261.14-.878.422-1.015.505-.95.582-3.285 2.384-4.06 3.155s-2.594 3.1-3.172 4.038c-.091.149-.358.733-.508 1.01-.127.234-.303.484-.38.63-.154.292-.277.999-.481 1.357-.102.178-.177.183-.28.284l-1.143 4.543c.046.435-.099.925-.127 1.388-.039.65-.121 1.232-.126 1.893-.003.415-.026.848 0 1.262.048.771.23 1.754.38 2.524.225 1.153.613 2.689 1.015 3.786.177.48.536 1.296.762 1.766.104.217.269.55.38.758.178.329.55.935.762 1.261.718 1.112 1.987 2.722 2.918 3.66.081.082.171.173.254.252.91.872 2.615 2.24 3.68 2.903.256.159.84.47 1.141.63a22.606 22.606 0 0 0 2.538 1.136c.978.359 2.82.95 3.807 1.136.727.138 1.775.032 2.537.253.397-.044.858.025 1.27 0 .635-.038 1.27-.089 1.902-.127.463-.027.965-.174 1.396-.126l4.568-1.135c.425-.434.972-.524 1.523-.758.299-.127.384-.395.888-.378-.022-.377.808-.55 1.142-.757 1.213-.752 2.82-1.924 3.806-2.903s2.145-2.566 2.918-3.786c.224-.352.572-.922.762-1.262.123-.22.3-.479.38-.63.151-.28.28-1.004.481-1.357.102-.178.177-.183.28-.284.314-1.524.895-3 1.143-4.543.066-.414.084-.955.127-1.388.063-.645.087-1.25.127-1.893.025-.409-.045-.867 0-1.262a32 32 0 0 0-.381-2.524 29.5 29.5 0 0 0-1.015-3.785c-.24-.688-.69-1.317-.888-2.02-.035-.122-.108-.223-.127-.378-.463-.304-.617-.966-.889-1.388-.734-1.146-1.961-2.692-2.918-3.66l-.127-.126c-1.072-1.049-2.534-2.239-3.806-3.029-.335-.208-1.027-.29-1.27-.757-.443-.048-.413-.168-.634-.252-.675-.26-1.383-.658-2.03-.884-.843-.294-2.733-.863-3.552-1.01-.596-.107-1.906-.218-2.538-.252m4.44 8.33c3.394 1.45 5.73 3.722 7.233 7.066.72 1.603 1.151 2.886 1.27 4.67.01.166-.007.336 0 .504v.126q.005.316 0 .631a18 18 0 0 1-.128 2.145c-.171 1.416-.443 2.247-1.015 3.534-.308.694-.613 1.25-1.015 1.893-.226.36-.403.49-.508.63-.454.615-.611.823-1.141 1.389-.327.347-.41.431-.762.757-.57.527-.775.683-1.395 1.136-.139.1-.272.28-.635.504-.643.398-1.208.705-1.903 1.01-1.396.612-2.176.789-3.68 1.01-3.17.465-4.96.143-7.867-1.136-2.602-1.146-3.872-2.135-5.582-4.417-.258-.343-.382-.485-.635-.883a11.3 11.3 0 0 1-.888-1.64c-.694-1.533-1.143-2.949-1.269-4.67-.013-.167.008-.337 0-.505v-.126c-.006-.21-.001-.421 0-.63.006-.785.03-1.371.127-2.146.175-1.398.462-2.262 1.015-3.534.775-1.783 1.372-2.519 2.665-3.912.333-.36.406-.429.76-.757.23-.212.42-.526.703-.753.961-.771 2.268-1.685 3.485-1.897.71-.726 2.431-.865 3.426-1.01 2.958-.425 4.974-.174 7.74 1.01M84.259 21.205c-.632-.015-1.272.003-1.904 0-.632-.002-1.27 0-1.903 0h-1.903V28.4H85.4c.117-.03.17-.084.254-.127v-6.94c-.505-.205-.864-.114-1.395-.127"/></g><defs><clipPath id="a"><path fill="#fff" d="M100 0H0v78h100z"/></clipPath></defs></svg>