<svg width="100" height="78" viewBox="0 0 100 78" fill="none" xmlns="http://www.w3.org/2000/svg">
<g clip-path="url(#clip0_12_2094)">
<path d="M36.6769 0.00525064C36.1363 0.184445 35.422 0.20716 34.9005 0.38383C33.015 1.02237 30.844 2.99351 29.8251 4.6744C29.5853 5.07065 29.4737 5.79878 29.0638 6.06252C29.0435 6.26065 28.8938 7.038 28.7263 7.07838L9.96267 7.06828C8.76615 7.27524 7.33363 7.46705 6.22466 7.95668C4.50665 8.7151 2.32804 10.7493 1.40305 12.3734C1.15817 12.8025 1.05032 13.5735 0.641754 13.8878C0.649361 14.2045 0.538971 14.2588 0.51487 14.3925C0.429855 14.8582 0.18116 15.3011 0.134216 15.5283C0.118988 15.604 0.14817 15.7024 0.134216 15.7807C0.120255 15.8589 0.14563 15.9535 0.134216 16.033C0.0403214 16.6653 0.0276337 17.2874 0.00733185 17.9259C-0.01297 18.5645 0.0162125 19.1904 0.00733185 19.8188C-0.00154877 20.4473 0.0124054 21.082 0.00733185 21.7117C0.00225067 22.3414 0.0111389 22.9749 0.00733185 23.6046C0.00352478 24.2343 0.00986481 24.8678 0.00733185 25.4975C0.00479126 26.1272 0.00986481 26.7607 0.00733185 27.3904C0.00479126 28.0201 0.00859833 28.6536 0.00733185 29.2833C0.00605774 29.913 0.00859833 30.5465 0.00733185 31.1762C0.00605774 31.8059 0.00733185 32.4394 0.00733185 33.0691C0.00733185 33.6988 0.00733185 34.3323 0.00733185 34.962C0.00733185 35.5917 0.00733185 36.2252 0.00733185 36.8549C0.00733185 37.4846 0.00733185 38.1181 0.00733185 38.7478C0.00733185 39.3775 0.00733185 40.011 0.00733185 40.6407C0.00733185 41.2704 0.00733185 41.9039 0.00733185 42.5336C0.00733185 43.1633 0.00733185 43.7968 0.00733185 44.4265V46.3194C0.00733185 46.9491 0.00733185 47.5826 0.00733185 48.2123V50.1052C0.00733185 50.7349 0.00733185 51.3684 0.00733185 51.9981C0.00733185 52.6278 0.00733185 53.2613 0.00733185 53.891C0.00733185 54.5207 0.00733185 55.1542 0.00733185 55.7839C0.00733185 56.4136 0.00733185 57.0471 0.00733185 57.6768C0.00733185 58.3065 0.00733185 58.94 0.00733185 59.5697C0.00733185 60.1994 0.00733185 60.8329 0.00733185 61.4626C0.00733185 62.0923 0.00733185 62.7258 0.00733185 63.3555C0.00733185 63.9852 0.00986481 64.6187 0.00733185 65.2484C0.00479126 65.8781 0.014946 66.5116 0.00733185 67.1413C0.00352478 67.5161 0.0327072 67.9047 0.00733185 68.277C0.0771179 68.3931 0.117722 68.5206 0.134216 68.6556C0.149437 68.7767 0.115181 68.9181 0.134216 69.0342C0.341034 70.2797 0.873947 71.7398 1.52994 72.82C2.47396 74.3747 4.57897 76.3281 6.22466 77.1105C6.49492 77.2393 7.80437 77.6633 8.12792 77.7415C8.64307 77.8664 9.3625 77.8336 9.9043 77.9939C17.2192 78.0015 24.5404 77.9838 31.8553 77.9939C31.9403 77.9939 32.024 77.9939 32.109 77.9939C51.417 78.0191 70.7288 77.9699 90.038 78.0002C90.6166 77.9018 91.3145 77.874 91.8715 77.7415C92.289 77.6431 93.384 77.2822 93.7748 77.1105C95.4547 76.371 97.6917 74.2826 98.5964 72.6938C98.8413 72.2647 98.9491 71.4937 99.3577 71.1795C99.3526 71.0608 99.3425 70.9132 99.3577 70.8009C99.4034 70.4488 99.8183 69.756 99.8652 69.539C99.8817 69.4645 99.8513 69.3648 99.8652 69.2866C99.8792 69.2083 99.8538 69.1149 99.8652 69.0342C99.9553 68.4146 99.9705 67.7685 99.9921 67.1413C100.014 66.5141 99.9832 65.8768 99.9921 65.2484C100.001 64.6199 99.987 63.9852 99.9921 63.3555C99.9972 62.7258 99.9883 62.0923 99.9921 61.4626C99.9959 60.8329 99.9896 60.1994 99.9921 59.5697C99.9946 58.94 99.9896 58.3065 99.9921 57.6768C99.9946 57.0471 99.9908 56.4136 99.9921 55.7839C99.9934 55.1542 99.9908 54.5207 99.9921 53.891C99.9934 53.2613 99.9921 52.6278 99.9921 51.9981C99.9921 51.3684 99.9921 50.7349 99.9921 50.1052C99.9921 49.4755 99.9921 48.842 99.9921 48.2123C99.9921 47.5826 99.9921 46.9491 99.9921 46.3194C99.9921 45.6897 99.9921 45.0562 99.9921 44.4265C99.9921 43.7968 99.9921 43.1633 99.9921 42.5336C99.9921 41.9039 99.9921 41.2704 99.9921 40.6407V38.7478C99.9921 38.1181 99.9921 37.4846 99.9921 36.8549C99.9921 36.2252 99.9921 35.5917 99.9921 34.962C99.9921 34.3323 99.9921 33.6988 99.9921 33.0691C99.9921 32.4394 99.9921 31.8059 99.9921 31.1762C99.9921 30.5465 99.9921 29.913 99.9921 29.2833C99.9921 28.6536 99.9921 28.0201 99.9921 27.3904C99.9921 26.7607 99.9921 26.1272 99.9921 25.4975C99.9921 24.8678 99.9921 24.2343 99.9921 23.6046C99.9921 22.9749 99.9908 22.3414 99.9921 21.7117C99.9934 21.082 99.9896 20.4485 99.9921 19.8188C99.9946 19.1891 99.982 18.5556 99.9921 17.9259C99.9985 17.5512 99.9655 17.1625 99.9921 16.7902C99.8817 16.6337 99.8893 16.4634 99.8652 16.2854C99.8551 16.2047 99.8779 16.1125 99.8652 16.033C99.6584 14.7509 99.142 13.359 98.4695 12.2473C97.462 10.5802 95.6019 8.90566 93.9017 8.08288C93.3916 7.8368 92.4095 7.4557 91.8715 7.32572C91.671 7.27776 90.6509 7.07333 90.5392 7.07333H71.1894C70.8151 6.35277 70.5512 5.3571 70.1743 4.67566C69.191 2.8976 67.1507 1.18137 65.2258 0.511285C64.5064 0.260161 63.773 0.0809665 63.0104 0.00146484L36.6769 0.00651257V0.00525064ZM64.8452 10.3531C64.8667 10.3985 65.0266 10.4604 65.085 10.584C65.6052 11.697 66.1305 12.8366 66.4947 14.0127C66.6368 14.0127 66.9438 14.1389 67.256 14.1389C67.8473 14.1389 68.4411 14.1389 69.0324 14.1389C69.7074 14.1389 70.3875 14.1389 71.0625 14.1389C71.6538 14.1389 72.2476 14.1389 72.8389 14.1389C73.5139 14.1389 74.194 14.1376 74.869 14.1389C75.4603 14.1389 76.0541 14.1376 76.6454 14.1389C77.3204 14.1401 78.0005 14.1364 78.6756 14.1389C79.2656 14.1414 79.8619 14.1364 80.4519 14.1389C81.127 14.1414 81.8071 14.1351 82.4821 14.1389C83.0721 14.1414 83.6684 14.1351 84.2585 14.1389C84.9335 14.1439 85.6136 14.1313 86.2886 14.1389C86.8786 14.1465 87.475 14.1225 88.065 14.1389C88.7857 14.1591 89.2488 14.1439 89.9683 14.2651C91.7472 14.5642 92.5339 15.6507 92.8879 17.3556L92.8917 67.5855C92.8257 68.6543 92.2331 69.7358 91.3564 70.3491C90.2652 71.1126 89.3046 70.8981 88.065 70.9246C87.4331 70.9384 86.7936 70.9183 86.1617 70.9246C85.5298 70.9309 84.8916 70.9208 84.2585 70.9246C83.6253 70.9283 82.9883 70.922 82.3552 70.9246C81.722 70.9271 81.0851 70.922 80.4519 70.9246C79.8188 70.9271 79.1818 70.9233 78.5487 70.9246C77.9155 70.9258 77.2786 70.9246 76.6454 70.9246C76.0123 70.9246 75.3753 70.9246 74.7421 70.9246C74.109 70.9246 73.472 70.9246 72.8389 70.9246C72.2057 70.9246 71.5688 70.9246 70.9356 70.9246C70.3025 70.9246 69.6655 70.9246 69.0324 70.9246C68.3992 70.9246 67.7622 70.9246 67.1291 70.9246C66.4959 70.9246 65.859 70.9246 65.2258 70.9246C64.5927 70.9246 63.9557 70.9246 63.3226 70.9246C62.6894 70.9246 62.0525 70.9246 61.4193 70.9246C60.7861 70.9246 60.1492 70.9246 59.516 70.9246C58.8829 70.9246 58.2459 70.9246 57.6128 70.9246C56.9796 70.9246 56.3427 70.9246 55.7095 70.9246C55.0764 70.9246 54.4394 70.9246 53.8062 70.9246C53.1731 70.9246 52.5361 70.9246 51.903 70.9246C51.2698 70.9246 50.6329 70.9246 49.9997 70.9246C49.3666 70.9246 48.7296 70.9246 48.0965 70.9246C47.4633 70.9246 46.8263 70.9246 46.1932 70.9246C45.56 70.9246 44.9231 70.9246 44.2899 70.9246C43.6568 70.9246 43.0198 70.9246 42.3867 70.9246C41.7535 70.9246 41.1166 70.9246 40.4834 70.9246C39.8503 70.9246 39.2133 70.9246 38.5801 70.9246C37.947 70.9246 37.31 70.9246 36.6769 70.9246C36.0437 70.9246 35.4068 70.9246 34.7736 70.9246C34.1405 70.9246 33.5035 70.9246 32.8703 70.9246C32.2372 70.9246 31.6002 70.9246 30.9671 70.9246C30.3339 70.9246 29.697 70.9246 29.0638 70.9246C28.4307 70.9246 27.7937 70.9246 27.1606 70.9246C26.5274 70.9246 25.8904 70.9246 25.2573 70.9246C24.6241 70.9246 23.9872 70.9258 23.354 70.9246C22.7209 70.9233 22.0839 70.9258 21.4508 70.9246C20.8176 70.9233 20.1807 70.9271 19.5475 70.9246C18.9144 70.922 18.2774 70.9271 17.6442 70.9246C17.0111 70.922 16.3741 70.9283 15.741 70.9246C15.1078 70.9208 14.4709 70.9321 13.8377 70.9246C13.2046 70.917 12.5663 70.9422 11.9344 70.9246C11.2137 70.9044 10.7519 70.9246 10.0312 70.7984C8.28145 70.493 7.46304 69.4014 7.11158 67.7079L7.10777 17.478C7.17375 16.4091 7.7663 15.3276 8.64307 14.7143C9.73428 13.9509 10.6948 14.1654 11.9344 14.1389C12.6095 14.1237 13.2896 14.1452 13.9646 14.1389C14.5546 14.1338 15.151 14.1427 15.741 14.1389C16.416 14.1351 17.0961 14.1414 17.7711 14.1389C18.3611 14.1364 18.9575 14.1401 19.5475 14.1389C20.2225 14.1364 20.9026 14.1401 21.5777 14.1389C22.1689 14.1376 22.7627 14.1401 23.354 14.1389C24.0291 14.1376 24.7092 14.1389 25.3842 14.1389C25.9755 14.1389 26.5693 14.1389 27.1606 14.1389C27.8356 14.1389 28.5157 14.1389 29.1907 14.1389C29.782 14.1389 30.3758 14.1389 30.9671 14.1389C31.6421 14.1389 32.3222 14.1389 32.9972 14.1389C33.2079 14.1389 33.4248 14.0127 33.5048 14.0127C33.8727 12.7205 34.6061 11.562 35.1543 10.3531C35.5336 9.51517 35.6656 8.31507 36.4168 7.63363C37.1172 6.99762 37.73 7.10236 38.5801 7.07207C39.2108 7.04935 39.8515 7.07964 40.4834 7.07207C41.1153 7.0645 41.7535 7.07585 42.3867 7.07207C43.0198 7.06828 43.6568 7.07459 44.2899 7.07207C44.9231 7.06955 45.56 7.07459 46.1932 7.07207C46.8263 7.06955 47.4633 7.07333 48.0965 7.07207C48.7296 7.07081 49.3666 7.07207 49.9997 7.07207C50.6329 7.07207 51.2698 7.07081 51.903 7.07207C52.5361 7.07333 53.1731 7.07081 53.8062 7.07207C54.4394 7.07333 55.0764 7.06955 55.7095 7.07207C56.3427 7.07459 56.9796 7.06828 57.6128 7.07207C58.2459 7.07585 58.8829 7.0645 59.516 7.07207C60.1492 7.07964 60.7887 7.04935 61.4193 7.07207C62.2555 7.10236 62.6095 6.93957 63.3251 7.51122C64.2882 8.27974 64.3782 9.38393 64.8452 10.3531Z" fill="#D8D8D8"/>
<path d="M51.2689 21.2054C50.8514 21.1827 50.4188 21.2054 50.0001 21.2054C49.3085 21.2067 48.768 21.2685 48.0968 21.3316C47.6616 21.3732 47.1185 21.3922 46.7011 21.4578C45.1417 21.7026 43.6711 22.2717 42.1332 22.5935C42.0317 22.697 42.0266 22.7715 41.8477 22.8724C41.4836 23.0769 40.787 23.1955 40.4837 23.3507C40.3264 23.4315 40.0739 23.6094 39.8493 23.7293C39.5879 23.8681 38.9713 24.1508 38.8342 24.234C37.8839 24.8158 35.5492 26.6178 34.7739 27.3889C33.9987 28.1599 32.1804 30.4882 31.6018 31.4271C31.5105 31.576 31.244 32.1602 31.0943 32.4366C30.9674 32.6713 30.7911 32.9212 30.7137 33.0676C30.5601 33.3591 30.437 34.0658 30.2328 34.4241C30.1313 34.6021 30.0564 34.6071 29.9523 34.7081L28.8104 39.251C28.8561 39.6864 28.7114 40.176 28.6835 40.6392C28.6442 41.2891 28.5617 41.8708 28.5566 42.5321C28.5541 42.9472 28.5312 43.3801 28.5566 43.794C28.6048 44.565 28.7876 45.5481 28.9373 46.3179C29.1619 47.4713 29.5501 49.007 29.9523 50.1036C30.1287 50.5844 30.4878 51.3997 30.7137 51.8704C30.8177 52.0874 30.9826 52.4206 31.0943 52.6275C31.2719 52.9569 31.6437 53.5626 31.8556 53.8894C32.5738 55.0012 33.8426 56.6114 34.7739 57.549C34.8552 57.6311 34.9452 57.7219 35.0277 57.8014C35.9387 58.6734 37.6428 60.0414 38.7074 60.7039C38.9637 60.8629 39.5473 61.1733 39.8493 61.3348C40.0536 61.4446 40.3898 61.6074 40.6106 61.7134C41.1347 61.9645 41.8439 62.2712 42.387 62.4706C43.3653 62.829 45.2076 63.4196 46.1935 63.6063C46.9206 63.7439 47.9686 63.6379 48.7312 63.8587C49.1284 63.8145 49.5889 63.8839 50.0001 63.8587C50.6357 63.8208 51.2714 63.7704 51.9033 63.7325C52.3664 63.7048 52.8676 63.5584 53.299 63.6063L57.8669 62.4706C58.2919 62.0365 58.8388 61.9469 59.3895 61.7134C59.6889 61.586 59.7739 61.3184 60.2777 61.3348C60.2561 60.9575 61.0859 60.7846 61.4196 60.5777C62.6326 59.8256 64.2403 58.6545 65.2262 57.6752C66.2121 56.696 67.3705 55.1085 68.1445 53.8894C68.3678 53.5374 68.7155 52.967 68.9058 52.6275C69.0289 52.4079 69.2053 52.148 69.2865 51.9965C69.4374 51.7164 69.5656 50.9933 69.7673 50.64C69.8689 50.462 69.9437 50.457 70.0478 50.356C70.3612 48.8316 70.9423 47.3552 71.1897 45.8131C71.2557 45.3992 71.2735 44.8578 71.3166 44.425C71.38 43.7801 71.4042 43.1756 71.4435 42.5321C71.4689 42.1232 71.3991 41.6651 71.4435 41.2701C71.342 40.4259 71.2329 39.5854 71.0628 38.7463C70.8091 37.4906 70.469 36.1694 70.0478 34.9605C69.808 34.2727 69.3575 33.6443 69.1596 32.9414C69.1253 32.819 69.0517 32.718 69.0327 32.5628C68.5696 32.2587 68.416 31.5974 68.1445 31.1747C67.4098 30.0288 66.1829 28.483 65.2262 27.5151C65.1843 27.4722 65.1424 27.4305 65.0993 27.3889C64.0271 26.3402 62.5654 25.1502 61.2928 24.3602C60.9578 24.152 60.2663 24.07 60.0239 23.6031C59.5798 23.5551 59.6103 23.4352 59.3895 23.3507C58.7145 23.0907 58.0064 22.6932 57.3593 22.4673C56.5156 22.1733 54.6263 21.6042 53.8066 21.4578C53.2115 21.3505 51.9008 21.2395 51.2689 21.2054ZM55.7098 29.5342C59.1027 30.9854 61.4387 33.2569 62.9422 36.601C63.6629 38.2036 64.0931 39.487 64.2111 41.2701C64.2225 41.4367 64.2047 41.6071 64.2111 41.7749C64.2124 41.8165 64.2111 41.8594 64.2111 41.9011C64.2162 42.1106 64.2136 42.3226 64.2111 42.5321C64.2035 43.3157 64.1781 43.9038 64.0842 44.6773C63.9129 46.0932 63.6414 46.9236 63.0691 48.2108C62.7608 48.9048 62.4563 49.4613 62.0541 50.1036C61.8282 50.4646 61.6506 50.5945 61.5465 50.7346C61.0923 51.3492 60.9349 51.5574 60.4046 52.1227C60.0785 52.4698 59.9947 52.5543 59.6433 52.8799C59.0735 53.4074 58.868 53.5626 58.2475 54.0156C58.1092 54.1166 57.976 54.2958 57.6131 54.5204C56.9698 54.9179 56.4052 55.2246 55.7098 55.53C54.3141 56.142 53.5338 56.3187 52.0302 56.5395C48.8606 57.0052 47.0703 56.6834 44.1634 55.4038C41.561 54.2579 40.2909 53.2686 38.5805 50.987C38.3229 50.6438 38.1986 50.5024 37.9461 50.1036C37.554 49.4853 37.3598 49.1307 37.0579 48.4631C36.3638 46.9312 35.9146 45.5153 35.789 43.794C35.7763 43.6274 35.7966 43.4571 35.789 43.2892C35.7878 43.2476 35.789 43.2047 35.789 43.163C35.7827 42.9535 35.7878 42.7415 35.789 42.5321C35.7954 41.7484 35.8195 41.1616 35.9159 40.3868C36.091 38.9886 36.3778 38.1254 36.931 36.8534C37.7062 35.0703 38.3026 34.3345 39.5955 32.9414C39.9293 32.5817 40.0016 32.5123 40.3569 32.1842C40.5865 31.9722 40.7756 31.658 41.0585 31.4308C42.0203 30.6598 43.3272 29.7462 44.544 29.5342C45.2533 28.8085 46.9751 28.6685 47.9699 28.5246C50.9276 28.0993 52.9438 28.3505 55.7098 29.5342Z" fill="#D8D8D8"/>
<path d="M84.2586 21.2053C83.6267 21.1901 82.9872 21.2078 82.3553 21.2053C81.7234 21.2028 81.0852 21.2053 80.452 21.2053H78.5488C78.5488 21.3731 78.5488 21.5422 78.5488 21.7101C78.5488 22.3398 78.5488 22.9733 78.5488 23.603C78.5488 24.2327 78.5488 24.8662 78.5488 25.4959C78.5488 26.1256 78.5488 26.7591 78.5488 27.3888C78.5488 27.7244 78.5488 28.0626 78.5488 28.3983H85.4005C85.5173 28.3693 85.5693 28.315 85.6543 28.2721V21.3315C85.1493 21.1271 84.7902 21.2179 84.2586 21.2053Z" fill="#D8D8D8"/>
</g>
<defs>
<clipPath id="clip0_12_2094">
<rect width="100" height="78" fill="white" transform="matrix(-1 0 0 1 100 0)"/>
</clipPath>
</defs>
</svg>
