<svg width="825" height="498" viewBox="0 0 825 498" fill="none" xmlns="http://www.w3.org/2000/svg">
<path style="mix-blend-mode:screen" d="M777.031 0H47.9771C21.5241 0 0 21.5016 0 47.9363V450.056C0 476.491 21.5241 498 47.9771 498H777.031C803.484 498 825 476.491 825 450.056V47.9363C825 21.5016 803.484 0 777.031 0ZM820.393 450.056C820.393 473.955 800.939 493.389 777.031 493.389H47.9771C24.069 493.389 4.61451 473.955 4.61451 450.056V47.9363C4.61451 24.0448 24.069 4.60366 47.9771 4.60366H777.031C800.939 4.60366 820.393 24.0448 820.393 47.9363V450.056Z" fill="url(#paint0_radial_165_81)"/>
<path d="M47.9771 2.30566H777.031C802.234 2.30566 822.7 22.7579 822.7 47.944V450.064C822.7 475.25 802.234 495.702 777.031 495.702H47.9771C22.7736 495.702 2.30725 475.25 2.30725 450.064V47.9363C2.30725 22.7502 22.7736 2.30566 47.9771 2.30566Z" fill="url(#paint1_radial_165_81)"/>
<path style="mix-blend-mode:screen" opacity="0.4" d="M523.562 2.30566H47.9771C22.7583 2.30566 2.30725 22.7349 2.30725 47.9363V450.056C2.30725 475.257 22.7506 495.694 47.9771 495.694H240.889L523.562 2.30566Z" fill="url(#paint2_linear_165_81)"/>
<path d="M825 47.9363V85.5853H0V47.9363C0 21.5016 21.5241 0 47.9771 0H777.031C803.484 0 825 21.5016 825 47.9363Z" fill="black"/>
<path d="M79.2363 151.546H180.303C190.015 151.546 197.903 159.428 197.903 169.133V217.927C197.903 227.632 190.015 235.515 180.303 235.515H79.2363C69.5244 235.515 61.6368 227.632 61.6368 217.927V169.133C61.6368 159.428 69.5244 151.546 79.2363 151.546Z" fill="url(#paint3_linear_165_81)"/>
<g style="mix-blend-mode:overlay">
<path d="M139.708 193.53C143.471 190.52 145.679 186.008 145.679 181.144C145.679 179.757 145.503 178.417 145.165 177.138C144.997 176.487 144.782 175.851 144.529 175.23C142.183 169.386 136.442 165.242 129.766 165.242C123.089 165.242 117.609 169.194 115.171 174.832C114.841 175.575 114.573 176.341 114.366 177.138C114.029 178.417 113.853 179.757 113.853 181.144C113.853 186.008 116.053 190.52 119.824 193.53C116.053 196.54 113.853 201.06 113.853 205.916C113.853 207.165 113.998 208.375 114.274 209.54C114.458 210.336 114.703 211.102 115.002 211.845C117.356 217.69 123.082 221.826 129.766 221.826C136.45 221.826 142.176 217.69 144.529 211.845C144.836 211.094 145.073 210.328 145.257 209.54C145.533 208.375 145.679 207.165 145.679 205.916C145.679 201.06 143.471 196.54 139.708 193.53ZM129.766 219.52C122.261 219.52 116.152 213.415 116.152 205.916C116.152 201.297 118.498 197.023 122.422 194.503L123.925 193.53L122.422 192.565C118.498 190.037 116.152 185.771 116.152 181.144C116.152 173.645 122.261 167.547 129.766 167.547C137.27 167.547 143.372 173.645 143.372 181.144C143.372 185.771 141.034 190.037 137.109 192.565L135.607 193.53L137.109 194.503C141.034 197.023 143.372 201.297 143.372 205.916C143.372 213.415 137.27 219.52 129.766 219.52Z" fill="#070A10"/>
<path d="M115.968 174.832H61.6289V177.138H115.968V174.832Z" fill="#070A10"/>
<path d="M197.902 174.832H144.529V177.138H197.902V174.832Z" fill="#070A10"/>
<path d="M115.968 209.54H61.6289V211.845H115.968V209.54Z" fill="#070A10"/>
<path d="M197.902 209.54H144.529V211.845H197.902V209.54Z" fill="#070A10"/>
<path d="M89.9522 151.546H87.6449V235.515H89.9522V151.546Z" fill="#070A10"/>
<path d="M164.512 175.981H162.205V210.689H164.512V175.981Z" fill="#070A10"/>
<path d="M177.099 151.546H174.792V175.981H177.099V151.546Z" fill="#070A10"/>
<path d="M177.099 210.696H174.792V235.522H177.099V210.696Z" fill="#070A10"/>
</g>
<defs>
<radialGradient id="paint0_radial_165_81" cx="0" cy="0" r="1" gradientUnits="userSpaceOnUse" gradientTransform="translate(418.747 251.838) scale(536.003 535.634)">
<stop offset="0.58" stop-color="#00B355"/>
<stop offset="0.65" stop-color="#00843E"/>
<stop offset="0.74" stop-color="#005528"/>
<stop offset="0.81" stop-color="#003016"/>
<stop offset="0.89" stop-color="#00150A"/>
<stop offset="0.95" stop-color="#000502"/>
<stop offset="1"/>
</radialGradient>
<radialGradient id="paint1_radial_165_81" cx="0" cy="0" r="1" gradientUnits="userSpaceOnUse" gradientTransform="translate(339.166 3.07933) scale(524.528 524.167)">
<stop offset="0.41" stop-color="#005227"/>
<stop offset="0.62" stop-color="#002F16"/>
<stop offset="0.87" stop-color="#000C06"/>
<stop offset="1"/>
</radialGradient>
<linearGradient id="paint2_linear_165_81" x1="276.288" y1="-168.252" x2="232.212" y2="468.145" gradientUnits="userSpaceOnUse">
<stop stop-color="white"/>
<stop offset="0.07" stop-color="#D4D4D4"/>
<stop offset="0.16" stop-color="#A2A2A2"/>
<stop offset="0.26" stop-color="#777777"/>
<stop offset="0.36" stop-color="#525252"/>
<stop offset="0.47" stop-color="#343434"/>
<stop offset="0.58" stop-color="#1D1D1D"/>
<stop offset="0.7" stop-color="#0C0C0C"/>
<stop offset="0.83" stop-color="#030303"/>
<stop offset="1"/>
</linearGradient>
<linearGradient id="paint3_linear_165_81" x1="129.766" y1="235.515" x2="129.766" y2="151.546" gradientUnits="userSpaceOnUse">
<stop stop-color="#FFF08A"/>
<stop offset="0.05" stop-color="#E6CB63"/>
<stop offset="0.1" stop-color="#D0AB42"/>
<stop offset="0.15" stop-color="#BF9228"/>
<stop offset="0.21" stop-color="#B38115"/>
<stop offset="0.26" stop-color="#AC760A"/>
<stop offset="0.32" stop-color="#AA7307"/>
<stop offset="0.39" stop-color="#AE780C"/>
<stop offset="0.49" stop-color="#BA881D"/>
<stop offset="0.6" stop-color="#CDA239"/>
<stop offset="0.66" stop-color="#DCB64E"/>
<stop offset="0.68" stop-color="#DFBB54"/>
<stop offset="0.82" stop-color="#F0D974"/>
<stop offset="0.93" stop-color="#FBEB88"/>
<stop offset="1" stop-color="#FFF290"/>
</linearGradient>
</defs>
</svg>
