<svg xmlns="http://www.w3.org/2000/svg" width="825" height="498" fill="none"><path fill="url(#a)" d="M777.031 0H47.977C21.524 0 0 21.502 0 47.936v402.12C0 476.491 21.524 498 47.977 498h729.054C803.484 498 825 476.491 825 450.056V47.936C825 21.502 803.484 0 777.031 0m43.362 450.056c0 23.899-19.454 43.333-43.362 43.333H47.977c-23.908 0-43.362-19.434-43.362-43.333V47.936c0-23.891 19.454-43.332 43.362-43.332h729.054c23.908 0 43.362 19.44 43.362 43.332z" style="mix-blend-mode:screen"/><path fill="url(#b)" d="M47.977 2.306h729.054c25.203 0 45.669 20.452 45.669 45.638v402.12c0 25.186-20.466 45.638-45.669 45.638H47.977c-25.203 0-45.67-20.452-45.67-45.638V47.936c0-25.186 20.467-45.63 45.67-45.63"/><path fill="url(#c)" d="M523.562 2.306H47.977c-25.219 0-45.67 20.429-45.67 45.63v402.12c0 25.201 20.444 45.638 45.67 45.638H240.89z" opacity=".4" style="mix-blend-mode:screen"/><path fill="#000" d="M825 47.936v37.65H0v-37.65C0 21.502 21.524 0 47.977 0h729.054C803.484 0 825 21.502 825 47.936"/><path fill="url(#d)" d="M79.236 151.546h101.067c9.712 0 17.6 7.882 17.6 17.587v48.794c0 9.705-7.888 17.588-17.6 17.588H79.236c-9.712 0-17.6-7.883-17.6-17.588v-48.794c0-9.705 7.888-17.587 17.6-17.587"/><g fill="#070A10" style="mix-blend-mode:overlay"><path d="M139.708 193.53c3.763-3.01 5.971-7.522 5.971-12.386a15.6 15.6 0 0 0-1.15-5.914c-2.346-5.844-8.087-9.988-14.763-9.988s-12.157 3.952-14.595 9.59c-.33.743-.598 1.509-.805 2.306a15.7 15.7 0 0 0-.513 4.006c0 4.864 2.2 9.376 5.971 12.386a15.8 15.8 0 0 0-5.971 12.386c0 1.249.145 2.459.421 3.624q.278 1.192.728 2.305c2.354 5.845 8.08 9.981 14.764 9.981s12.41-4.136 14.763-9.981c.307-.751.544-1.517.728-2.305.276-1.165.422-2.375.422-3.624 0-4.856-2.208-9.376-5.971-12.386m-9.942 25.99c-7.505 0-13.614-6.105-13.614-13.604 0-4.619 2.346-8.893 6.27-11.413l1.503-.973-1.503-.965c-3.924-2.528-6.27-6.794-6.27-11.421 0-7.499 6.109-13.597 13.614-13.597 7.504 0 13.606 6.098 13.606 13.597 0 4.627-2.338 8.893-6.263 11.421l-1.502.965 1.502.973c3.925 2.52 6.263 6.794 6.263 11.413 0 7.499-6.102 13.604-13.606 13.604"/><path d="M115.968 174.832h-54.34v2.306h54.34zM197.902 174.832h-53.373v2.306h53.373zM115.968 209.54h-54.34v2.305h54.34zM197.902 209.54h-53.373v2.305h53.373z"/><path d="M89.952 151.546h-2.307v83.969h2.307zM164.512 175.981h-2.307v34.708h2.307zM177.099 151.546h-2.307v24.435h2.307zM177.099 210.696h-2.307v24.826h2.307z"/></g><defs><radialGradient id="a" cx="0" cy="0" r="1" gradientTransform="matrix(536.003 0 0 535.634 418.747 251.838)" gradientUnits="userSpaceOnUse"><stop offset=".58" stop-color="#00B355"/><stop offset=".65" stop-color="#00843E"/><stop offset=".74" stop-color="#005528"/><stop offset=".81" stop-color="#003016"/><stop offset=".89" stop-color="#00150A"/><stop offset=".95" stop-color="#000502"/><stop offset="1"/></radialGradient><radialGradient id="b" cx="0" cy="0" r="1" gradientTransform="matrix(524.528 0 0 524.167 339.166 3.08)" gradientUnits="userSpaceOnUse"><stop offset=".41" stop-color="#005227"/><stop offset=".62" stop-color="#002F16"/><stop offset=".87" stop-color="#000C06"/><stop offset="1"/></radialGradient><linearGradient id="c" x1="276.288" x2="232.212" y1="-168.252" y2="468.145" gradientUnits="userSpaceOnUse"><stop stop-color="#fff"/><stop offset=".07" stop-color="#D4D4D4"/><stop offset=".16" stop-color="#A2A2A2"/><stop offset=".26" stop-color="#777"/><stop offset=".36" stop-color="#525252"/><stop offset=".47" stop-color="#343434"/><stop offset=".58" stop-color="#1D1D1D"/><stop offset=".7" stop-color="#0C0C0C"/><stop offset=".83" stop-color="#030303"/><stop offset="1"/></linearGradient><linearGradient id="d" x1="129.766" x2="129.766" y1="235.515" y2="151.546" gradientUnits="userSpaceOnUse"><stop stop-color="#FFF08A"/><stop offset=".05" stop-color="#E6CB63"/><stop offset=".1" stop-color="#D0AB42"/><stop offset=".15" stop-color="#BF9228"/><stop offset=".21" stop-color="#B38115"/><stop offset=".26" stop-color="#AC760A"/><stop offset=".32" stop-color="#AA7307"/><stop offset=".39" stop-color="#AE780C"/><stop offset=".49" stop-color="#BA881D"/><stop offset=".6" stop-color="#CDA239"/><stop offset=".66" stop-color="#DCB64E"/><stop offset=".68" stop-color="#DFBB54"/><stop offset=".82" stop-color="#F0D974"/><stop offset=".93" stop-color="#FBEB88"/><stop offset="1" stop-color="#FFF290"/></linearGradient></defs></svg>