<svg xmlns="http://www.w3.org/2000/svg" width="692" height="346" fill="none"><path stroke="#fff" stroke-opacity=".07" d="M689.111 259.869c-5.17 20.414-19.64 37.488-41.462 50.869-21.826 13.383-50.978 23.053-85.435 28.66-68.912 11.213-158.946 6.156-253.757-17.854S132.056 259.132 76.786 216.471c-27.636-21.33-48.672-43.71-61.497-65.868C2.465 128.448-2.135 106.546 3.035 86.131s19.64-37.488 41.462-50.869C66.323 21.88 95.474 12.21 129.932 6.602 198.844-4.611 288.878.446 383.689 24.456S560.09 86.868 615.36 129.529c27.636 21.33 48.672 43.71 61.497 65.868 12.824 22.155 17.424 44.057 12.254 64.472Z"/></svg>