<svg width="47" height="40" viewBox="0 0 47 40" fill="none" xmlns="http://www.w3.org/2000/svg">
<path d="M35.2246 0C29.6548 9.475 26.5774 14.2 23.4746 14.2C20.3718 14.2 17.2944 9.475 11.75 0C17.2944 9.475 19.9394 14.475 18.388 17.1C16.8366 19.725 11.1142 20 0 20C11.5211 20 17.2435 20.275 18.5406 23.175C19.7614 25.875 17.1163 30.85 11.75 40C17.3198 30.525 20.3972 25.8 23.5 25.8C26.6028 25.8 29.6802 30.525 35.25 40C29.3496 29.925 26.7554 24.925 28.9426 22.425C30.8755 20.225 36.5725 20 47 20C35.25 20 29.5276 19.7 28.3831 16.625C27.3404 13.875 29.9854 8.925 35.2246 0Z" fill="white"/>
</svg>
