<svg xmlns="http://www.w3.org/2000/svg" width="329" height="214" fill="none"><path fill="url(#a)" d="M322.153 192.005 74.388 178.308c-4.51-.238-8.703-3.679-9.369-7.688L51.667 27.045c-.679-4.04 2.335-7.336 6.734-7.362l231.341-.052c4.418.022 8.679 3.62 9.515 8.036l29.609 156.918c.823 4.383-2.182 7.703-6.711 7.42z"/><path fill="url(#b)" d="M248.88 213.981 6.905 198.538c-4.407-.268-7.147-4.148-6.118-8.667l47.35-161.88c1.03-4.555 5.438-8.273 9.845-8.299l231.362-.058c4.408.026 7.148 4.082 6.119 9.06l-36.737 176.925c-1.03 4.942-5.438 8.686-9.846 8.366z"/><path fill="url(#c)" d="m236.543 192.176-216.71-13.425c-4.128-.234-6.695-3.606-5.73-7.535L48.512 30.484c.964-3.96 5.095-7.191 9.224-7.215l216.709-.052c4.129.022 6.696 3.55 5.73 7.876l-34.41 153.81c-.964 4.296-5.095 7.552-9.224 7.273z"/><mask id="d" width="272" height="163" x="-1" y="12" maskUnits="userSpaceOnUse" style="mask-type:luminance"><path fill="#fff" d="M226.881 174.178 6.834 163.943c-5.233-.365-8.405-5.945-6.04-10.626.187-.369.323-.637.392-.76 11.365-20.526 20.811-42.476 27.96-64.788 7.01-21.878 13.535-44.659 13.718-67.837.033-4.08 3.397-7.347 7.476-7.27l212.939 2.908c4.256.082 7.555 3.753 7.171 7.993-2.01 22.118-5.454 44.974-10.562 66.598-4.872 20.629-11.913 40.669-18.609 60.754-2.098 6.297-4.55 12.557-7.1 18.731a7.35 7.35 0 0 1-7.3 4.532z"/></mask><g mask="url(#d)"><path fill="url(#e)" d="M226.881 174.178 6.834 163.943c-5.233-.365-8.405-5.945-6.04-10.626.187-.369.323-.637.392-.76 11.365-20.526 20.811-42.476 27.96-64.788 7.01-21.878 13.535-44.659 13.718-67.837.033-4.08 3.397-7.347 7.476-7.27l212.939 2.908c4.256.082 7.555 3.753 7.171 7.993-2.01 22.118-5.454 44.974-10.562 66.598-4.872 20.629-11.913 40.669-18.609 60.754-2.098 6.297-4.55 12.557-7.1 18.731a7.35 7.35 0 0 1-7.3 4.532z"/><path fill="url(#f)" d="M226.881 174.178 6.834 163.943c-5.233-.365-8.405-5.945-6.04-10.626.187-.369.323-.637.392-.76 11.365-20.526 20.811-42.476 27.96-64.788 7.01-21.878 13.535-44.659 13.718-67.837.033-4.08 3.397-7.347 7.476-7.27l212.939 2.908c4.256.082 7.555 3.753 7.171 7.993-2.01 22.118-5.454 44.974-10.562 66.598-4.872 20.629-11.913 40.669-18.609 60.754-2.098 6.297-4.55 12.557-7.1 18.731a7.35 7.35 0 0 1-7.3 4.532z"/></g><path fill="url(#g)" d="M90.585 69.522q-8.709-.279-17.419-.56c-2.772-.088-4.617-2.144-4.165-4.59a293 293 0 0 0 2.424-15.324c.32-2.434 2.798-4.33 5.579-4.242q8.734.28 17.466.555c2.78.089 4.805 2.13 4.477 4.565a296 296 0 0 1-2.474 15.328c-.46 2.445-3.116 4.357-5.888 4.266zm50.109-2.847a296 296 0 0 0 2.549-15.335c.34-2.434-1.674-4.478-4.453-4.566l-17.464-.557c-2.78-.09-5.267 1.81-5.6 4.244a299 299 0 0 1-2.502 15.33c-.465 2.446 1.37 4.503 4.144 4.591l17.417.56c2.772.088 5.438-1.823 5.909-4.269zm44.212 1.42a297 297 0 0 0 2.628-15.342c.352-2.437-1.651-4.48-4.429-4.569l-17.462-.557c-2.781-.089-5.277 1.81-5.622 4.247a296 296 0 0 1-2.58 15.337c-.478 2.445 1.348 4.504 4.12 4.593q8.708.279 17.415.559c2.77.089 5.447-1.823 5.93-4.27zm44.207 1.42a299 299 0 0 0 2.705-15.345c.365-2.437-1.629-4.482-4.408-4.57q-8.728-.28-17.46-.558c-2.781-.089-5.285 1.812-5.643 4.249a297 297 0 0 1-2.658 15.344c-.488 2.445 1.324 4.503 4.097 4.592l17.41.56c2.77.088 5.455-1.824 5.952-4.271zM80.993 104.61l-17.36-.56c-2.763-.088-4.383-2.145-3.666-4.59a316 316 0 0 0 4.097-15.324c.585-2.435 3.269-4.331 6.04-4.243q8.705.28 17.407.555c2.77.089 4.572 2.13 3.977 4.565a314 314 0 0 1-4.146 15.328c-.726 2.446-3.59 4.357-6.354 4.267zm50.419-2.847a318 318 0 0 0 4.224-15.335c.605-2.435-1.186-4.478-3.956-4.567l-17.404-.557c-2.772-.089-5.464 1.81-6.062 4.245a317 317 0 0 1-4.175 15.33c-.73 2.446.88 4.502 3.643 4.591q8.678.279 17.356.559c2.761.089 5.637-1.823 6.376-4.268zm44.057 1.419a319 319 0 0 0 4.302-15.341c.618-2.437-1.163-4.48-3.933-4.57l-17.401-.556c-2.77-.09-5.475 1.81-6.084 4.246a319 319 0 0 1-4.252 15.337c-.744 2.446.855 4.504 3.619 4.593q8.675.28 17.351.559c2.762.089 5.646-1.823 6.398-4.27zm44.053 1.421a320 320 0 0 0 4.379-15.345c.631-2.437-1.139-4.483-3.908-4.571l-17.398-.558c-2.77-.088-5.483 1.813-6.105 4.25a317 317 0 0 1-4.333 15.343c-.756 2.445.834 4.504 3.596 4.592l17.349.56c2.762.089 5.655-1.823 6.42-4.271m-151.325 34.53q-8.65-.279-17.3-.559c-2.755-.089-4.16-2.145-3.187-4.59a347 347 0 0 0 5.7-15.325c.84-2.434 3.723-4.331 6.484-4.242l17.347.555c2.761.089 4.35 2.13 3.503 4.564a347 347 0 0 1-5.748 15.329c-.983 2.445-4.046 4.357-6.799 4.266zm50.718-2.847a352 352 0 0 0 5.827-15.335c.86-2.434-.717-4.478-3.478-4.566l-17.346-.558c-2.761-.088-5.654 1.811-6.505 4.245a348 348 0 0 1-5.778 15.331c-.985 2.445.409 4.502 3.163 4.59l17.298.56c2.753.088 5.827-1.824 6.821-4.269zm43.908 1.42a350 350 0 0 0 5.905-15.342c.873-2.437-.694-4.48-3.455-4.569l-17.343-.557c-2.761-.089-5.663 1.81-6.527 4.247a349 349 0 0 1-5.856 15.337c-.998 2.445.387 4.504 3.14 4.593q8.647.279 17.293.559c2.753.089 5.836-1.823 6.843-4.271zm43.903 1.421a348 348 0 0 0 5.983-15.346c.886-2.436-.672-4.482-3.431-4.571l-17.339-.557c-2.761-.089-5.673 1.812-6.551 4.249a350 350 0 0 1-5.935 15.344c-1.011 2.445.363 4.503 3.116 4.592l17.291.56c2.751.088 5.844-1.824 6.864-4.271z"/><path fill="url(#h)" d="M74.402 15.972c.614-.888 1.139-1.847 1.73-2.812.221-.361.444-.724.582-1.124.082-.24.136-.494.279-.706.378-.566 1.193-.585 1.869-.512 2.698.29 3.474 1.802 3.366 4.374-.186 4.461-1.934 8.749-5.118 11.86-2.543 2.482-5.687 3.812-9.25 3.773-.672-.006-1.361-.062-1.973-.337-1.229-.55-1.949-1.942-1.949-3.287 0-4.852 5.296-6.615 8.429-9.015.836-.641 1.476-1.395 2.042-2.212z"/><path fill="url(#i)" d="M81.867 11.462a29 29 0 0 0-.523-2.05 22.6 22.6 0 0 0-1.402-3.647c-.966-1.933-2.323-3.786-4.24-4.86a7.3 7.3 0 0 0-3.975-.894c-5.309.304-8.634 5.625-9.651 12.81a36 36 0 0 0-.305 6.525 32 32 0 0 0 .765 5.837c.53 2.33 1.32 6.57 4.647 5.947 1.964-.367 2.001-2.851 1.303-4.327-.6-1.274-1.357-2.264-1.666-3.674-.283-1.307-.33-2.66-.28-3.997.08-2.075.304-4.255.702-6.242.793-4.005 2.275-7.233 4.64-7.304 1.526-.045 2.516 1.093 3.086 2.39.372.835.605 1.732.784 2.626.151.743.158 1.512.33 2.25q.02.083.042.159l6.151.084c0-.523-.317-1.223-.408-1.638z"/><path fill="url(#j)" d="M81.867 11.462a29 29 0 0 0-.523-2.05 22.6 22.6 0 0 0-1.402-3.647c-.966-1.933-2.323-3.786-4.24-4.86a7.3 7.3 0 0 0-3.975-.894c-5.309.304-8.634 5.625-9.651 12.81a36 36 0 0 0-.305 6.525 32 32 0 0 0 .765 5.837c.53 2.33 1.32 6.57 4.647 5.947 1.964-.367 2.001-2.851 1.303-4.327-.6-1.274-1.357-2.264-1.666-3.674-.283-1.307-.33-2.66-.28-3.997.08-2.075.304-4.255.702-6.242.793-4.005 2.275-7.233 4.64-7.304 1.526-.045 2.516 1.093 3.086 2.39.372.835.605 1.732.784 2.626.151.743.158 1.512.33 2.25q.02.083.042.159l6.151.084c0-.523-.317-1.223-.408-1.638z"/><path fill="url(#k)" d="M81.867 11.462a29 29 0 0 0-.523-2.05 22.6 22.6 0 0 0-1.402-3.647c-.966-1.933-2.323-3.786-4.24-4.86a7.3 7.3 0 0 0-3.975-.894c-5.309.304-8.634 5.625-9.651 12.81a36 36 0 0 0-.305 6.525 32 32 0 0 0 .765 5.837c.53 2.33 1.32 6.57 4.647 5.947 1.964-.367 2.001-2.851 1.303-4.327-.6-1.274-1.357-2.264-1.666-3.674-.283-1.307-.33-2.66-.28-3.997.08-2.075.304-4.255.702-6.242.793-4.005 2.275-7.233 4.64-7.304 1.526-.045 2.516 1.093 3.086 2.39.372.835.605 1.732.784 2.626.151.743.158 1.512.33 2.25q.02.083.042.159l6.151.084c0-.523-.317-1.223-.408-1.638z"/><path fill="url(#l)" d="M117.451 16.497c.614-.888 1.139-1.847 1.731-2.812.22-.361.443-.724.581-1.124.082-.24.136-.494.279-.706.378-.566 1.192-.585 1.869-.512 2.698.29 3.474 1.802 3.366 4.374-.186 4.461-1.934 8.749-5.119 11.86-2.543 2.481-5.686 3.812-9.249 3.773-.672-.006-1.361-.062-1.973-.337-1.229-.55-1.949-1.942-1.949-3.287 0-4.852 5.296-6.615 8.429-9.015.836-.641 1.476-1.395 2.042-2.212z"/><path fill="url(#m)" d="M124.914 11.987a29 29 0 0 0-.523-2.05 22.6 22.6 0 0 0-1.402-3.647c-.966-1.933-2.323-3.786-4.24-4.86a7.3 7.3 0 0 0-3.975-.894c-5.309.304-8.634 5.625-9.651 12.81a36 36 0 0 0-.305 6.525c.08 1.964.326 3.92.765 5.837.529 2.33 1.32 6.569 4.647 5.947 1.964-.367 2.001-2.852 1.303-4.327-.601-1.274-1.357-2.264-1.666-3.674-.283-1.307-.33-2.66-.281-3.997.08-2.076.305-4.255.703-6.242.792-4.005 2.275-7.233 4.641-7.304 1.525-.045 2.514 1.093 3.085 2.39.372.835.605 1.732.784 2.626.151.743.158 1.512.331 2.25q.019.083.041.159l6.151.084c0-.523-.318-1.223-.408-1.638z"/><path fill="url(#n)" d="M124.914 11.987a29 29 0 0 0-.523-2.05 22.6 22.6 0 0 0-1.402-3.647c-.966-1.933-2.323-3.786-4.24-4.86a7.3 7.3 0 0 0-3.975-.894c-5.309.304-8.634 5.625-9.651 12.81a36 36 0 0 0-.305 6.525c.08 1.964.326 3.92.765 5.837.529 2.33 1.32 6.569 4.647 5.947 1.964-.367 2.001-2.852 1.303-4.327-.601-1.274-1.357-2.264-1.666-3.674-.283-1.307-.33-2.66-.281-3.997.08-2.076.305-4.255.703-6.242.792-4.005 2.275-7.233 4.641-7.304 1.525-.045 2.514 1.093 3.085 2.39.372.835.605 1.732.784 2.626.151.743.158 1.512.331 2.25q.019.083.041.159l6.151.084c0-.523-.318-1.223-.408-1.638z"/><path fill="url(#o)" d="M124.914 11.987a29 29 0 0 0-.523-2.05 22.6 22.6 0 0 0-1.402-3.647c-.966-1.933-2.323-3.786-4.24-4.86a7.3 7.3 0 0 0-3.975-.894c-5.309.304-8.634 5.625-9.651 12.81a36 36 0 0 0-.305 6.525c.08 1.964.326 3.92.765 5.837.529 2.33 1.32 6.569 4.647 5.947 1.964-.367 2.001-2.852 1.303-4.327-.601-1.274-1.357-2.264-1.666-3.674-.283-1.307-.33-2.66-.281-3.997.08-2.076.305-4.255.703-6.242.792-4.005 2.275-7.233 4.641-7.304 1.525-.045 2.514 1.093 3.085 2.39.372.835.605 1.732.784 2.626.151.743.158 1.512.331 2.25q.019.083.041.159l6.151.084c0-.523-.318-1.223-.408-1.638z"/><path fill="url(#p)" d="M160.498 17.022c.614-.888 1.139-1.847 1.731-2.812.22-.361.443-.724.581-1.124.082-.24.136-.495.279-.706.378-.566 1.192-.586 1.868-.512 2.699.29 3.475 1.801 3.367 4.374-.186 4.459-1.934 8.749-5.119 11.86-2.543 2.482-5.686 3.812-9.249 3.773-.672-.006-1.361-.062-1.973-.337-1.229-.55-1.949-1.942-1.949-3.288 0-4.851 5.296-6.614 8.429-9.014.836-.641 1.475-1.395 2.041-2.212z"/><path fill="url(#q)" d="M167.961 12.512a30 30 0 0 0-.523-2.05 22.6 22.6 0 0 0-1.403-3.647c-.965-1.933-2.322-3.786-4.239-4.86a7.3 7.3 0 0 0-3.975-.894c-5.309.304-8.634 5.625-9.652 12.81a36 36 0 0 0-.304 6.525c.08 1.964.326 3.92.765 5.837.529 2.33 1.32 6.569 4.647 5.947 1.964-.367 2.001-2.852 1.303-4.327-.601-1.274-1.357-2.264-1.666-3.674-.283-1.307-.33-2.66-.281-3.997.08-2.076.305-4.255.702-6.242.793-4.005 2.276-7.233 4.641-7.304 1.526-.045 2.515 1.093 3.086 2.39.371.835.605 1.732.784 2.626.151.743.158 1.512.331 2.25q.019.083.041.159l6.151.084c0-.523-.318-1.223-.408-1.638z"/><path fill="url(#r)" d="M167.961 12.512a30 30 0 0 0-.523-2.05 22.6 22.6 0 0 0-1.403-3.647c-.965-1.933-2.322-3.786-4.239-4.86a7.3 7.3 0 0 0-3.975-.894c-5.309.304-8.634 5.625-9.652 12.81a36 36 0 0 0-.304 6.525c.08 1.964.326 3.92.765 5.837.529 2.33 1.32 6.569 4.647 5.947 1.964-.367 2.001-2.852 1.303-4.327-.601-1.274-1.357-2.264-1.666-3.674-.283-1.307-.33-2.66-.281-3.997.08-2.076.305-4.255.702-6.242.793-4.005 2.276-7.233 4.641-7.304 1.526-.045 2.515 1.093 3.086 2.39.371.835.605 1.732.784 2.626.151.743.158 1.512.331 2.25q.019.083.041.159l6.151.084c0-.523-.318-1.223-.408-1.638z"/><path fill="url(#s)" d="M167.961 12.512a30 30 0 0 0-.523-2.05 22.6 22.6 0 0 0-1.403-3.647c-.965-1.933-2.322-3.786-4.239-4.86a7.3 7.3 0 0 0-3.975-.894c-5.309.304-8.634 5.625-9.652 12.81a36 36 0 0 0-.304 6.525c.08 1.964.326 3.92.765 5.837.529 2.33 1.32 6.569 4.647 5.947 1.964-.367 2.001-2.852 1.303-4.327-.601-1.274-1.357-2.264-1.666-3.674-.283-1.307-.33-2.66-.281-3.997.08-2.076.305-4.255.702-6.242.793-4.005 2.276-7.233 4.641-7.304 1.526-.045 2.515 1.093 3.086 2.39.371.835.605 1.732.784 2.626.151.743.158 1.512.331 2.25q.019.083.041.159l6.151.084c0-.523-.318-1.223-.408-1.638z"/><path fill="url(#t)" d="M203.545 17.661c.613-.887 1.139-1.847 1.731-2.812.22-.36.442-.724.581-1.123.082-.24.136-.495.278-.707.379-.566 1.193-.585 1.869-.512 2.699.29 3.475 1.802 3.367 4.375-.186 4.46-1.934 8.748-5.119 11.859-2.543 2.482-5.687 3.813-9.249 3.774-.672-.009-1.362-.063-1.973-.337-1.229-.551-1.949-1.942-1.949-3.288 0-4.852 5.296-6.614 8.429-9.014.836-.642 1.475-1.396 2.041-2.212z"/><path fill="url(#u)" d="M211.009 13.151a30 30 0 0 0-.522-2.05 22.7 22.7 0 0 0-1.403-3.646c-.965-1.934-2.322-3.787-4.239-4.86a7.3 7.3 0 0 0-3.975-.895c-5.309.305-8.634 5.625-9.652 12.81a36 36 0 0 0-.304 6.526c.08 1.963.326 3.92.764 5.836.53 2.331 1.321 6.57 4.648 5.947 1.964-.367 2.001-2.851 1.303-4.327-.601-1.274-1.357-2.263-1.666-3.674-.283-1.307-.331-2.66-.281-3.996.08-2.076.305-4.256.702-6.243.793-4.005 2.275-7.232 4.641-7.304 1.526-.045 2.515 1.093 3.086 2.39.371.836.605 1.732.784 2.626.151.743.158 1.512.33 2.251q.019.082.042.158l6.151.084c0-.523-.318-1.223-.409-1.637z"/><path fill="url(#v)" d="M211.009 13.151a30 30 0 0 0-.522-2.05 22.7 22.7 0 0 0-1.403-3.646c-.965-1.934-2.322-3.787-4.239-4.86a7.3 7.3 0 0 0-3.975-.895c-5.309.305-8.634 5.625-9.652 12.81a36 36 0 0 0-.304 6.526c.08 1.963.326 3.92.764 5.836.53 2.331 1.321 6.57 4.648 5.947 1.964-.367 2.001-2.851 1.303-4.327-.601-1.274-1.357-2.263-1.666-3.674-.283-1.307-.331-2.66-.281-3.996.08-2.076.305-4.256.702-6.243.793-4.005 2.275-7.232 4.641-7.304 1.526-.045 2.515 1.093 3.086 2.39.371.836.605 1.732.784 2.626.151.743.158 1.512.33 2.251q.019.082.042.158l6.151.084c0-.523-.318-1.223-.409-1.637z"/><path fill="url(#w)" d="M211.009 13.151a30 30 0 0 0-.522-2.05 22.7 22.7 0 0 0-1.403-3.646c-.965-1.934-2.322-3.787-4.239-4.86a7.3 7.3 0 0 0-3.975-.895c-5.309.305-8.634 5.625-9.652 12.81a36 36 0 0 0-.304 6.526c.08 1.963.326 3.92.764 5.836.53 2.331 1.321 6.57 4.648 5.947 1.964-.367 2.001-2.851 1.303-4.327-.601-1.274-1.357-2.263-1.666-3.674-.283-1.307-.331-2.66-.281-3.996.08-2.076.305-4.256.702-6.243.793-4.005 2.275-7.232 4.641-7.304 1.526-.045 2.515 1.093 3.086 2.39.371.836.605 1.732.784 2.626.151.743.158 1.512.33 2.251q.019.082.042.158l6.151.084c0-.523-.318-1.223-.409-1.637z"/><path fill="url(#x)" d="M246.593 18.342c.613-.888 1.138-1.847 1.73-2.813.221-.36.443-.723.582-1.123.082-.24.136-.495.278-.706.378-.566 1.193-.586 1.869-.512 2.699.29 3.474 1.801 3.366 4.374-.185 4.46-1.933 8.749-5.118 11.86-2.543 2.481-5.687 3.812-9.25 3.773-.672-.006-1.361-.063-1.972-.337-1.23-.55-1.949-1.942-1.949-3.288 0-4.851 5.296-6.614 8.428-9.014.837-.642 1.476-1.396 2.042-2.212z"/><path fill="url(#y)" d="M254.057 13.832a29 29 0 0 0-.523-2.05 22.6 22.6 0 0 0-1.402-3.647c-.966-1.933-2.323-3.787-4.239-4.86a7.3 7.3 0 0 0-3.975-.895c-5.309.305-8.634 5.626-9.652 12.81-.292 2.046-.397 4.247-.305 6.526.08 1.964.327 3.92.765 5.837.53 2.33 1.32 6.569 4.648 5.947 1.964-.368 2.001-2.852 1.303-4.327-.601-1.275-1.357-2.264-1.666-3.675-.283-1.306-.331-2.659-.281-3.996.08-2.076.305-4.255.702-6.243.793-4.005 2.275-7.232 4.641-7.303 1.525-.046 2.515 1.093 3.085 2.389.372.836.605 1.732.785 2.627.151.743.157 1.512.33 2.25q.019.083.041.158l6.152.084c0-.522-.318-1.222-.409-1.637z"/><path fill="url(#z)" d="M254.057 13.832a29 29 0 0 0-.523-2.05 22.6 22.6 0 0 0-1.402-3.647c-.966-1.933-2.323-3.787-4.239-4.86a7.3 7.3 0 0 0-3.975-.895c-5.309.305-8.634 5.626-9.652 12.81-.292 2.046-.397 4.247-.305 6.526.08 1.964.327 3.92.765 5.837.53 2.33 1.32 6.569 4.648 5.947 1.964-.368 2.001-2.852 1.303-4.327-.601-1.275-1.357-2.264-1.666-3.675-.283-1.306-.331-2.659-.281-3.996.08-2.076.305-4.255.702-6.243.793-4.005 2.275-7.232 4.641-7.303 1.525-.046 2.515 1.093 3.085 2.389.372.836.605 1.732.785 2.627.151.743.157 1.512.33 2.25q.019.083.041.158l6.152.084c0-.522-.318-1.222-.409-1.637z"/><path fill="url(#A)" d="M254.057 13.832a29 29 0 0 0-.523-2.05 22.6 22.6 0 0 0-1.402-3.647c-.966-1.933-2.323-3.787-4.239-4.86a7.3 7.3 0 0 0-3.975-.895c-5.309.305-8.634 5.626-9.652 12.81-.292 2.046-.397 4.247-.305 6.526.08 1.964.327 3.92.765 5.837.53 2.33 1.32 6.569 4.648 5.947 1.964-.368 2.001-2.852 1.303-4.327-.601-1.275-1.357-2.264-1.666-3.675-.283-1.306-.331-2.659-.281-3.996.08-2.076.305-4.255.702-6.243.793-4.005 2.275-7.232 4.641-7.303 1.525-.046 2.515 1.093 3.085 2.389.372.836.605 1.732.785 2.627.151.743.157 1.512.33 2.25q.019.083.041.158l6.152.084c0-.522-.318-1.222-.409-1.637z"/><path fill="#5CB300" d="M90.586 69.522q-8.709-.279-17.419-.56c-2.772-.088-4.617-2.144-4.166-4.59a293 293 0 0 0 2.425-15.324c.32-2.434 2.798-4.33 5.578-4.242q8.735.28 17.467.555c2.78.089 4.805 2.13 4.477 4.565a296 296 0 0 1-2.474 15.328c-.46 2.445-3.116 4.357-5.888 4.266zm84.884 33.66a320 320 0 0 0 4.302-15.341c.617-2.437-1.163-4.48-3.933-4.57l-17.401-.556c-2.77-.09-5.475 1.81-6.085 4.246a317 317 0 0 1-4.252 15.337c-.743 2.446.856 4.504 3.619 4.593q8.676.28 17.352.559c2.761.089 5.646-1.823 6.398-4.27z"/><defs><radialGradient id="e" cx="0" cy="0" r="1" gradientTransform="matrix(390.361 0 0 390.279 -118.78 10.211)" gradientUnits="userSpaceOnUse"><stop offset=".41" stop-color="#F3F8FB"/><stop offset=".47" stop-color="#DCEAED"/><stop offset=".97" stop-color="#ECFCFF"/><stop offset=".98" stop-color="#BED8D9"/><stop offset="1" stop-color="#A6BBBE"/></radialGradient><radialGradient id="h" cx="0" cy="0" r="1" gradientTransform="rotate(8.678 -35.204 391.829)scale(24.2971 24.2922)" gradientUnits="userSpaceOnUse"><stop offset=".74" stop-color="#A6BBBE"/><stop offset=".85" stop-color="#A6BBBE"/><stop offset=".98" stop-color="#A6BBBE"/></radialGradient><radialGradient id="i" cx="0" cy="0" r="1" gradientTransform="matrix(44.2536 0 0 44.2443 102.058 17.534)" gradientUnits="userSpaceOnUse"><stop offset=".88" stop-color="#6945A9"/><stop offset=".94" stop-color="#CF8AFF"/><stop offset=".97" stop-color="#E8C7FC"/></radialGradient><radialGradient id="j" cx="0" cy="0" r="1" gradientTransform="matrix(13.8387 0 0 13.8358 77.891 13.151)" gradientUnits="userSpaceOnUse"><stop stop-color="#6125E5"/><stop offset=".92" stop-color="#CF8AFF"/></radialGradient><radialGradient id="k" cx="0" cy="0" r="1" gradientTransform="matrix(13.8387 0 0 13.8358 71.89 -.192)" gradientUnits="userSpaceOnUse"><stop stop-color="#A389F0"/><stop offset="1" stop-color="#6945A9"/></radialGradient><radialGradient id="l" cx="0" cy="0" r="1" gradientTransform="rotate(8.678 -17.067 675.79)scale(24.2971 24.2922)" gradientUnits="userSpaceOnUse"><stop offset=".74" stop-color="#A6BBBE"/><stop offset=".85" stop-color="#A6BBBE"/><stop offset=".98" stop-color="#A6BBBE"/></radialGradient><radialGradient id="m" cx="0" cy="0" r="1" gradientTransform="matrix(44.2536 0 0 44.2443 145.107 18.059)" gradientUnits="userSpaceOnUse"><stop offset=".88" stop-color="#6945A9"/><stop offset=".94" stop-color="#CF8AFF"/><stop offset=".97" stop-color="#E8C7FC"/></radialGradient><radialGradient id="n" cx="0" cy="0" r="1" gradientTransform="matrix(13.8387 0 0 13.8358 120.94 13.674)" gradientUnits="userSpaceOnUse"><stop stop-color="#6125E5"/><stop offset=".92" stop-color="#CF8AFF"/></radialGradient><radialGradient id="o" cx="0" cy="0" r="1" gradientTransform="matrix(13.8387 0 0 13.8358 114.938 .333)" gradientUnits="userSpaceOnUse"><stop stop-color="#A389F0"/><stop offset="1" stop-color="#6945A9"/></radialGradient><radialGradient id="p" cx="0" cy="0" r="1" gradientTransform="matrix(24.01893 3.66606 -3.66532 24.01409 144.823 10.824)" gradientUnits="userSpaceOnUse"><stop offset=".74" stop-color="#A6BBBE"/><stop offset=".85" stop-color="#A6BBBE"/><stop offset=".98" stop-color="#A6BBBE"/></radialGradient><radialGradient id="q" cx="0" cy="0" r="1" gradientTransform="matrix(44.2536 0 0 44.2443 188.154 18.584)" gradientUnits="userSpaceOnUse"><stop offset=".88" stop-color="#6945A9"/><stop offset=".94" stop-color="#CF8AFF"/><stop offset=".97" stop-color="#E8C7FC"/></radialGradient><radialGradient id="r" cx="0" cy="0" r="1" gradientTransform="matrix(13.8387 0 0 13.8358 163.987 14.199)" gradientUnits="userSpaceOnUse"><stop stop-color="#6125E5"/><stop offset=".92" stop-color="#CF8AFF"/></radialGradient><radialGradient id="s" cx="0" cy="0" r="1" gradientTransform="matrix(13.8387 0 0 13.8358 157.985 .858)" gradientUnits="userSpaceOnUse"><stop stop-color="#A389F0"/><stop offset="1" stop-color="#6945A9"/></radialGradient><radialGradient id="t" cx="0" cy="0" r="1" gradientTransform="rotate(8.678 18.463 1243.767)scale(24.2971 24.2922)" gradientUnits="userSpaceOnUse"><stop offset=".74" stop-color="#A6BBBE"/><stop offset=".85" stop-color="#A6BBBE"/><stop offset=".98" stop-color="#A6BBBE"/></radialGradient><radialGradient id="u" cx="0" cy="0" r="1" gradientTransform="matrix(44.2536 0 0 44.2443 231.202 19.223)" gradientUnits="userSpaceOnUse"><stop offset=".88" stop-color="#6945A9"/><stop offset=".94" stop-color="#CF8AFF"/><stop offset=".97" stop-color="#E8C7FC"/></radialGradient><radialGradient id="v" cx="0" cy="0" r="1" gradientTransform="matrix(13.8387 0 0 13.8358 207.036 14.84)" gradientUnits="userSpaceOnUse"><stop stop-color="#6125E5"/><stop offset=".92" stop-color="#CF8AFF"/></radialGradient><radialGradient id="w" cx="0" cy="0" r="1" gradientTransform="matrix(13.8387 0 0 13.8358 201.032 1.497)" gradientUnits="userSpaceOnUse"><stop stop-color="#A389F0"/><stop offset="1" stop-color="#6945A9"/></radialGradient><radialGradient id="x" cx="0" cy="0" r="1" gradientTransform="matrix(24.01893 3.66606 -3.66532 24.01409 230.928 12.123)" gradientUnits="userSpaceOnUse"><stop offset=".74" stop-color="#A6BBBE"/><stop offset=".85" stop-color="#A6BBBE"/><stop offset=".98" stop-color="#A6BBBE"/></radialGradient><radialGradient id="y" cx="0" cy="0" r="1" gradientTransform="matrix(44.2536 0 0 44.2443 274.248 19.904)" gradientUnits="userSpaceOnUse"><stop offset=".88" stop-color="#6945A9"/><stop offset=".94" stop-color="#CF8AFF"/><stop offset=".97" stop-color="#E8C7FC"/></radialGradient><radialGradient id="z" cx="0" cy="0" r="1" gradientTransform="matrix(13.8387 0 0 13.8358 250.082 15.518)" gradientUnits="userSpaceOnUse"><stop stop-color="#6125E5"/><stop offset=".92" stop-color="#CF8AFF"/></radialGradient><radialGradient id="A" cx="0" cy="0" r="1" gradientTransform="matrix(13.8387 0 0 13.8358 244.08 2.177)" gradientUnits="userSpaceOnUse"><stop stop-color="#A389F0"/><stop offset="1" stop-color="#6945A9"/></radialGradient><linearGradient id="a" x1="23.024" x2="314.029" y1="73.712" y2="132.361" gradientUnits="userSpaceOnUse"><stop stop-color="#83CF91"/><stop offset=".18" stop-color="#006F00"/><stop offset=".26" stop-color="#006F00"/><stop offset=".83" stop-color="#006F00"/><stop offset=".85" stop-color="#007103"/><stop offset=".87" stop-color="#00780C"/><stop offset=".88" stop-color="#00841D"/><stop offset=".9" stop-color="#009C3F"/><stop offset="1" stop-color="#7EB668"/></linearGradient><linearGradient id="b" x1="9.805" x2="296.691" y1="84.334" y2="140.883" gradientUnits="userSpaceOnUse"><stop stop-color="#83CF91"/><stop offset=".18" stop-color="#3DAE55"/><stop offset=".2" stop-color="#37A74C"/><stop offset=".28" stop-color="#239331"/><stop offset=".37" stop-color="#13831B"/><stop offset=".46" stop-color="#08770B"/><stop offset=".57" stop-color="#027102"/><stop offset=".74" stop-color="#006F00"/><stop offset=".78" stop-color="#007103"/><stop offset=".82" stop-color="#00780C"/><stop offset=".86" stop-color="#00841D"/><stop offset=".89" stop-color="#009434"/><stop offset=".9" stop-color="#009C3F"/><stop offset="1" stop-color="#7EB668"/></linearGradient><linearGradient id="c" x1="152.397" x2="141.314" y1="16.547" y2="187.502" gradientUnits="userSpaceOnUse"><stop stop-color="#F3F8FB"/><stop offset=".03" stop-color="#DCEAED"/><stop offset=".06" stop-color="#C4DFE0"/><stop offset=".84" stop-color="#C1DADB"/><stop offset=".9" stop-color="#E7F0F1"/><stop offset=".95" stop-color="#fff"/><stop offset="1" stop-color="#A6BBBE"/></linearGradient><linearGradient id="f" x1="137.924" x2="132.486" y1="12.656" y2="168.937" gradientUnits="userSpaceOnUse"><stop stop-color="#F3F8FB"/><stop offset=".03" stop-color="#DCEAED"/><stop offset=".06" stop-color="#C4DFE0"/><stop offset=".5" stop-color="#C1DADB"/><stop offset=".75" stop-color="#E7F0F1"/><stop offset=".94" stop-color="#fff"/><stop offset="1" stop-color="#A6BBBE"/></linearGradient><linearGradient id="g" x1="134.158" x2="131.253" y1="40.754" y2="146.616" gradientUnits="userSpaceOnUse"><stop offset=".05" stop-color="#BED8D9"/><stop offset=".09" stop-color="#B0C7CA"/><stop offset=".13" stop-color="#A8BEC0"/><stop offset=".18" stop-color="#A6BBBE"/><stop offset=".21" stop-color="#A2B7BA"/><stop offset=".25" stop-color="#99ACAF"/><stop offset=".28" stop-color="#88999C"/><stop offset=".3" stop-color="#728083"/><stop offset=".31" stop-color="#717F82"/><stop offset=".39" stop-color="#BED8D9"/><stop offset=".42" stop-color="#B2CACC"/><stop offset=".46" stop-color="#A9BEC1"/><stop offset=".51" stop-color="#A6BBBE"/><stop offset=".55" stop-color="#A3B8BB"/><stop offset=".58" stop-color="#9CB0B3"/><stop offset=".6" stop-color="#8FA1A4"/><stop offset=".62" stop-color="#7D8D90"/><stop offset=".63" stop-color="#717F82"/><stop offset=".72" stop-color="#BED8D9"/><stop offset=".74" stop-color="#B6CFD0"/><stop offset=".8" stop-color="#AAC0C2"/><stop offset=".84" stop-color="#A6BBBE"/><stop offset=".89" stop-color="#A4B8BB"/><stop offset=".91" stop-color="#9DB1B4"/><stop offset=".93" stop-color="#91A3A6"/><stop offset=".94" stop-color="#819194"/><stop offset=".95" stop-color="#717F82"/></linearGradient></defs></svg>