<svg width="329" height="214" viewBox="0 0 329 214" fill="none" xmlns="http://www.w3.org/2000/svg">
<path d="M322.153 192.005L74.3876 178.308C69.8784 178.07 65.6847 174.629 65.0192 170.62L51.6666 27.0451C50.9882 23.0056 54.0023 19.7092 58.4013 19.6833L289.742 19.6315C294.16 19.6531 298.421 23.2519 299.257 27.6672L328.866 184.585C329.689 188.968 326.684 192.288 322.155 192.005H322.153Z" fill="url(#paint0_linear_3001_5)"/>
<path d="M248.88 213.981L6.90535 198.538C2.49771 198.27 -0.241944 194.39 0.786505 189.871L48.1362 27.9913C49.1668 23.4355 53.5745 19.7179 57.9821 19.692L289.344 19.6337C293.752 19.6596 296.492 23.7164 295.463 28.6934L258.726 205.619C257.696 210.561 253.288 214.305 248.88 213.985V213.981Z" fill="url(#paint1_linear_3001_5)"/>
<path d="M236.543 192.176L19.8337 178.751C15.7048 178.517 13.138 175.145 14.1038 171.216L48.5114 30.4841C49.4751 26.5245 53.6062 23.293 57.7351 23.2692L274.444 23.2173C278.573 23.2389 281.14 26.7665 280.174 31.0933L245.764 184.903C244.8 189.199 240.669 192.455 236.54 192.176H236.543Z" fill="url(#paint2_linear_3001_5)"/>
<mask id="mask0_3001_5" style="mask-type:luminance" maskUnits="userSpaceOnUse" x="-1" y="12" width="272" height="163">
<path d="M226.881 174.178L6.83384 163.943C1.60085 163.578 -1.57092 157.998 0.794946 153.317C0.980758 152.948 1.11688 152.68 1.18602 152.557C12.5508 132.031 21.997 110.081 29.1464 87.7692C36.1554 65.8912 42.6805 43.1102 42.8641 19.9317C42.8965 15.8512 46.2606 12.5851 50.3398 12.6628L263.279 15.5704C267.535 15.6525 270.834 19.3226 270.45 23.563C268.44 45.6808 264.996 68.5374 259.888 90.1605C255.016 110.79 247.975 130.83 241.279 150.915C239.181 157.212 236.729 163.472 234.179 169.646C232.972 172.568 230.035 174.398 226.879 174.178H226.881Z" fill="white"/>
</mask>
<g mask="url(#mask0_3001_5)">
<path d="M226.881 174.178L6.83384 163.943C1.60085 163.578 -1.57092 157.998 0.794946 153.317C0.980758 152.948 1.11688 152.68 1.18602 152.557C12.5508 132.031 21.997 110.081 29.1464 87.7692C36.1554 65.8912 42.6805 43.1102 42.8641 19.9317C42.8965 15.8512 46.2606 12.5851 50.3398 12.6628L263.279 15.5704C267.535 15.6525 270.834 19.3226 270.45 23.563C268.44 45.6808 264.996 68.5374 259.888 90.1605C255.016 110.79 247.975 130.83 241.279 150.915C239.181 157.212 236.729 163.472 234.179 169.646C232.972 172.568 230.035 174.398 226.879 174.178H226.881Z" fill="url(#paint3_radial_3001_5)"/>
<path d="M226.881 174.178L6.83384 163.943C1.60085 163.578 -1.57092 157.998 0.794946 153.317C0.980758 152.948 1.11688 152.68 1.18602 152.557C12.5508 132.031 21.997 110.081 29.1464 87.7692C36.1554 65.8912 42.6805 43.1102 42.8641 19.9317C42.8965 15.8512 46.2606 12.5851 50.3398 12.6628L263.279 15.5704C267.535 15.6525 270.834 19.3226 270.45 23.563C268.44 45.6808 264.996 68.5374 259.888 90.1605C255.016 110.79 247.975 130.83 241.279 150.915C239.181 157.212 236.729 163.472 234.179 169.646C232.972 172.568 230.035 174.398 226.879 174.178H226.881Z" fill="url(#paint4_linear_3001_5)"/>
</g>
<path d="M90.5852 69.5224C84.7796 69.3366 78.9719 69.1487 73.1664 68.9629C70.3943 68.8744 68.5491 66.8179 69.0007 64.3726C69.9492 59.253 70.7573 54.1443 71.4249 49.0485C71.7447 46.614 74.2229 44.7174 77.0036 44.8059C82.8264 44.9917 88.6493 45.1775 94.4699 45.3611C97.2506 45.4497 99.2751 47.491 98.9467 49.9255C98.2618 55.0235 97.4365 60.1344 96.4728 65.2539C96.0126 67.6992 93.3572 69.611 90.5852 69.5203V69.5224ZM140.694 66.6753C141.684 61.5536 142.533 56.4405 143.243 51.3404C143.583 48.9059 141.569 46.8624 138.79 46.7738C132.97 46.5881 127.147 46.4023 121.326 46.2165C118.546 46.1279 116.059 48.0267 115.726 50.4612C115.03 55.5592 114.196 60.6723 113.224 65.7918C112.759 68.2371 114.594 70.2936 117.368 70.3822C123.174 70.5679 128.979 70.7559 134.785 70.9416C137.557 71.0302 140.223 69.1185 140.694 66.6732V66.6753ZM184.906 68.0946C185.922 62.9707 186.797 57.8576 187.534 52.7531C187.886 50.3165 185.883 48.273 183.105 48.1844C177.284 47.9986 171.463 47.8129 165.643 47.6271C162.862 47.5385 160.366 49.4373 160.021 51.874C159.301 56.9762 158.441 62.0893 157.441 67.2111C156.963 69.6563 158.789 71.715 161.561 71.8035C167.367 71.9893 173.17 72.1772 178.976 72.363C181.746 72.4516 184.423 70.5398 184.906 68.0924V68.0946ZM229.113 69.5159C230.154 64.392 231.055 59.2746 231.818 54.1702C232.183 51.7335 230.189 49.6879 227.41 49.5993C221.591 49.4135 215.771 49.2278 209.95 49.042C207.169 48.9534 204.665 50.8544 204.307 53.291C203.561 58.3955 202.675 63.5107 201.649 68.6346C201.161 71.0799 202.973 73.1385 205.746 73.2271C211.549 73.4128 217.352 73.6008 223.156 73.7866C225.926 73.8751 228.611 71.9634 229.108 69.5159H229.113ZM80.9921 104.61C75.206 104.424 69.4199 104.236 63.6338 104.05C60.8703 103.962 59.2499 101.905 59.9672 99.46C61.4731 94.3404 62.8387 89.2317 64.0637 84.1359C64.6492 81.7014 67.3327 79.8047 70.1048 79.8933C75.9082 80.0791 81.7094 80.2649 87.5106 80.4485C90.2805 80.537 92.0825 82.5784 91.4883 85.0129C90.2481 90.1108 88.8653 95.2218 87.3421 100.341C86.6161 102.787 83.7512 104.698 80.9878 104.608L80.9921 104.61ZM131.412 101.763C132.961 96.641 134.368 91.5279 135.636 86.4278C136.241 83.9933 134.45 81.9498 131.68 81.8612C125.879 81.6754 120.077 81.4897 114.276 81.3039C111.504 81.2153 108.812 83.1141 108.214 85.5486C106.963 90.6466 105.571 95.7597 104.039 100.879C103.309 103.325 104.919 105.381 107.682 105.47C113.468 105.655 119.252 105.843 125.038 106.029C127.799 106.118 130.675 104.206 131.414 101.761L131.412 101.763ZM175.469 103.182C177.044 98.0581 178.477 92.945 179.771 87.8405C180.389 85.4039 178.608 83.3604 175.838 83.2718C170.039 83.086 164.238 82.9002 158.437 82.7145C155.667 82.6259 152.962 84.5247 152.353 86.9613C151.076 92.0636 149.658 97.1767 148.101 102.298C147.357 104.744 148.956 106.802 151.72 106.891C157.504 107.077 163.287 107.265 169.071 107.45C171.833 107.539 174.717 105.627 175.469 103.18V103.182ZM219.522 104.603C221.123 99.4794 222.581 94.362 223.901 89.2576C224.532 86.8209 222.762 84.7753 219.993 84.6867C214.194 84.5009 208.394 84.3151 202.595 84.1294C199.825 84.0408 197.112 85.9417 196.49 88.3784C195.187 93.4828 193.743 98.5981 192.157 103.722C191.401 106.167 192.991 108.226 195.753 108.314C201.537 108.5 207.318 108.688 213.102 108.874C215.864 108.963 218.757 107.051 219.522 104.603ZM68.197 139.133C62.4303 138.948 56.6636 138.76 50.897 138.574C48.1422 138.485 46.7378 136.429 47.7101 133.984C49.7519 128.864 51.651 123.755 53.4098 118.659C54.2502 116.225 57.1325 114.328 59.8937 114.417C65.6777 114.603 71.4595 114.788 77.2413 114.972C80.0025 115.061 81.5906 117.102 80.7436 119.536C78.9697 124.634 77.0533 129.745 74.9964 134.865C74.0133 137.31 70.9496 139.222 68.197 139.131V139.133ZM118.915 136.286C120.998 131.165 122.94 126.051 124.742 120.951C125.602 118.517 124.025 116.473 121.264 116.385C115.482 116.199 109.7 116.013 103.918 115.827C101.157 115.739 98.264 117.638 97.4127 120.072C95.628 125.17 93.7029 130.283 91.6352 135.403C90.65 137.848 92.0436 139.905 94.7984 139.993C100.565 140.179 106.33 140.367 112.096 140.553C114.849 140.641 117.923 138.729 118.917 136.284L118.915 136.286ZM162.823 137.706C164.932 132.582 166.902 127.469 168.728 122.364C169.601 119.927 168.034 117.884 165.273 117.795C159.491 117.61 153.712 117.424 147.93 117.238C145.169 117.149 142.267 119.048 141.403 121.485C139.592 126.587 137.641 131.7 135.547 136.822C134.549 139.267 135.934 141.326 138.687 141.415C144.451 141.6 150.216 141.788 155.98 141.974C158.733 142.063 161.816 140.151 162.823 137.703V137.706ZM206.726 139.127C208.863 134.003 210.858 128.886 212.709 123.781C213.595 121.345 212.037 119.299 209.278 119.21C203.499 119.025 197.719 118.839 191.939 118.653C189.178 118.564 186.266 120.465 185.388 122.902C183.552 128.006 181.573 133.122 179.453 138.246C178.442 140.691 179.816 142.749 182.569 142.838C188.333 143.024 194.096 143.212 199.86 143.398C202.611 143.486 205.704 141.574 206.724 139.127H206.726Z" fill="url(#paint5_linear_3001_5)"/>
<path d="M74.4023 15.9722C75.0159 15.0843 75.5409 14.1252 76.1329 13.1596C76.3533 12.7989 76.5759 12.436 76.7141 12.0364C76.7963 11.7966 76.8503 11.5417 76.9929 11.33C77.371 10.764 78.1855 10.7446 78.8618 10.818C81.5604 11.1075 82.336 12.6196 82.228 15.1923C82.0422 19.6531 80.2943 23.941 77.1095 27.0516C74.5665 29.5336 71.4228 30.8643 67.86 30.8254C67.188 30.8189 66.4988 30.7627 65.8873 30.4884C64.658 29.9376 63.9385 28.5464 63.9385 27.2006C63.9385 22.3489 69.2341 20.5862 72.367 18.1863C73.2032 17.5448 73.8427 16.7909 74.4088 15.9743L74.4023 15.9722Z" fill="url(#paint6_radial_3001_5)"/>
<path d="M81.8668 11.4618C81.7156 10.7727 81.5449 10.0879 81.344 9.41178C80.9767 8.16321 80.5208 6.93624 79.9417 5.76544C78.9759 3.8321 77.6191 1.97869 75.7026 0.905091C74.4905 0.228962 73.1099 -0.0669788 71.7271 0.0107868C66.4185 0.315369 63.0933 5.63583 62.0757 12.8205C61.784 14.8662 61.6781 17.0674 61.771 19.3463C61.851 21.3099 62.0973 23.267 62.5359 25.1831C63.0652 27.5139 63.856 31.7521 67.1833 31.13C69.1473 30.7627 69.1841 28.2786 68.4862 26.8032C67.8855 25.5287 67.1293 24.5393 66.8204 23.1288C66.5373 21.8219 66.4898 20.4696 66.5395 19.1325C66.6194 17.0566 66.8441 14.877 67.2417 12.8896C68.0346 8.8847 69.5168 5.65743 71.8827 5.58614C73.4081 5.54078 74.3976 6.67918 74.968 7.97528C75.3396 8.81126 75.573 9.70772 75.7523 10.602C75.9035 11.3451 75.91 12.1141 76.0829 12.8529C76.0958 12.9069 76.1088 12.9609 76.1239 13.0106L82.2752 13.0948C82.2752 12.5721 81.9576 11.8722 81.8668 11.4574V11.4618Z" fill="url(#paint7_radial_3001_5)"/>
<path d="M81.8668 11.4618C81.7156 10.7727 81.5449 10.0879 81.344 9.41178C80.9767 8.16321 80.5208 6.93624 79.9417 5.76544C78.9759 3.8321 77.6191 1.97869 75.7026 0.905091C74.4905 0.228962 73.1099 -0.0669788 71.7271 0.0107868C66.4185 0.315369 63.0933 5.63583 62.0757 12.8205C61.784 14.8662 61.6781 17.0674 61.771 19.3463C61.851 21.3099 62.0973 23.267 62.5359 25.1831C63.0652 27.5139 63.856 31.7521 67.1833 31.13C69.1473 30.7627 69.1841 28.2786 68.4862 26.8032C67.8855 25.5287 67.1293 24.5393 66.8204 23.1288C66.5373 21.8219 66.4898 20.4696 66.5395 19.1325C66.6194 17.0566 66.8441 14.877 67.2417 12.8896C68.0346 8.8847 69.5168 5.65743 71.8827 5.58614C73.4081 5.54078 74.3976 6.67918 74.968 7.97528C75.3396 8.81126 75.573 9.70772 75.7523 10.602C75.9035 11.3451 75.91 12.1141 76.0829 12.8529C76.0958 12.9069 76.1088 12.9609 76.1239 13.0106L82.2752 13.0948C82.2752 12.5721 81.9576 11.8722 81.8668 11.4574V11.4618Z" fill="url(#paint8_radial_3001_5)"/>
<path d="M81.8668 11.4618C81.7156 10.7727 81.5449 10.0879 81.344 9.41178C80.9767 8.16321 80.5208 6.93624 79.9417 5.76544C78.9759 3.8321 77.6191 1.97869 75.7026 0.905091C74.4905 0.228962 73.1099 -0.0669788 71.7271 0.0107868C66.4185 0.315369 63.0933 5.63583 62.0757 12.8205C61.784 14.8662 61.6781 17.0674 61.771 19.3463C61.851 21.3099 62.0973 23.267 62.5359 25.1831C63.0652 27.5139 63.856 31.7521 67.1833 31.13C69.1473 30.7627 69.1841 28.2786 68.4862 26.8032C67.8855 25.5287 67.1293 24.5393 66.8204 23.1288C66.5373 21.8219 66.4898 20.4696 66.5395 19.1325C66.6194 17.0566 66.8441 14.877 67.2417 12.8896C68.0346 8.8847 69.5168 5.65743 71.8827 5.58614C73.4081 5.54078 74.3976 6.67918 74.968 7.97528C75.3396 8.81126 75.573 9.70772 75.7523 10.602C75.9035 11.3451 75.91 12.1141 76.0829 12.8529C76.0958 12.9069 76.1088 12.9609 76.1239 13.0106L82.2752 13.0948C82.2752 12.5721 81.9576 11.8722 81.8668 11.4574V11.4618Z" fill="url(#paint9_radial_3001_5)"/>
<path d="M117.451 16.4971C118.065 15.6093 118.59 14.6502 119.182 13.6846C119.402 13.3238 119.625 12.9609 119.763 12.5613C119.845 12.3215 119.899 12.0666 120.042 11.8549C120.42 11.289 121.234 11.2695 121.911 11.343C124.609 11.6324 125.385 13.1445 125.277 15.7173C125.091 20.178 123.343 24.4659 120.158 27.5765C117.615 30.0585 114.472 31.3892 110.909 31.3503C110.237 31.3438 109.548 31.2877 108.936 31.0133C107.707 30.4625 106.987 29.0714 106.987 27.7256C106.987 22.8739 112.283 21.1112 115.416 18.7113C116.252 18.0697 116.892 17.3158 117.458 16.4993L117.451 16.4971Z" fill="url(#paint10_radial_3001_5)"/>
<path d="M124.914 11.9867C124.762 11.2976 124.592 10.6128 124.391 9.93671C124.024 8.68814 123.568 7.46117 122.989 6.29037C122.023 4.35703 120.666 2.50362 118.749 1.43002C117.537 0.753895 116.157 0.457954 114.774 0.53572C109.465 0.840301 106.14 6.16076 105.123 13.3454C104.831 15.3911 104.725 17.5923 104.818 19.8713C104.898 21.8348 105.144 23.7919 105.583 25.708C106.112 28.0388 106.903 32.277 110.23 31.6549C112.194 31.2877 112.231 28.8035 111.533 27.3281C110.932 26.0536 110.176 25.0643 109.867 23.6537C109.584 22.3468 109.537 20.9945 109.586 19.6574C109.666 17.5815 109.891 15.4019 110.289 13.4146C111.081 9.40963 112.564 6.18236 114.93 6.11108C116.455 6.06571 117.444 7.20412 118.015 8.50021C118.387 9.33619 118.62 10.2327 118.799 11.127C118.95 11.87 118.957 12.6391 119.13 13.3778C119.143 13.4318 119.156 13.4858 119.171 13.5355L125.322 13.6198C125.322 13.097 125.004 12.3971 124.914 11.9824V11.9867Z" fill="url(#paint11_radial_3001_5)"/>
<path d="M124.914 11.9867C124.762 11.2976 124.592 10.6128 124.391 9.93671C124.024 8.68814 123.568 7.46117 122.989 6.29037C122.023 4.35703 120.666 2.50362 118.749 1.43002C117.537 0.753895 116.157 0.457954 114.774 0.53572C109.465 0.840301 106.14 6.16076 105.123 13.3454C104.831 15.3911 104.725 17.5923 104.818 19.8713C104.898 21.8348 105.144 23.7919 105.583 25.708C106.112 28.0388 106.903 32.277 110.23 31.6549C112.194 31.2877 112.231 28.8035 111.533 27.3281C110.932 26.0536 110.176 25.0643 109.867 23.6537C109.584 22.3468 109.537 20.9945 109.586 19.6574C109.666 17.5815 109.891 15.4019 110.289 13.4146C111.081 9.40963 112.564 6.18236 114.93 6.11108C116.455 6.06571 117.444 7.20412 118.015 8.50021C118.387 9.33619 118.62 10.2327 118.799 11.127C118.95 11.87 118.957 12.6391 119.13 13.3778C119.143 13.4318 119.156 13.4858 119.171 13.5355L125.322 13.6198C125.322 13.097 125.004 12.3971 124.914 11.9824V11.9867Z" fill="url(#paint12_radial_3001_5)"/>
<path d="M124.914 11.9867C124.762 11.2976 124.592 10.6128 124.391 9.93671C124.024 8.68814 123.568 7.46117 122.989 6.29037C122.023 4.35703 120.666 2.50362 118.749 1.43002C117.537 0.753895 116.157 0.457954 114.774 0.53572C109.465 0.840301 106.14 6.16076 105.123 13.3454C104.831 15.3911 104.725 17.5923 104.818 19.8713C104.898 21.8348 105.144 23.7919 105.583 25.708C106.112 28.0388 106.903 32.277 110.23 31.6549C112.194 31.2877 112.231 28.8035 111.533 27.3281C110.932 26.0536 110.176 25.0643 109.867 23.6537C109.584 22.3468 109.537 20.9945 109.586 19.6574C109.666 17.5815 109.891 15.4019 110.289 13.4146C111.081 9.40963 112.564 6.18236 114.93 6.11108C116.455 6.06571 117.444 7.20412 118.015 8.50021C118.387 9.33619 118.62 10.2327 118.799 11.127C118.95 11.87 118.957 12.6391 119.13 13.3778C119.143 13.4318 119.156 13.4858 119.171 13.5355L125.322 13.6198C125.322 13.097 125.004 12.3971 124.914 11.9824V11.9867Z" fill="url(#paint13_radial_3001_5)"/>
<path d="M160.498 17.022C161.112 16.1342 161.637 15.1751 162.229 14.2095C162.449 13.8488 162.672 13.4859 162.81 13.0862C162.892 12.8464 162.946 12.5915 163.089 12.3799C163.467 11.8139 164.281 11.7945 164.957 11.8679C167.656 12.1574 168.432 13.6695 168.324 16.2422C168.138 20.7008 166.39 24.9908 163.205 28.1015C160.662 30.5835 157.519 31.9141 153.956 31.8752C153.284 31.8688 152.595 31.8126 151.983 31.5383C150.754 30.9874 150.034 29.5963 150.034 28.2505C150.034 23.3988 155.33 21.6361 158.463 19.2362C159.299 18.5946 159.938 17.8407 160.504 17.0242L160.498 17.022Z" fill="url(#paint14_radial_3001_5)"/>
<path d="M167.961 12.5116C167.809 11.8225 167.639 11.1378 167.438 10.4616C167.07 9.21307 166.615 7.98611 166.035 6.8153C165.07 4.88197 163.713 3.02855 161.796 1.95496C160.584 1.27883 159.204 0.982887 157.821 1.06065C152.512 1.36523 149.187 6.68569 148.169 13.8704C147.878 15.916 147.772 18.1172 147.865 20.3962C147.945 22.3598 148.191 24.3169 148.63 26.2329C149.159 28.5637 149.95 32.802 153.277 32.1798C155.241 31.8126 155.278 29.3284 154.58 27.853C153.979 26.5786 153.223 25.5892 152.914 24.1786C152.631 22.8717 152.584 21.5195 152.633 20.1823C152.713 18.1064 152.938 15.9268 153.335 13.9395C154.128 9.93457 155.611 6.7073 157.976 6.63601C159.502 6.59065 160.491 7.72905 161.062 9.02514C161.433 9.86112 161.667 10.7576 161.846 11.6519C161.997 12.395 162.004 13.164 162.177 13.9028C162.19 13.9568 162.203 14.0108 162.218 14.0605L168.369 14.1447C168.369 13.622 168.051 12.9221 167.961 12.5073V12.5116Z" fill="url(#paint15_radial_3001_5)"/>
<path d="M167.961 12.5116C167.809 11.8225 167.639 11.1378 167.438 10.4616C167.07 9.21307 166.615 7.98611 166.035 6.8153C165.07 4.88197 163.713 3.02855 161.796 1.95496C160.584 1.27883 159.204 0.982887 157.821 1.06065C152.512 1.36523 149.187 6.68569 148.169 13.8704C147.878 15.916 147.772 18.1172 147.865 20.3962C147.945 22.3598 148.191 24.3169 148.63 26.2329C149.159 28.5637 149.95 32.802 153.277 32.1798C155.241 31.8126 155.278 29.3284 154.58 27.853C153.979 26.5786 153.223 25.5892 152.914 24.1786C152.631 22.8717 152.584 21.5195 152.633 20.1823C152.713 18.1064 152.938 15.9268 153.335 13.9395C154.128 9.93457 155.611 6.7073 157.976 6.63601C159.502 6.59065 160.491 7.72905 161.062 9.02514C161.433 9.86112 161.667 10.7576 161.846 11.6519C161.997 12.395 162.004 13.164 162.177 13.9028C162.19 13.9568 162.203 14.0108 162.218 14.0605L168.369 14.1447C168.369 13.622 168.051 12.9221 167.961 12.5073V12.5116Z" fill="url(#paint16_radial_3001_5)"/>
<path d="M167.961 12.5116C167.809 11.8225 167.639 11.1378 167.438 10.4616C167.07 9.21307 166.615 7.98611 166.035 6.8153C165.07 4.88197 163.713 3.02855 161.796 1.95496C160.584 1.27883 159.204 0.982887 157.821 1.06065C152.512 1.36523 149.187 6.68569 148.169 13.8704C147.878 15.916 147.772 18.1172 147.865 20.3962C147.945 22.3598 148.191 24.3169 148.63 26.2329C149.159 28.5637 149.95 32.802 153.277 32.1798C155.241 31.8126 155.278 29.3284 154.58 27.853C153.979 26.5786 153.223 25.5892 152.914 24.1786C152.631 22.8717 152.584 21.5195 152.633 20.1823C152.713 18.1064 152.938 15.9268 153.335 13.9395C154.128 9.93457 155.611 6.7073 157.976 6.63601C159.502 6.59065 160.491 7.72905 161.062 9.02514C161.433 9.86112 161.667 10.7576 161.846 11.6519C161.997 12.395 162.004 13.164 162.177 13.9028C162.19 13.9568 162.203 14.0108 162.218 14.0605L168.369 14.1447C168.369 13.622 168.051 12.9221 167.961 12.5073V12.5116Z" fill="url(#paint17_radial_3001_5)"/>
<path d="M203.545 17.6614C204.158 16.7736 204.684 15.8145 205.276 14.8489C205.496 14.4882 205.718 14.1253 205.857 13.7256C205.939 13.4859 205.993 13.231 206.135 13.0193C206.514 12.4533 207.328 12.4339 208.004 12.5073C210.703 12.7968 211.479 14.3089 211.371 16.8816C211.185 21.3423 209.437 25.6302 206.252 28.7409C203.709 31.2229 200.565 32.5535 197.003 32.5147C196.331 32.506 195.641 32.452 195.03 32.1777C193.801 31.6268 193.081 30.2357 193.081 28.8899C193.081 24.0382 198.377 22.2755 201.51 19.8756C202.346 19.234 202.985 18.4801 203.551 17.6636L203.545 17.6614Z" fill="url(#paint18_radial_3001_5)"/>
<path d="M211.009 13.151C210.858 12.4619 210.687 11.7772 210.487 11.101C210.119 9.85248 209.663 8.62551 209.084 7.45471C208.119 5.52137 206.762 3.66796 204.845 2.59436C203.633 1.91823 202.252 1.62229 200.87 1.70006C195.561 2.00464 192.236 7.3251 191.218 14.5098C190.927 16.5554 190.821 18.7566 190.914 21.0356C190.994 22.9992 191.24 24.9563 191.678 26.8723C192.208 29.2031 192.999 33.4414 196.326 32.8192C198.29 32.452 198.327 29.9678 197.629 28.4924C197.028 27.218 196.272 26.2286 195.963 24.818C195.68 23.5111 195.632 22.1589 195.682 20.8217C195.762 18.7458 195.987 16.5662 196.384 14.5789C197.177 10.574 198.659 7.3467 201.025 7.27541C202.551 7.23005 203.54 8.36845 204.111 9.66455C204.482 10.5005 204.716 11.397 204.895 12.2913C205.046 13.0344 205.053 13.8034 205.225 14.5422C205.238 14.5962 205.251 14.6502 205.267 14.6999L211.418 14.7841C211.418 14.2614 211.1 13.5615 211.009 13.1467V13.151Z" fill="url(#paint19_radial_3001_5)"/>
<path d="M211.009 13.151C210.858 12.4619 210.687 11.7772 210.487 11.101C210.119 9.85248 209.663 8.62551 209.084 7.45471C208.119 5.52137 206.762 3.66796 204.845 2.59436C203.633 1.91823 202.252 1.62229 200.87 1.70006C195.561 2.00464 192.236 7.3251 191.218 14.5098C190.927 16.5554 190.821 18.7566 190.914 21.0356C190.994 22.9992 191.24 24.9563 191.678 26.8723C192.208 29.2031 192.999 33.4414 196.326 32.8192C198.29 32.452 198.327 29.9678 197.629 28.4924C197.028 27.218 196.272 26.2286 195.963 24.818C195.68 23.5111 195.632 22.1589 195.682 20.8217C195.762 18.7458 195.987 16.5662 196.384 14.5789C197.177 10.574 198.659 7.3467 201.025 7.27541C202.551 7.23005 203.54 8.36845 204.111 9.66455C204.482 10.5005 204.716 11.397 204.895 12.2913C205.046 13.0344 205.053 13.8034 205.225 14.5422C205.238 14.5962 205.251 14.6502 205.267 14.6999L211.418 14.7841C211.418 14.2614 211.1 13.5615 211.009 13.1467V13.151Z" fill="url(#paint20_radial_3001_5)"/>
<path d="M211.009 13.151C210.858 12.4619 210.687 11.7772 210.487 11.101C210.119 9.85248 209.663 8.62551 209.084 7.45471C208.119 5.52137 206.762 3.66796 204.845 2.59436C203.633 1.91823 202.252 1.62229 200.87 1.70006C195.561 2.00464 192.236 7.3251 191.218 14.5098C190.927 16.5554 190.821 18.7566 190.914 21.0356C190.994 22.9992 191.24 24.9563 191.678 26.8723C192.208 29.2031 192.999 33.4414 196.326 32.8192C198.29 32.452 198.327 29.9678 197.629 28.4924C197.028 27.218 196.272 26.2286 195.963 24.818C195.68 23.5111 195.632 22.1589 195.682 20.8217C195.762 18.7458 195.987 16.5662 196.384 14.5789C197.177 10.574 198.659 7.3467 201.025 7.27541C202.551 7.23005 203.54 8.36845 204.111 9.66455C204.482 10.5005 204.716 11.397 204.895 12.2913C205.046 13.0344 205.053 13.8034 205.225 14.5422C205.238 14.5962 205.251 14.6502 205.267 14.6999L211.418 14.7841C211.418 14.2614 211.1 13.5615 211.009 13.1467V13.151Z" fill="url(#paint21_radial_3001_5)"/>
<path d="M246.593 18.3419C247.206 17.454 247.731 16.4949 248.323 15.5293C248.544 15.1686 248.766 14.8057 248.905 14.406C248.987 14.1663 249.041 13.9114 249.183 13.6997C249.561 13.1337 250.376 13.1143 251.052 13.1877C253.751 13.4772 254.526 14.9893 254.418 17.562C254.233 22.0228 252.485 26.3107 249.3 29.4213C246.757 31.9033 243.613 33.234 240.05 33.1951C239.378 33.1886 238.689 33.1324 238.078 32.8581C236.848 32.3072 236.129 30.9161 236.129 29.5703C236.129 24.7186 241.425 22.9559 244.557 20.556C245.394 19.9144 246.033 19.1605 246.599 18.344L246.593 18.3419Z" fill="url(#paint22_radial_3001_5)"/>
<path d="M254.057 13.8315C253.906 13.1424 253.735 12.4576 253.534 11.7815C253.167 10.5329 252.711 9.30593 252.132 8.13513C251.166 6.20179 249.809 4.34838 247.893 3.27478C246.681 2.59865 245.3 2.30271 243.918 2.38048C238.609 2.68506 235.284 8.00552 234.266 15.1902C233.974 17.2359 233.869 19.4371 233.961 21.716C234.041 23.6796 234.288 25.6367 234.726 27.5528C235.256 29.8836 236.046 34.1218 239.374 33.4997C241.338 33.1324 241.375 30.6483 240.677 29.1729C240.076 27.8984 239.32 26.909 239.011 25.4984C238.728 24.1916 238.68 22.8393 238.73 21.5022C238.81 19.4263 239.035 17.2467 239.432 15.2593C240.225 11.2544 241.707 8.02712 244.073 7.95583C245.598 7.91047 246.588 9.04887 247.158 10.345C247.53 11.1809 247.763 12.0774 247.943 12.9717C248.094 13.7148 248.1 14.4838 248.273 15.2226C248.286 15.2766 248.299 15.3306 248.314 15.3803L254.466 15.4645C254.466 14.9418 254.148 14.2419 254.057 13.8271V13.8315Z" fill="url(#paint23_radial_3001_5)"/>
<path d="M254.057 13.8315C253.906 13.1424 253.735 12.4576 253.534 11.7815C253.167 10.5329 252.711 9.30593 252.132 8.13513C251.166 6.20179 249.809 4.34838 247.893 3.27478C246.681 2.59865 245.3 2.30271 243.918 2.38048C238.609 2.68506 235.284 8.00552 234.266 15.1902C233.974 17.2359 233.869 19.4371 233.961 21.716C234.041 23.6796 234.288 25.6367 234.726 27.5528C235.256 29.8836 236.046 34.1218 239.374 33.4997C241.338 33.1324 241.375 30.6483 240.677 29.1729C240.076 27.8984 239.32 26.909 239.011 25.4984C238.728 24.1916 238.68 22.8393 238.73 21.5022C238.81 19.4263 239.035 17.2467 239.432 15.2593C240.225 11.2544 241.707 8.02712 244.073 7.95583C245.598 7.91047 246.588 9.04887 247.158 10.345C247.53 11.1809 247.763 12.0774 247.943 12.9717C248.094 13.7148 248.1 14.4838 248.273 15.2226C248.286 15.2766 248.299 15.3306 248.314 15.3803L254.466 15.4645C254.466 14.9418 254.148 14.2419 254.057 13.8271V13.8315Z" fill="url(#paint24_radial_3001_5)"/>
<path d="M254.057 13.8315C253.906 13.1424 253.735 12.4576 253.534 11.7815C253.167 10.5329 252.711 9.30593 252.132 8.13513C251.166 6.20179 249.809 4.34838 247.893 3.27478C246.681 2.59865 245.3 2.30271 243.918 2.38048C238.609 2.68506 235.284 8.00552 234.266 15.1902C233.974 17.2359 233.869 19.4371 233.961 21.716C234.041 23.6796 234.288 25.6367 234.726 27.5528C235.256 29.8836 236.046 34.1218 239.374 33.4997C241.338 33.1324 241.375 30.6483 240.677 29.1729C240.076 27.8984 239.32 26.909 239.011 25.4984C238.728 24.1916 238.68 22.8393 238.73 21.5022C238.81 19.4263 239.035 17.2467 239.432 15.2593C240.225 11.2544 241.707 8.02712 244.073 7.95583C245.598 7.91047 246.588 9.04887 247.158 10.345C247.53 11.1809 247.763 12.0774 247.943 12.9717C248.094 13.7148 248.1 14.4838 248.273 15.2226C248.286 15.2766 248.299 15.3306 248.314 15.3803L254.466 15.4645C254.466 14.9418 254.148 14.2419 254.057 13.8271V13.8315Z" fill="url(#paint25_radial_3001_5)"/>
<path d="M90.586 69.5224C84.7805 69.3366 78.9728 69.1487 73.1672 68.9629C70.3951 68.8744 68.55 66.8179 69.0015 64.3726C69.9501 59.253 70.7581 54.1443 71.4257 49.0485C71.7455 46.614 74.2237 44.7174 77.0044 44.8059C82.8273 44.9917 88.6501 45.1775 94.4708 45.3611C97.2515 45.4497 99.276 47.491 98.9476 49.9255C98.2627 55.0235 97.4373 60.1344 96.4737 65.2539C96.0135 67.6992 93.3581 69.611 90.586 69.5203V69.5224ZM175.47 103.182C177.045 98.0581 178.477 92.945 179.772 87.8405C180.389 85.4039 178.609 83.3604 175.839 83.2718C170.04 83.086 164.239 82.9002 158.438 82.7145C155.668 82.6259 152.963 84.5247 152.353 86.9613C151.077 92.0636 149.659 97.1767 148.101 102.298C147.358 104.744 148.957 106.802 151.72 106.891C157.504 107.077 163.288 107.265 169.072 107.45C171.833 107.539 174.718 105.627 175.47 103.18V103.182Z" fill="#5CB300"/>
<defs>
<linearGradient id="paint0_linear_3001_5" x1="23.0239" y1="73.7124" x2="314.029" y2="132.361" gradientUnits="userSpaceOnUse">
<stop stop-color="#83CF91"/>
<stop offset="0.18" stop-color="#006F00"/>
<stop offset="0.26" stop-color="#006F00"/>
<stop offset="0.83" stop-color="#006F00"/>
<stop offset="0.85" stop-color="#007103"/>
<stop offset="0.87" stop-color="#00780C"/>
<stop offset="0.88" stop-color="#00841D"/>
<stop offset="0.9" stop-color="#009C3F"/>
<stop offset="1" stop-color="#7EB668"/>
</linearGradient>
<linearGradient id="paint1_linear_3001_5" x1="9.80531" y1="84.334" x2="296.691" y2="140.883" gradientUnits="userSpaceOnUse">
<stop stop-color="#83CF91"/>
<stop offset="0.18" stop-color="#3DAE55"/>
<stop offset="0.2" stop-color="#37A74C"/>
<stop offset="0.28" stop-color="#239331"/>
<stop offset="0.37" stop-color="#13831B"/>
<stop offset="0.46" stop-color="#08770B"/>
<stop offset="0.57" stop-color="#027102"/>
<stop offset="0.74" stop-color="#006F00"/>
<stop offset="0.78" stop-color="#007103"/>
<stop offset="0.82" stop-color="#00780C"/>
<stop offset="0.86" stop-color="#00841D"/>
<stop offset="0.89" stop-color="#009434"/>
<stop offset="0.9" stop-color="#009C3F"/>
<stop offset="1" stop-color="#7EB668"/>
</linearGradient>
<linearGradient id="paint2_linear_3001_5" x1="152.397" y1="16.5473" x2="141.314" y2="187.502" gradientUnits="userSpaceOnUse">
<stop stop-color="#F3F8FB"/>
<stop offset="0.03" stop-color="#DCEAED"/>
<stop offset="0.06" stop-color="#C4DFE0"/>
<stop offset="0.84" stop-color="#C1DADB"/>
<stop offset="0.9" stop-color="#E7F0F1"/>
<stop offset="0.95" stop-color="white"/>
<stop offset="1" stop-color="#A6BBBE"/>
</linearGradient>
<radialGradient id="paint3_radial_3001_5" cx="0" cy="0" r="1" gradientUnits="userSpaceOnUse" gradientTransform="translate(-118.78 10.211) scale(390.361 390.279)">
<stop offset="0.41" stop-color="#F3F8FB"/>
<stop offset="0.47" stop-color="#DCEAED"/>
<stop offset="0.97" stop-color="#ECFCFF"/>
<stop offset="0.98" stop-color="#BED8D9"/>
<stop offset="1" stop-color="#A6BBBE"/>
</radialGradient>
<linearGradient id="paint4_linear_3001_5" x1="137.924" y1="12.6563" x2="132.486" y2="168.937" gradientUnits="userSpaceOnUse">
<stop stop-color="#F3F8FB"/>
<stop offset="0.03" stop-color="#DCEAED"/>
<stop offset="0.06" stop-color="#C4DFE0"/>
<stop offset="0.5" stop-color="#C1DADB"/>
<stop offset="0.75" stop-color="#E7F0F1"/>
<stop offset="0.94" stop-color="white"/>
<stop offset="1" stop-color="#A6BBBE"/>
</linearGradient>
<linearGradient id="paint5_linear_3001_5" x1="134.158" y1="40.7535" x2="131.253" y2="146.616" gradientUnits="userSpaceOnUse">
<stop offset="0.05" stop-color="#BED8D9"/>
<stop offset="0.09" stop-color="#B0C7CA"/>
<stop offset="0.13" stop-color="#A8BEC0"/>
<stop offset="0.18" stop-color="#A6BBBE"/>
<stop offset="0.21" stop-color="#A2B7BA"/>
<stop offset="0.25" stop-color="#99ACAF"/>
<stop offset="0.28" stop-color="#88999C"/>
<stop offset="0.3" stop-color="#728083"/>
<stop offset="0.31" stop-color="#717F82"/>
<stop offset="0.39" stop-color="#BED8D9"/>
<stop offset="0.42" stop-color="#B2CACC"/>
<stop offset="0.46" stop-color="#A9BEC1"/>
<stop offset="0.51" stop-color="#A6BBBE"/>
<stop offset="0.55" stop-color="#A3B8BB"/>
<stop offset="0.58" stop-color="#9CB0B3"/>
<stop offset="0.6" stop-color="#8FA1A4"/>
<stop offset="0.62" stop-color="#7D8D90"/>
<stop offset="0.63" stop-color="#717F82"/>
<stop offset="0.72" stop-color="#BED8D9"/>
<stop offset="0.74" stop-color="#B6CFD0"/>
<stop offset="0.8" stop-color="#AAC0C2"/>
<stop offset="0.84" stop-color="#A6BBBE"/>
<stop offset="0.89" stop-color="#A4B8BB"/>
<stop offset="0.91" stop-color="#9DB1B4"/>
<stop offset="0.93" stop-color="#91A3A6"/>
<stop offset="0.94" stop-color="#819194"/>
<stop offset="0.95" stop-color="#717F82"/>
</linearGradient>
<radialGradient id="paint6_radial_3001_5" cx="0" cy="0" r="1" gradientUnits="userSpaceOnUse" gradientTransform="translate(58.718 9.79768) rotate(8.67821) scale(24.2971 24.2922)">
<stop offset="0.74" stop-color="#A6BBBE"/>
<stop offset="0.85" stop-color="#A6BBBE"/>
<stop offset="0.98" stop-color="#A6BBBE"/>
</radialGradient>
<radialGradient id="paint7_radial_3001_5" cx="0" cy="0" r="1" gradientUnits="userSpaceOnUse" gradientTransform="translate(102.058 17.534) scale(44.2536 44.2443)">
<stop offset="0.88" stop-color="#6945A9"/>
<stop offset="0.94" stop-color="#CF8AFF"/>
<stop offset="0.97" stop-color="#E8C7FC"/>
</radialGradient>
<radialGradient id="paint8_radial_3001_5" cx="0" cy="0" r="1" gradientUnits="userSpaceOnUse" gradientTransform="translate(77.8913 13.151) scale(13.8387 13.8358)">
<stop stop-color="#6125E5"/>
<stop offset="0.92" stop-color="#CF8AFF"/>
</radialGradient>
<radialGradient id="paint9_radial_3001_5" cx="0" cy="0" r="1" gradientUnits="userSpaceOnUse" gradientTransform="translate(71.8891 -0.192267) scale(13.8387 13.8358)">
<stop stop-color="#A389F0"/>
<stop offset="1" stop-color="#6945A9"/>
</radialGradient>
<radialGradient id="paint10_radial_3001_5" cx="0" cy="0" r="1" gradientUnits="userSpaceOnUse" gradientTransform="translate(101.771 10.3121) rotate(8.67821) scale(24.2971 24.2922)">
<stop offset="0.74" stop-color="#A6BBBE"/>
<stop offset="0.85" stop-color="#A6BBBE"/>
<stop offset="0.98" stop-color="#A6BBBE"/>
</radialGradient>
<radialGradient id="paint11_radial_3001_5" cx="0" cy="0" r="1" gradientUnits="userSpaceOnUse" gradientTransform="translate(145.107 18.0589) scale(44.2536 44.2443)">
<stop offset="0.88" stop-color="#6945A9"/>
<stop offset="0.94" stop-color="#CF8AFF"/>
<stop offset="0.97" stop-color="#E8C7FC"/>
</radialGradient>
<radialGradient id="paint12_radial_3001_5" cx="0" cy="0" r="1" gradientUnits="userSpaceOnUse" gradientTransform="translate(120.94 13.6738) scale(13.8387 13.8358)">
<stop stop-color="#6125E5"/>
<stop offset="0.92" stop-color="#CF8AFF"/>
</radialGradient>
<radialGradient id="paint13_radial_3001_5" cx="0" cy="0" r="1" gradientUnits="userSpaceOnUse" gradientTransform="translate(114.938 0.332666) scale(13.8387 13.8358)">
<stop stop-color="#A389F0"/>
<stop offset="1" stop-color="#6945A9"/>
</radialGradient>
<radialGradient id="paint14_radial_3001_5" cx="0" cy="0" r="1" gradientUnits="userSpaceOnUse" gradientTransform="translate(144.823 10.8244) rotate(8.6782) scale(24.2971 24.2922)">
<stop offset="0.74" stop-color="#A6BBBE"/>
<stop offset="0.85" stop-color="#A6BBBE"/>
<stop offset="0.98" stop-color="#A6BBBE"/>
</radialGradient>
<radialGradient id="paint15_radial_3001_5" cx="0" cy="0" r="1" gradientUnits="userSpaceOnUse" gradientTransform="translate(188.154 18.5838) scale(44.2536 44.2443)">
<stop offset="0.88" stop-color="#6945A9"/>
<stop offset="0.94" stop-color="#CF8AFF"/>
<stop offset="0.97" stop-color="#E8C7FC"/>
</radialGradient>
<radialGradient id="paint16_radial_3001_5" cx="0" cy="0" r="1" gradientUnits="userSpaceOnUse" gradientTransform="translate(163.987 14.1987) scale(13.8387 13.8358)">
<stop stop-color="#6125E5"/>
<stop offset="0.92" stop-color="#CF8AFF"/>
</radialGradient>
<radialGradient id="paint17_radial_3001_5" cx="0" cy="0" r="1" gradientUnits="userSpaceOnUse" gradientTransform="translate(157.985 0.857599) scale(13.8387 13.8358)">
<stop stop-color="#A389F0"/>
<stop offset="1" stop-color="#6945A9"/>
</radialGradient>
<radialGradient id="paint18_radial_3001_5" cx="0" cy="0" r="1" gradientUnits="userSpaceOnUse" gradientTransform="translate(187.877 11.4537) rotate(8.67821) scale(24.2971 24.2922)">
<stop offset="0.74" stop-color="#A6BBBE"/>
<stop offset="0.85" stop-color="#A6BBBE"/>
<stop offset="0.98" stop-color="#A6BBBE"/>
</radialGradient>
<radialGradient id="paint19_radial_3001_5" cx="0" cy="0" r="1" gradientUnits="userSpaceOnUse" gradientTransform="translate(231.202 19.2232) scale(44.2536 44.2443)">
<stop offset="0.88" stop-color="#6945A9"/>
<stop offset="0.94" stop-color="#CF8AFF"/>
<stop offset="0.97" stop-color="#E8C7FC"/>
</radialGradient>
<radialGradient id="paint20_radial_3001_5" cx="0" cy="0" r="1" gradientUnits="userSpaceOnUse" gradientTransform="translate(207.036 14.8403) scale(13.8387 13.8358)">
<stop stop-color="#6125E5"/>
<stop offset="0.92" stop-color="#CF8AFF"/>
</radialGradient>
<radialGradient id="paint21_radial_3001_5" cx="0" cy="0" r="1" gradientUnits="userSpaceOnUse" gradientTransform="translate(201.032 1.497) scale(13.8387 13.8358)">
<stop stop-color="#A389F0"/>
<stop offset="1" stop-color="#6945A9"/>
</radialGradient>
<radialGradient id="paint22_radial_3001_5" cx="0" cy="0" r="1" gradientUnits="userSpaceOnUse" gradientTransform="translate(230.928 12.1233) rotate(8.6782) scale(24.2971 24.2922)">
<stop offset="0.74" stop-color="#A6BBBE"/>
<stop offset="0.85" stop-color="#A6BBBE"/>
<stop offset="0.98" stop-color="#A6BBBE"/>
</radialGradient>
<radialGradient id="paint23_radial_3001_5" cx="0" cy="0" r="1" gradientUnits="userSpaceOnUse" gradientTransform="translate(274.248 19.9036) scale(44.2536 44.2443)">
<stop offset="0.88" stop-color="#6945A9"/>
<stop offset="0.94" stop-color="#CF8AFF"/>
<stop offset="0.97" stop-color="#E8C7FC"/>
</radialGradient>
<radialGradient id="paint24_radial_3001_5" cx="0" cy="0" r="1" gradientUnits="userSpaceOnUse" gradientTransform="translate(250.082 15.5185) scale(13.8387 13.8358)">
<stop stop-color="#6125E5"/>
<stop offset="0.92" stop-color="#CF8AFF"/>
</radialGradient>
<radialGradient id="paint25_radial_3001_5" cx="0" cy="0" r="1" gradientUnits="userSpaceOnUse" gradientTransform="translate(244.08 2.17742) scale(13.8387 13.8358)">
<stop stop-color="#A389F0"/>
<stop offset="1" stop-color="#6945A9"/>
</radialGradient>
</defs>
</svg>
