<svg xmlns="http://www.w3.org/2000/svg" width="8" height="10" fill="none"><path fill="#fff" d="M7.201 6.923V4.789c0-.175-.093-.268-.267-.274H6.69c-.035 0-.088 0-.122-.035-.035-.035-.041-.087-.041-.128v-.988c0-.617-.192-1.152-.553-1.582C5.26.927 4.364.636 3.323.922 2.305 1.2 1.688 1.88 1.49 2.95c-.053.285-.047.581-.041.866v.39c0 .14 0 .215-.052.262-.047.046-.123.046-.268.046s-.233.023-.285.07c-.052.052-.07.14-.075.285v4.053c0 .25.08.332.337.332H6.87c.25 0 .326-.082.326-.326V6.923zm-2.78-.285c-.07.052-.087.105-.075.186.047.407.081.814.128 1.221.012.093-.017.11-.099.11h-.378c-.122 0-.256-.005-.378 0-.099.006-.116-.028-.11-.121.046-.402.081-.803.128-1.204.011-.082 0-.134-.076-.186a.697.697 0 0 1-.087-1.035.697.697 0 0 1 1.029 0c.285.302.25.779-.081 1.035zM5.51 4.463H2.485c-.105 0-.134-.03-.134-.134.012-.378-.023-.762.018-1.146.087-.866.837-1.5 1.715-1.453.85.04 1.53.756 1.541 1.61v1c0 .094-.029.117-.122.117z"/></svg>