<svg xmlns="http://www.w3.org/2000/svg" width="8" height="10" fill="none"><path fill="#fff" d="M5.853 5.96a2.4 2.4 0 0 0-.38-.027h-.034l-.107-.68q.322-.17.594-.443c.327-.33.534-.726.64-1.142a.67.67 0 0 0 .468-.639.68.68 0 0 0-.487-.645 2.5 2.5 0 0 0-.614-1.049 2.425 2.425 0 0 0-3.451 0c-.307.31-.52.686-.627 1.083a.67.67 0 0 0-.394.611c0 .276.147.484.367.598a2.43 2.43 0 0 0 1.188 1.587l-.114.719c-.34 0-.674.08-.967.208A2.55 2.55 0 0 0 .413 8.473v1.425h7.595V8.473c0-1.27-.934-2.325-2.142-2.513zm-1.255.329-.1.403h-.594l-.1-.403h.8zm-.114.672a.163.163 0 0 1-.16.161H4.07a.163.163 0 0 1-.16-.161c0-.087.074-.161.16-.161h.254c.087 0 .16.074.16.161m-.253 2.325-.534-.383.22-1.653h.574l.267 1.633-.52.397z"/></svg>