<svg width="8" height="10" viewBox="0 0 8 10" fill="none" xmlns="http://www.w3.org/2000/svg">
<path d="M7.20141 6.9228V6.42268C7.20141 5.88765 7.20141 5.33519 7.20141 4.78854C7.20141 4.61407 7.10837 4.52102 6.9339 4.51521H6.92227C6.84667 4.51521 6.76526 4.51521 6.68966 4.51521C6.65476 4.51521 6.60242 4.51521 6.56753 4.48032C6.53264 4.44542 6.52682 4.39309 6.52682 4.35238C6.52682 4.03834 6.52682 3.71849 6.52682 3.36375C6.52682 2.74731 6.33491 2.21229 5.97436 1.78195C5.25906 0.927079 4.36348 0.636307 3.32251 0.921264C2.30481 1.20041 1.68837 1.88081 1.49065 2.95085C1.43831 3.23581 1.44412 3.5324 1.44994 3.81736C1.44994 3.93948 1.44994 4.07324 1.44994 4.19536V4.20699C1.44994 4.34656 1.44994 4.42216 1.3976 4.46869C1.35108 4.51521 1.27548 4.51521 1.13009 4.51521C0.984703 4.51521 0.897471 4.53847 0.845132 4.58499C0.792793 4.63733 0.775347 4.72457 0.769531 4.86995C0.769531 6.17843 0.769531 7.48109 0.769531 8.92332C0.769531 9.17338 0.850948 9.2548 1.10683 9.2548H6.86993C7.12 9.2548 7.1956 9.17338 7.1956 8.92913C7.1956 8.24873 7.1956 7.5625 7.1956 6.9228H7.20141ZM4.42163 6.63785C4.35185 6.69019 4.3344 6.74253 4.34603 6.82394C4.39255 7.23102 4.42745 7.6381 4.47397 8.04519C4.4856 8.13823 4.45652 8.15568 4.37511 8.15568C4.24717 8.15568 4.11923 8.15568 3.9971 8.15568C3.87498 8.15568 3.74122 8.14986 3.6191 8.15568C3.52024 8.16149 3.50279 8.1266 3.50861 8.03355C3.55513 7.63229 3.59002 7.23102 3.63655 6.82976C3.64818 6.74834 3.63655 6.696 3.56095 6.64366C3.22947 6.3936 3.18876 5.91673 3.47371 5.60851C3.75285 5.30611 4.22391 5.30611 4.50305 5.60851C4.788 5.91092 4.75311 6.38778 4.42163 6.64366V6.63785ZM5.50912 4.46287C5.00318 4.46287 4.49142 4.46287 3.98547 4.46287C3.47953 4.46287 2.98522 4.46287 2.48509 4.46287C2.38041 4.46287 2.35133 4.43379 2.35133 4.32912C2.36296 3.95111 2.32807 3.56729 2.36878 3.18347C2.45601 2.31697 3.2062 1.68309 4.08434 1.72961C4.93339 1.77032 5.6138 2.48562 5.62543 3.34049C5.62543 3.67197 5.62543 4.00927 5.62543 4.34075C5.62543 4.43379 5.59635 4.45706 5.5033 4.45706L5.50912 4.46287Z" fill="white"/>
</svg>
