<svg width="12" height="10" viewBox="0 0 12 10" fill="none" xmlns="http://www.w3.org/2000/svg">
<path d="M11.0749 7.32769V6.02346H10.5193C10.4959 5.95912 10.4725 5.89479 10.4375 5.83045L10.8293 5.4386L9.91108 4.52037L9.51923 4.91223C9.46074 4.88298 9.39641 4.85959 9.32622 4.83619V4.28058H8.02199V4.83619C7.95766 4.85959 7.89332 4.88298 7.82899 4.91223L7.43713 4.52037L6.51891 5.4386L6.91076 5.83045C6.88152 5.89479 6.85812 5.95327 6.83473 6.02346H6.27911V7.32769H6.83473C6.85812 7.39203 6.88152 7.45636 6.91076 7.52069L6.51891 7.91255L7.43713 8.83078L7.82899 8.43892C7.89332 8.46816 7.95181 8.49741 8.02199 8.5208V9.07642H9.32622V8.5208C9.39056 8.49741 9.45489 8.47401 9.51923 8.43892L9.91108 8.83078L10.8293 7.91255L10.4375 7.52069C10.4667 7.46221 10.4901 7.39787 10.5193 7.32769H11.0749ZM10.4024 7.9067L9.91108 8.39798L9.57771 8.06461L9.47829 8.1231C9.37301 8.18158 9.25604 8.22837 9.13907 8.26346L9.02795 8.29271V8.76644H8.33197V8.29271L8.22084 8.26346C8.09802 8.22837 7.9869 8.18158 7.88162 8.1231L7.7822 8.06461L7.44883 8.39798L6.95755 7.9067L7.29092 7.57333L7.23828 7.47391C7.17979 7.36863 7.13301 7.25166 7.09791 7.13469L7.06282 7.02356H6.58909V6.32758H7.06282L7.09791 6.21646C7.13301 6.09364 7.17979 5.98252 7.23828 5.87724L7.29092 5.77782L6.95755 5.44445L7.44883 4.95317L7.7822 5.28654L7.88162 5.2339C7.9869 5.17541 8.09802 5.12862 8.22084 5.09353L8.33197 5.05844V4.58471H9.02795V5.05844L9.13907 5.09353C9.26189 5.12862 9.37301 5.17541 9.47829 5.2339L9.57771 5.28654L9.91108 4.95317L10.4024 5.44445L10.069 5.77782L10.1216 5.87724C10.1801 5.98252 10.2269 6.09364 10.262 6.21646L10.2912 6.32758H10.765V7.02356H10.2912L10.262 7.13469C10.2269 7.25751 10.1801 7.36863 10.1216 7.47391L10.069 7.57333L10.4024 7.9067Z" fill="white"/>
<path d="M8.65365 5.44446C7.98691 5.44446 7.44299 5.98837 7.44299 6.66096C7.44299 7.33355 7.98691 7.87162 8.65365 7.87162C9.32039 7.87162 9.86431 7.3277 9.86431 6.66096C9.86431 5.99422 9.32039 5.44446 8.65365 5.44446ZM8.65365 7.57334C8.15067 7.57334 7.74127 7.16394 7.74127 6.66096C7.74127 6.15798 8.15067 5.74858 8.65365 5.74858C9.15663 5.74858 9.56603 6.15798 9.56603 6.66096C9.56603 7.16394 9.15663 7.57334 8.65365 7.57334Z" fill="white"/>
<path d="M5.77609 5.0117C5.86382 4.84794 5.93985 4.67248 5.99249 4.49118H6.71186V3.08752H5.99249C5.93985 2.90621 5.86967 2.73076 5.77609 2.567L6.28492 2.05817L5.29066 1.06391L4.78183 1.57274C4.61807 1.48501 4.44261 1.40898 4.25546 1.35634V0.636963H2.8518V1.35634C2.67049 1.40898 2.49504 1.47916 2.33128 1.57274L1.82245 1.06391L0.828192 2.05817L1.33702 2.567C1.24929 2.73076 1.17326 2.90621 1.12062 3.08752H0.401245V4.49118H1.12062C1.17326 4.67248 1.24344 4.84794 1.33702 5.0117L0.828192 5.52053L1.82245 6.51479L2.33128 6.00596C2.49504 6.09954 2.67049 6.16972 2.8518 6.22236V6.94173H4.25546V6.22236C4.43677 6.16972 4.61807 6.09954 4.78183 6.00596L5.29066 6.51479L6.28492 5.52053L5.77609 5.0117ZM3.52439 4.76021C2.97462 4.76021 2.53013 4.31572 2.53013 3.76595C2.53013 3.21619 2.97462 2.7717 3.52439 2.7717C4.07415 2.7717 4.51865 3.21619 4.51865 3.76595C4.51865 4.31572 4.07415 4.76021 3.52439 4.76021Z" fill="white"/>
</svg>
