<svg xmlns="http://www.w3.org/2000/svg" width="12" height="10" fill="none"><path fill="#fff" d="M11.075 7.328V6.023h-.556a1.4 1.4 0 0 0-.082-.193l.392-.391-.918-.919-.392.392a2 2 0 0 0-.193-.076v-.555H8.022v.555q-.097.034-.193.076l-.392-.392-.918.919.392.391c-.03.065-.053.123-.076.193h-.556v1.305h.556q.033.096.076.193l-.392.392.918.918.392-.392c.064.03.123.058.193.082v.555h1.304v-.555c.065-.024.129-.047.193-.082l.392.392.918-.918-.392-.392c.03-.059.053-.123.082-.193zm-.673.579-.49.491-.334-.333-.1.058a1.7 1.7 0 0 1-.339.14l-.111.03v.473h-.696v-.473l-.111-.03a1.6 1.6 0 0 1-.34-.14l-.099-.058-.333.333-.491-.491.333-.334-.053-.1a1.7 1.7 0 0 1-.14-.338l-.035-.111h-.474v-.696h.474l.035-.112q.053-.181.14-.339l.053-.1-.333-.333.49-.49.334.333.1-.053a1.6 1.6 0 0 1 .339-.14l.111-.036v-.473h.696v.473l.111.036q.183.052.34.14l.099.053.333-.334.491.491-.333.334.053.1q.087.156.14.338l.03.112h.473v.696h-.474l-.029.11a1.6 1.6 0 0 1-.14.34l-.053.1z"/><path fill="#fff" d="M8.654 5.444a1.214 1.214 0 0 0 0 2.428 1.213 1.213 0 0 0 0-2.428m0 2.13a.914.914 0 0 1 0-1.825.914.914 0 0 1 0 1.824M5.776 5.012c.088-.164.164-.34.216-.52h.72V3.087h-.72a2.4 2.4 0 0 0-.216-.521l.509-.509-.994-.994-.51.509a2.6 2.6 0 0 0-.526-.217V.637H2.852v.72a2.4 2.4 0 0 0-.52.216l-.51-.51-.994.995.509.509c-.088.164-.164.34-.216.52H.4v1.404h.72c.052.181.122.357.216.52l-.509.51.994.994.51-.509q.246.14.52.216v.72h1.403v-.72c.182-.052.363-.122.527-.216l.509.509.994-.994zM3.524 4.76a.993.993 0 1 1-.001-1.987.993.993 0 0 1 .001 1.987"/></svg>