<svg xmlns="http://www.w3.org/2000/svg" width="44" height="46" fill="none"><path fill="#FA7CA1" fill-opacity=".6" d="M0 10C0 4.477 4.477 0 10 0h24c5.523 0 10 4.477 10 10v26c0 5.523-4.477 10-10 10H10C4.477 46 0 41.523 0 36z" opacity=".2"/><path fill="#fff" d="M22 28.35a1.63 1.63 0 1 0 0-3.26 1.63 1.63 0 0 0 0 3.26"/><path fill="#fff" d="M28.28 20.53v-1.25c0-2.7-.65-6.28-6.28-6.28s-6.28 3.58-6.28 6.28v1.25c-2.8.35-3.72 1.77-3.72 5.26v1.86c0 4.1 1.25 5.35 5.35 5.35h9.3c4.1 0 5.35-1.25 5.35-5.35v-1.86c0-3.49-.92-4.91-3.72-5.26M22 29.74c-1.67 0-3.02-1.36-3.02-3.02 0-1.67 1.36-3.02 3.02-3.02a3.03 3.03 0 0 1 3.02 3.02c0 1.67-1.35 3.02-3.02 3.02m-4.65-9.3h-.23v-1.16c0-2.93.83-4.88 4.88-4.88s4.88 1.95 4.88 4.88v1.17h-9.53z"/></svg>