<svg xmlns="http://www.w3.org/2000/svg" width="44" height="46" fill="none"><path fill="#FA7CA1" fill-opacity=".6" d="M0 10C0 4.477 4.477 0 10 0h24c5.523 0 10 4.477 10 10v26c0 5.523-4.477 10-10 10H10C4.477 46 0 41.523 0 36z" opacity=".2"/><path fill="#fff" d="M31.53 26.93c-.16-.27-.61-.69-1.73-.49-.62.11-1.25.16-1.88.13a8.4 8.4 0 0 1-5.91-2.82c-1.3-1.45-2.1-3.34-2.11-5.38 0-1.14.22-2.24.67-3.28.44-1.01.13-1.54-.09-1.76-.23-.23-.77-.55-1.83-.11-4.09 1.72-6.62 5.82-6.32 10.21.3 4.13 3.2 7.66 7.04 8.99.92.32 1.89.51 2.89.55.16.01.32.02.48.02 3.35 0 6.49-1.58 8.47-4.27.67-.93.49-1.52.32-1.79"/></svg>