<svg width="44" height="46" viewBox="0 0 44 46" fill="none" xmlns="http://www.w3.org/2000/svg">
<path opacity="0.2" d="M0 10C0 4.47715 4.47715 0 10 0L34 0C39.5228 0 44 4.47715 44 10V36C44 41.5228 39.5228 46 34 46H10C4.47715 46 0 41.5228 0 36L0 10Z" fill="#FA7CA1" fill-opacity="0.6"/>
<path d="M32.0002 23.6201V25.6801C32.0002 26.2401 31.5402 26.7001 30.9702 26.7001H29.0402C27.9602 26.7001 26.9702 25.9101 26.8802 24.8301C26.8202 24.2001 27.0602 23.6101 27.4802 23.2001C27.8502 22.8201 28.3602 22.6001 28.9202 22.6001H30.9702C31.5402 22.6001 32.0002 23.0601 32.0002 23.6201Z" fill="white"/>
<path d="M25.38 24.9599C25.29 23.9099 25.67 22.8799 26.43 22.1299C27.07 21.4799 27.96 21.0999 28.92 21.0999H29.49C29.77 21.0999 30 20.8699 29.96 20.5899C29.69 18.6499 28.01 17.1499 26 17.1499H16C13.79 17.1499 12 18.9399 12 21.1499V28.1499C12 30.3599 13.79 32.1499 16 32.1499H26C28.02 32.1499 29.69 30.6499 29.96 28.7099C30 28.4299 29.77 28.1999 29.49 28.1999H29.04C27.14 28.1999 25.54 26.7799 25.38 24.9599ZM23 22.8999H17C16.59 22.8999 16.25 22.5699 16.25 22.1499C16.25 21.7299 16.59 21.3999 17 21.3999H23C23.41 21.3999 23.75 21.7399 23.75 22.1499C23.75 22.5599 23.41 22.8999 23 22.8999Z" fill="white"/>
<path d="M24.2097 14.9801C24.4697 15.2501 24.2397 15.6501 23.8597 15.6501H16.0297C14.9397 15.6501 13.9197 15.9701 13.0697 16.5201C12.6797 16.7701 12.1497 16.5001 12.3397 16.0701C12.8997 14.7601 14.2097 13.8501 15.7197 13.8501H21.3397C22.4997 13.8501 23.5297 14.2601 24.2097 14.9801Z" fill="white"/>
</svg>
