<svg xmlns="http://www.w3.org/2000/svg" width="44" height="46" fill="none"><path fill="#FA7CA1" fill-opacity=".6" d="M0 10C0 4.477 4.477 0 10 0h24c5.523 0 10 4.477 10 10v26c0 5.523-4.477 10-10 10H10C4.477 46 0 41.523 0 36z" opacity=".2"/><path fill="#fff" d="M30.1 20.22c-1.81 0-2.55-1.28-1.65-2.85.52-.91.21-2.07-.7-2.59l-1.73-.99c-.79-.47-1.81-.19-2.28.6l-.11.19c-.9 1.57-2.38 1.57-3.29 0l-.11-.19a1.64 1.64 0 0 0-2.26-.6l-1.73.99c-.91.52-1.22 1.69-.7 2.6.91 1.56.17 2.84-1.64 2.84-1.04 0-1.9.85-1.9 1.9v1.76c0 1.04.85 1.9 1.9 1.9 1.81 0 2.55 1.28 1.64 2.85-.52.91-.21 2.07.7 2.59l1.73.99c.79.47 1.81.19 2.28-.6l.11-.19c.9-1.57 2.38-1.57 3.29 0l.11.19c.47.79 1.49 1.07 2.28.6l1.73-.99c.91-.52 1.22-1.69.7-2.59-.91-1.57-.17-2.85 1.64-2.85 1.04 0 1.9-.85 1.9-1.9v-1.76a1.92 1.92 0 0 0-1.91-1.9M22 26.25c-1.79 0-3.25-1.46-3.25-3.25s1.46-3.25 3.25-3.25 3.25 1.46 3.25 3.25-1.46 3.25-3.25 3.25"/></svg>