<svg width="44" height="46" viewBox="0 0 44 46" fill="none" xmlns="http://www.w3.org/2000/svg">
<path opacity="0.2" d="M0 10C0 4.47715 4.47715 0 10 0L34 0C39.5228 0 44 4.47715 44 10V36C44 41.5228 39.5228 46 34 46H10C4.47715 46 0 41.5228 0 36L0 10Z" fill="#FA7CA1" fill-opacity="0.6"/>
<path d="M15 26C14.06 26 13.19 26.33 12.5 26.88C11.58 27.61 11 28.74 11 30C11 30.75 11.21 31.46 11.58 32.06C12.27 33.22 13.54 34 15 34C16.01 34 16.93 33.63 17.63 33C17.94 32.74 18.21 32.42 18.42 32.06C18.79 31.46 19 30.75 19 30C19 27.79 17.21 26 15 26ZM17.07 29.57L14.94 31.54C14.8 31.67 14.61 31.74 14.43 31.74C14.24 31.74 14.05 31.67 13.9 31.52L12.91 30.53C12.62 30.24 12.62 29.76 12.91 29.47C13.2 29.18 13.68 29.18 13.97 29.47L14.45 29.95L16.05 28.47C16.35 28.19 16.83 28.21 17.11 28.51C17.39 28.81 17.37 29.29 17.07 29.57Z" fill="white"/>
<path d="M24.85 14.95V18.75H23.35V14.95C23.35 14.68 23.11 14.55 22.95 14.55C22.9 14.55 22.85 14.56 22.8 14.58L14.87 17.57C14.34 17.77 14 18.27 14 18.84V19.51C13.09 20.19 12.5 21.28 12.5 22.51V18.84C12.5 17.65 13.23 16.59 14.34 16.17L22.28 13.17C22.5 13.09 22.73 13.05 22.95 13.05C23.95 13.05 24.85 13.86 24.85 14.95Z" fill="white"/>
<path d="M31.4997 25.5V26.5C31.4997 26.77 31.2897 26.99 31.0097 27H29.5497C29.0197 27 28.5397 26.61 28.4997 26.09C28.4697 25.78 28.5897 25.49 28.7897 25.29C28.9697 25.1 29.2197 25 29.4897 25H30.9997C31.2897 25.01 31.4997 25.23 31.4997 25.5Z" fill="white"/>
<path d="M29.48 23.95H30.5C31.05 23.95 31.5 23.5 31.5 22.95V22.51C31.5 20.44 29.81 18.75 27.74 18.75H16.26C15.41 18.75 14.63 19.03 14 19.51C13.09 20.19 12.5 21.28 12.5 22.51V24.29C12.5 24.67 12.9 24.91 13.26 24.79C13.82 24.6 14.41 24.5 15 24.5C18.03 24.5 20.5 26.97 20.5 30C20.5 30.72 20.31 31.51 20.01 32.21C19.85 32.57 20.1 33 20.49 33H27.74C29.81 33 31.5 31.31 31.5 29.24V29.05C31.5 28.5 31.05 28.05 30.5 28.05H29.63C28.67 28.05 27.75 27.46 27.5 26.53C27.3 25.77 27.54 25.03 28.04 24.55C28.41 24.17 28.92 23.95 29.48 23.95ZM24 23.75H19C18.59 23.75 18.25 23.41 18.25 23C18.25 22.59 18.59 22.25 19 22.25H24C24.41 22.25 24.75 22.59 24.75 23C24.75 23.41 24.41 23.75 24 23.75Z" fill="white"/>
</svg>
