<svg xmlns="http://www.w3.org/2000/svg" width="44" height="46" fill="none"><path fill="#FA7CA1" fill-opacity=".6" d="M0 10C0 4.477 4.477 0 10 0h24c5.523 0 10 4.477 10 10v26c0 5.523-4.477 10-10 10H10C4.477 46 0 41.523 0 36z" opacity=".2"/><path fill="#fff" d="M27 13.43H17c-3 0-5 2-5 5v6c0 3 2 5 5 5v2.13c0 .8.89 1.28 1.55.83L23 29.43h4c3 0 5-2 5-5v-6c0-3-2-5-5-5M22 25.6a.749.749 0 1 1 0-1.5.749.749 0 1 1 0 1.5m1.26-4.15c-.39.26-.51.43-.51.71v.21c0 .41-.34.75-.75.75s-.75-.34-.75-.75v-.21c0-1.16.85-1.73 1.17-1.95.37-.25.49-.42.49-.68 0-.5-.41-.91-.91-.91s-.91.41-.91.91c0 .41-.34.75-.75.75s-.75-.34-.75-.75c0-1.33 1.08-2.41 2.41-2.41s2.41 1.08 2.41 2.41c0 1.14-.84 1.71-1.15 1.92"/></svg>