<svg width="44" height="46" viewBox="0 0 44 46" fill="none" xmlns="http://www.w3.org/2000/svg">
<path opacity="0.2" d="M0 10C0 4.47715 4.47715 0 10 0L34 0C39.5228 0 44 4.47715 44 10V36C44 41.5228 39.5228 46 34 46H10C4.47715 46 0 41.5228 0 36L0 10Z" fill="#FA7CA1" fill-opacity="0.6"/>
<path d="M27 13.4299H17C14 13.4299 12 15.4299 12 18.4299V24.4299C12 27.4299 14 29.4299 17 29.4299V31.5599C17 32.3599 17.89 32.8399 18.55 32.3899L23 29.4299H27C30 29.4299 32 27.4299 32 24.4299V18.4299C32 15.4299 30 13.4299 27 13.4299ZM22 25.5999C21.58 25.5999 21.25 25.2599 21.25 24.8499C21.25 24.4399 21.58 24.0999 22 24.0999C22.42 24.0999 22.75 24.4399 22.75 24.8499C22.75 25.2599 22.42 25.5999 22 25.5999ZM23.26 21.4499C22.87 21.7099 22.75 21.8799 22.75 22.1599V22.3699C22.75 22.7799 22.41 23.1199 22 23.1199C21.59 23.1199 21.25 22.7799 21.25 22.3699V22.1599C21.25 20.9999 22.1 20.4299 22.42 20.2099C22.79 19.9599 22.91 19.7899 22.91 19.5299C22.91 19.0299 22.5 18.6199 22 18.6199C21.5 18.6199 21.09 19.0299 21.09 19.5299C21.09 19.9399 20.75 20.2799 20.34 20.2799C19.93 20.2799 19.59 19.9399 19.59 19.5299C19.59 18.1999 20.67 17.1199 22 17.1199C23.33 17.1199 24.41 18.1999 24.41 19.5299C24.41 20.6699 23.57 21.2399 23.26 21.4499Z" fill="white"/>
</svg>
