<svg xmlns="http://www.w3.org/2000/svg" width="183" height="50" fill="none"><path fill="#E8D900" d="m21.639 12.536-7.776 15.04V35H8.39v-7.424L.615 12.536h6.208l4.352 9.408 4.32-9.408zm1.116 13.504q0-2.752 1.024-4.832 1.056-2.08 2.848-3.2t4-1.12q1.889 0 3.296.768 1.44.768 2.208 2.016v-2.528h5.472V35h-5.472v-2.528q-.8 1.248-2.24 2.016-1.407.768-3.296.768-2.175 0-3.968-1.12-1.791-1.152-2.848-3.232-1.023-2.113-1.024-4.864m13.376.032q0-2.048-1.152-3.232-1.12-1.185-2.752-1.184-1.632 0-2.784 1.184-1.12 1.152-1.12 3.2t1.12 3.264q1.152 1.185 2.784 1.184 1.632 0 2.752-1.184 1.152-1.185 1.152-3.232m19.383 4.288V35H52.73q-2.976 0-4.64-1.44-1.664-1.471-1.664-4.768v-7.104H44.25v-4.544h2.176v-4.352h5.472v4.352h3.584v4.544h-3.584v7.168q0 .8.384 1.152t1.28.352zm8.52-10.24q.96-1.472 2.4-2.304 1.44-.864 3.2-.864v5.792H68.13q-2.048 0-3.072.896-1.024.864-1.024 3.072V35h-5.472V17.144h5.472zm10.968-4.832q-1.44 0-2.368-.832a2.82 2.82 0 0 1-.896-2.112q0-1.28.896-2.112.927-.864 2.368-.864 1.407 0 2.304.864.927.832.928 2.112 0 1.248-.928 2.112-.897.832-2.304.832m2.72 1.856V35H72.25V17.144zm21.085 2.624q0 1.952-.896 3.584-.895 1.6-2.752 2.592-1.855.992-4.608.992H87.16V35h-5.472V12.536h8.864q2.688 0 4.544.928t2.784 2.56.928 3.744m-8.672 2.816q1.568 0 2.336-.736t.768-2.08-.768-2.08q-.768-.735-2.336-.736H87.16v5.632zm10.433 3.456q0-2.752 1.024-4.832 1.056-2.08 2.848-3.2t4-1.12q1.888 0 3.296.768 1.44.768 2.208 2.016v-2.528h5.472V35h-5.472v-2.528q-.8 1.248-2.24 2.016-1.408.768-3.296.768-2.176 0-3.968-1.12-1.792-1.152-2.848-3.232-1.024-2.113-1.024-4.864m13.376.032q0-2.048-1.152-3.232-1.12-1.185-2.752-1.184-1.632 0-2.784 1.184-1.12 1.152-1.12 3.2t1.12 3.264q1.152 1.185 2.784 1.184 1.632 0 2.752-1.184 1.152-1.185 1.152-3.232m27.671-8.928-11.2 26.336h-5.888l4.096-9.088-7.264-17.248h6.112l4.128 11.168 4.096-11.168z"/><path fill="#fff" d="M150.166 21.6 144 50l15.836-23.88a4.1 4.1 0 0 0 .637-2.883l-2.425-16.123h-4.583l-2.069 9.468 5.044-.02a.72.72 0 0 1 .612.34 3.32 3.32 0 0 1-.759 4.357 1.54 1.54 0 0 1-.946.33l-5.18.013zM172.301 7.114h-8.947l2.251 11.31zM162.595 31.205l14.647-22.613s9.497 5.487 1.79 16.057c-6.907 9.473-13.118 7.266-16.436 6.556zM170.76 6.556l-10.861.223 9.563-3.638a.96.96 0 0 1 1.298.909zM154.43 6.902s8.414-3.685 9.491-3.883 1.581 1.236.265 1.694c-1.317.458-6.527 2.189-6.527 2.189z"/><path fill="#fff" d="M155.292 19.664a.58.58 0 0 0 .577-.584.58.58 0 0 0-.577-.583.58.58 0 0 0-.577.583.58.58 0 0 0 .577.584"/></svg>