<svg width="293" height="190" viewBox="0 0 293 190" fill="none" xmlns="http://www.w3.org/2000/svg">
<path d="M286.101 170.277L66.3757 158.102C62.3769 157.891 58.6577 154.832 58.0676 151.269L46.2262 23.6508C45.6245 20.0603 48.2975 17.1302 52.1986 17.1072L257.358 17.0611C261.276 17.0803 265.055 20.2791 265.796 24.2038L292.054 163.682C292.784 167.578 290.119 170.529 286.103 170.277H286.101Z" fill="#2B2B2B"/>
<path d="M221.268 189.695L7.14539 175.978C3.24509 175.74 0.820789 172.293 1.73086 168.279L43.6304 24.485C44.5423 20.4382 48.4426 17.1359 52.3429 17.1129L257.074 17.0611C260.974 17.0841 263.399 20.6877 262.489 25.1086L229.98 182.267C229.068 186.658 225.168 189.983 221.268 189.699V189.695Z" fill="#5C5C5C"/>
<path d="M210.196 170.277L18.3037 158.389C14.6476 158.182 12.3747 155.196 13.2299 151.717L43.6974 27.093C44.5507 23.5867 48.2087 20.725 51.8648 20.704L243.757 20.6581C247.414 20.6772 249.686 23.8009 248.831 27.6325L218.362 163.837C217.509 167.641 213.851 170.524 210.194 170.277H210.196Z" fill="url(#paint0_linear_569_3399)"/>
<path d="M210.297 170.185L18.3871 158.296C14.7307 158.09 12.4576 155.104 13.3129 151.624L43.7831 26.9968C44.6365 23.4904 48.2948 20.6286 51.9512 20.6076L243.861 20.5616C247.517 20.5808 249.79 23.7046 248.935 27.5363L218.463 163.744C217.609 167.549 213.951 170.432 210.295 170.185H210.297Z" fill="url(#paint1_linear_569_3399)"/>
<mask id="mask0_569_3399" style="mask-type:luminance" maskUnits="userSpaceOnUse" x="0" y="11" width="241" height="144">
<path d="M201.741 154.246L6.87493 145.183C2.24079 144.86 -0.568018 139.918 1.52711 135.773C1.69165 135.446 1.8122 135.209 1.87342 135.1C11.9377 116.923 20.3029 97.4853 26.6342 77.7264C32.8411 58.352 38.6194 38.178 38.782 17.652C38.8107 14.0384 41.7898 11.1461 45.4023 11.2149L233.973 13.7898C237.742 13.8624 240.664 17.1126 240.323 20.8677C238.544 40.4544 235.494 60.6954 230.971 79.8441C226.656 98.1128 220.421 115.859 214.491 133.646C212.633 139.222 210.462 144.766 208.204 150.233C207.134 152.821 204.534 154.442 201.739 154.246H201.741Z" fill="white"/>
</mask>
<g mask="url(#mask0_569_3399)">
<path d="M201.741 154.246L6.87493 145.183C2.24079 144.86 -0.568018 139.918 1.52711 135.773C1.69165 135.446 1.8122 135.209 1.87342 135.1C11.9377 116.923 20.3029 97.4853 26.6342 77.7264C32.8411 58.352 38.6194 38.178 38.782 17.652C38.8107 14.0384 41.7898 11.1461 45.4023 11.2149L233.973 13.7898C237.742 13.8624 240.664 17.1126 240.323 20.8677C238.544 40.4544 235.494 60.6954 230.971 79.8441C226.656 98.1128 220.421 115.859 214.491 133.646C212.633 139.222 210.462 144.766 208.204 150.233C207.134 152.821 204.534 154.442 201.739 154.246H201.741Z" fill="url(#paint2_radial_569_3399)"/>
<path d="M201.741 154.246L6.87493 145.183C2.24079 144.86 -0.568018 139.918 1.52711 135.773C1.69165 135.446 1.8122 135.209 1.87342 135.1C11.9377 116.923 20.3029 97.4853 26.6342 77.7264C32.8411 58.352 38.6194 38.178 38.782 17.652C38.8107 14.0384 41.7898 11.1461 45.4023 11.2149L233.973 13.7898C237.742 13.8624 240.664 17.1126 240.323 20.8677C238.544 40.4544 235.494 60.6954 230.971 79.8441C226.656 98.1128 220.421 115.859 214.491 133.646C212.633 139.222 210.462 144.766 208.204 150.233C207.134 152.821 204.534 154.442 201.739 154.246H201.741Z" fill="url(#paint3_linear_569_3399)"/>
</g>
<path d="M80.7751 61.3663C75.6354 61.2009 70.4937 61.0336 65.354 60.8682C62.8999 60.7894 61.2664 58.9589 61.6661 56.7822C62.5059 52.225 63.2212 47.6775 63.8123 43.1415C64.0954 40.9744 66.2894 39.2862 68.7512 39.365C73.9062 39.5304 79.0612 39.6957 84.2143 39.8592C86.6761 39.938 88.4684 41.7551 88.1776 43.9221C87.5713 48.4601 86.8406 53.0095 85.9875 57.5667C85.58 59.7434 83.2292 61.4451 80.7751 61.3643V61.3663ZM125.137 58.8319C126.013 54.2729 126.765 49.7215 127.394 45.1816C127.694 43.0146 125.912 41.1955 123.452 41.1167C118.299 40.9513 113.144 40.786 107.99 40.6206C105.529 40.5418 103.327 42.232 103.032 44.399C102.417 48.9369 101.678 53.4883 100.817 58.0455C100.406 60.2222 102.03 62.0527 104.486 62.1316C109.626 62.2969 114.766 62.4642 119.905 62.6296C122.359 62.7084 124.72 61.0067 125.137 58.83V58.8319ZM164.279 60.0953C165.178 55.5343 165.952 50.9829 166.605 46.4392C166.916 44.2702 165.143 42.4512 162.683 42.3723C157.53 42.207 152.377 42.0416 147.224 41.8762C144.762 41.7974 142.553 43.4876 142.247 45.6566C141.61 50.1983 140.849 54.7497 139.963 59.3088C139.54 61.4855 141.157 63.318 143.611 63.3968C148.75 63.5622 153.888 63.7294 159.028 63.8948C161.48 63.9736 163.85 62.2719 164.279 60.0933V60.0953ZM203.415 61.3605C204.337 56.7995 205.134 52.2443 205.809 47.7006C206.133 45.5316 204.367 43.7106 201.907 43.6318C196.756 43.4664 191.603 43.3011 186.45 43.1357C183.988 43.0569 181.771 44.749 181.454 46.918C180.794 51.4617 180.009 56.015 179.101 60.576C178.669 62.7526 180.273 64.5851 182.728 64.664C187.865 64.8293 193.003 64.9966 198.141 65.162C200.593 65.2408 202.971 63.5391 203.411 61.3605H203.415ZM72.2822 92.5992C67.1597 92.4338 62.0372 92.2665 56.9147 92.1011C54.4683 92.0223 53.0336 90.1917 53.6687 88.0151C55.0019 83.4579 56.2108 78.9104 57.2954 74.3744C57.8138 72.2073 60.1895 70.519 62.6436 70.5979C67.7814 70.7632 72.9173 70.9286 78.0531 71.0921C80.5054 71.1709 82.1006 72.988 81.5746 75.155C80.4767 79.693 79.2525 84.2424 77.9039 88.7996C77.2612 90.9763 74.7249 92.678 72.2784 92.5972L72.2822 92.5992ZM116.919 90.0648C118.291 85.5058 119.536 80.9544 120.659 76.4145C121.195 74.2475 119.609 72.4284 117.157 72.3496C112.021 72.1842 106.885 72.0189 101.749 71.8535C99.2948 71.7747 96.9115 73.4648 96.3816 75.6319C95.2741 80.1698 94.0423 84.7212 92.6861 89.2784C92.0396 91.4551 93.4646 93.2856 95.9111 93.3645C101.034 93.5298 106.154 93.6971 111.277 93.8625C113.721 93.9413 116.267 92.2396 116.921 90.0629L116.919 90.0648ZM155.923 91.3282C157.318 86.7671 158.586 82.2158 159.732 77.6721C160.279 75.5031 158.703 73.6841 156.251 73.6052C151.117 73.4398 145.981 73.2745 140.845 73.1091C138.393 73.0303 135.998 74.7205 135.458 76.8895C134.328 81.4312 133.073 85.9826 131.694 90.5417C131.036 92.7184 132.451 94.5508 134.898 94.6297C140.018 94.7951 145.139 94.9623 150.26 95.1277C152.704 95.2065 155.258 93.5048 155.923 91.3262V91.3282ZM194.924 92.5934C196.341 88.0324 197.632 83.4771 198.801 78.9334C199.359 76.7645 197.793 74.9435 195.341 74.8647C190.207 74.6993 185.073 74.534 179.939 74.3686C177.486 74.2898 175.084 75.9819 174.533 78.1508C173.38 82.6945 172.102 87.2479 170.698 91.8089C170.028 93.9855 171.436 95.818 173.881 95.8969C179.001 96.0622 184.12 96.2295 189.241 96.3949C191.685 96.4737 194.246 94.772 194.924 92.5934ZM60.9546 123.33C55.8493 123.165 50.744 122.998 45.6387 122.832C43.1999 122.753 41.9566 120.923 42.8174 118.746C44.625 114.189 46.3063 109.641 47.8633 105.105C48.6074 102.938 51.1591 101.25 53.6037 101.329C58.7242 101.494 63.8429 101.66 68.9616 101.823C71.4061 101.902 72.812 103.719 72.0622 105.886C70.4918 110.424 68.7952 114.973 66.9742 119.531C66.1038 121.707 63.3915 123.409 60.9546 123.328V123.33ZM105.856 120.796C107.7 116.237 109.419 111.685 111.015 107.146C111.776 104.978 110.38 103.159 107.935 103.081C102.816 102.915 97.6976 102.75 92.579 102.585C90.1344 102.506 87.5732 104.196 86.8195 106.363C85.2395 110.901 83.5352 115.452 81.7047 120.009C80.8324 122.186 82.0662 124.017 84.505 124.095C89.6103 124.261 94.7137 124.428 99.8189 124.593C102.256 124.672 104.978 122.971 105.858 120.794L105.856 120.796ZM144.728 122.059C146.595 117.498 148.339 112.947 149.955 108.403C150.728 106.234 149.341 104.415 146.897 104.336C141.778 104.171 136.661 104.006 131.543 103.84C129.098 103.761 126.529 105.451 125.764 107.62C124.161 112.162 122.434 116.714 120.581 121.273C119.697 123.449 120.923 125.282 123.36 125.361C128.463 125.526 133.567 125.693 138.67 125.859C141.107 125.938 143.836 124.236 144.728 122.057V122.059ZM183.596 123.324C185.488 118.763 187.253 114.208 188.893 109.664C189.677 107.495 188.298 105.675 185.855 105.596C180.738 105.43 175.621 105.265 170.505 105.1C168.06 105.021 165.482 106.713 164.705 108.882C163.079 113.426 161.327 117.979 159.451 122.54C158.555 124.717 159.772 126.549 162.209 126.628C167.312 126.793 172.414 126.961 177.517 127.126C179.952 127.205 182.691 125.503 183.594 123.324H183.596Z" fill="url(#paint4_linear_569_3399)"/>
<path d="M66.7107 14.1455C67.2541 13.3593 67.7191 12.51 68.2433 11.6549C68.4385 11.3354 68.6356 11.014 68.758 10.6601C68.8307 10.4478 68.8785 10.2221 69.0048 10.0346C69.3397 9.5334 70.061 9.51618 70.6599 9.58122C73.0497 9.83756 73.7366 11.1766 73.6409 13.455C73.4763 17.4052 71.9284 21.2024 69.1082 23.9571C66.8561 26.1551 64.0722 27.3334 60.9171 27.299C60.322 27.2933 59.7117 27.2435 59.1702 27.0006C58.0815 26.5128 57.4443 25.2808 57.4443 24.0891C57.4443 19.7926 62.134 18.2316 64.9083 16.1063C65.6488 15.5382 66.2152 14.8705 66.7165 14.1474L66.7107 14.1455Z" fill="url(#paint5_radial_569_3399)"/>
<path d="M73.3212 10.1513C73.1873 9.54108 73.0361 8.93467 72.8582 8.33592C72.5329 7.23023 72.1292 6.14367 71.6164 5.10685C70.7611 3.39476 69.5595 1.75344 67.8624 0.802704C66.789 0.20395 65.5664 -0.0581249 64.3418 0.0107415C59.6407 0.280468 56.6961 4.99207 55.7949 11.3546C55.5366 13.1661 55.4428 15.1154 55.5251 17.1336C55.5959 18.8725 55.814 20.6056 56.2024 22.3024C56.6712 24.3665 57.3715 28.1197 60.318 27.5688C62.0573 27.2436 62.0898 25.0437 61.4718 23.7371C60.9399 22.6085 60.2702 21.7323 59.9966 20.4832C59.7459 19.3258 59.7039 18.1283 59.7479 16.9442C59.8187 15.1059 60.0176 13.1757 60.3697 11.4158C61.0719 7.86916 62.3845 5.0112 64.4796 4.94808C65.8304 4.9079 66.7067 5.91603 67.2119 7.0638C67.541 7.80412 67.7476 8.59799 67.9064 9.38996C68.0403 10.048 68.0461 10.729 68.1992 11.3833C68.2106 11.4311 68.2221 11.4789 68.2355 11.5229L73.6828 11.5975C73.6828 11.1346 73.4016 10.5148 73.3212 10.1475V10.1513Z" fill="url(#paint6_radial_569_3399)"/>
<path d="M73.3212 10.1513C73.1873 9.54108 73.0361 8.93467 72.8582 8.33592C72.5329 7.23023 72.1292 6.14367 71.6164 5.10685C70.7611 3.39476 69.5595 1.75344 67.8624 0.802704C66.789 0.20395 65.5664 -0.0581249 64.3418 0.0107415C59.6407 0.280468 56.6961 4.99207 55.7949 11.3546C55.5366 13.1661 55.4428 15.1154 55.5251 17.1336C55.5959 18.8725 55.814 20.6056 56.2024 22.3024C56.6712 24.3665 57.3715 28.1197 60.318 27.5688C62.0573 27.2436 62.0898 25.0437 61.4718 23.7371C60.9399 22.6085 60.2702 21.7323 59.9966 20.4832C59.7459 19.3258 59.7039 18.1283 59.7479 16.9442C59.8187 15.1059 60.0176 13.1757 60.3697 11.4158C61.0719 7.86916 62.3845 5.0112 64.4796 4.94808C65.8304 4.9079 66.7067 5.91603 67.2119 7.0638C67.541 7.80412 67.7476 8.59799 67.9064 9.38996C68.0403 10.048 68.0461 10.729 68.1992 11.3833C68.2106 11.4311 68.2221 11.4789 68.2355 11.5229L73.6828 11.5975C73.6828 11.1346 73.4016 10.5148 73.3212 10.1475V10.1513Z" fill="url(#paint7_radial_569_3399)"/>
<path d="M73.3212 10.1513C73.1873 9.54108 73.0361 8.93467 72.8582 8.33592C72.5329 7.23023 72.1292 6.14367 71.6164 5.10685C70.7611 3.39476 69.5595 1.75344 67.8624 0.802704C66.789 0.20395 65.5664 -0.0581249 64.3418 0.0107415C59.6407 0.280468 56.6961 4.99207 55.7949 11.3546C55.5366 13.1661 55.4428 15.1154 55.5251 17.1336C55.5959 18.8725 55.814 20.6056 56.2024 22.3024C56.6712 24.3665 57.3715 28.1197 60.318 27.5688C62.0573 27.2436 62.0898 25.0437 61.4718 23.7371C60.9399 22.6085 60.2702 21.7323 59.9966 20.4832C59.7459 19.3258 59.7039 18.1283 59.7479 16.9442C59.8187 15.1059 60.0176 13.1757 60.3697 11.4158C61.0719 7.86916 62.3845 5.0112 64.4796 4.94808C65.8304 4.9079 66.7067 5.91603 67.2119 7.0638C67.541 7.80412 67.7476 8.59799 67.9064 9.38996C68.0403 10.048 68.0461 10.729 68.1992 11.3833C68.2106 11.4311 68.2221 11.4789 68.2355 11.5229L73.6828 11.5975C73.6828 11.1346 73.4016 10.5148 73.3212 10.1475V10.1513Z" fill="#A6BBBE"/>
<path d="M104.833 14.6104C105.376 13.8242 105.841 12.9748 106.365 12.1197C106.561 11.8003 106.758 11.4789 106.88 11.125C106.953 10.9127 107.001 10.6869 107.127 10.4995C107.462 9.99828 108.183 9.98106 108.782 10.0461C111.172 10.3024 111.859 11.6415 111.763 13.9198C111.598 17.8701 110.051 21.6673 107.23 24.4219C104.978 26.6199 102.194 27.7983 99.0391 27.7639C98.4441 27.7581 97.8337 27.7084 97.2923 27.4655C96.2036 26.9777 95.5664 25.7457 95.5664 24.5539C95.5664 20.2574 100.256 18.6965 103.03 16.5712C103.771 16.003 104.337 15.3354 104.839 14.6123L104.833 14.6104Z" fill="url(#paint8_radial_569_3399)"/>
<path d="M111.441 10.6162C111.307 10.0059 111.156 9.39952 110.978 8.80076C110.653 7.69507 110.249 6.60852 109.737 5.57169C108.881 3.8596 107.68 2.21829 105.983 1.26755C104.909 0.668794 103.686 0.406719 102.462 0.475585C97.7608 0.745312 94.8162 5.45692 93.915 11.8194C93.6567 13.631 93.5629 15.5803 93.6452 17.5984C93.716 19.3373 93.9341 21.0704 94.3225 22.7672C94.7913 24.8313 95.4916 28.5845 98.4382 28.0336C100.177 27.7084 100.21 25.5085 99.5919 24.202C99.06 23.0733 98.3903 22.1972 98.1167 20.948C97.8661 19.7907 97.824 18.5932 97.868 17.4091C97.9388 15.5707 98.1378 13.6405 98.4898 11.8806C99.192 8.334 100.505 5.47605 102.6 5.41292C103.951 5.37275 104.827 6.38087 105.332 7.52865C105.661 8.26896 105.868 9.06284 106.027 9.8548C106.16 10.5129 106.166 11.1939 106.319 11.8481C106.331 11.8959 106.342 11.9437 106.356 11.9877L111.803 12.0623C111.803 11.5994 111.522 10.9796 111.441 10.6123V10.6162Z" fill="url(#paint9_radial_569_3399)"/>
<path d="M111.441 10.6162C111.307 10.0059 111.156 9.39952 110.978 8.80076C110.653 7.69507 110.249 6.60852 109.737 5.57169C108.881 3.8596 107.68 2.21829 105.983 1.26755C104.909 0.668794 103.686 0.406719 102.462 0.475585C97.7608 0.745312 94.8162 5.45692 93.915 11.8194C93.6567 13.631 93.5629 15.5803 93.6452 17.5984C93.716 19.3373 93.9341 21.0704 94.3225 22.7672C94.7913 24.8313 95.4916 28.5845 98.4382 28.0336C100.177 27.7084 100.21 25.5085 99.5919 24.202C99.06 23.0733 98.3903 22.1972 98.1167 20.948C97.8661 19.7907 97.824 18.5932 97.868 17.4091C97.9388 15.5707 98.1378 13.6405 98.4898 11.8806C99.192 8.334 100.505 5.47605 102.6 5.41292C103.951 5.37275 104.827 6.38087 105.332 7.52865C105.661 8.26896 105.868 9.06284 106.027 9.8548C106.16 10.5129 106.166 11.1939 106.319 11.8481C106.331 11.8959 106.342 11.9437 106.356 11.9877L111.803 12.0623C111.803 11.5994 111.522 10.9796 111.441 10.6123V10.6162Z" fill="url(#paint10_radial_569_3399)"/>
<path d="M111.441 10.6162C111.307 10.0059 111.156 9.39952 110.978 8.80076C110.653 7.69507 110.249 6.60852 109.737 5.57169C108.881 3.8596 107.68 2.21829 105.983 1.26755C104.909 0.668794 103.686 0.406719 102.462 0.475585C97.7608 0.745312 94.8162 5.45692 93.915 11.8194C93.6567 13.631 93.5629 15.5803 93.6452 17.5984C93.716 19.3373 93.9341 21.0704 94.3225 22.7672C94.7913 24.8313 95.4916 28.5845 98.4382 28.0336C100.177 27.7084 100.21 25.5085 99.5919 24.202C99.06 23.0733 98.3903 22.1972 98.1167 20.948C97.8661 19.7907 97.824 18.5932 97.868 17.4091C97.9388 15.5707 98.1378 13.6405 98.4898 11.8806C99.192 8.334 100.505 5.47605 102.6 5.41292C103.951 5.37275 104.827 6.38087 105.332 7.52865C105.661 8.26896 105.868 9.06284 106.027 9.8548C106.16 10.5129 106.166 11.1939 106.319 11.8481C106.331 11.8959 106.342 11.9437 106.356 11.9877L111.803 12.0623C111.803 11.5994 111.522 10.9796 111.441 10.6123V10.6162Z" fill="#A6BBBE"/>
<path d="M142.954 15.0753C143.497 14.2891 143.962 13.4397 144.486 12.5846C144.682 12.2652 144.879 11.9438 145.001 11.5899C145.074 11.3775 145.122 11.1518 145.248 10.9643C145.583 10.4631 146.304 10.4459 146.903 10.511C149.293 10.7673 149.98 12.1064 149.884 14.3847C149.72 18.333 148.172 22.1322 145.351 24.8868C143.099 27.0848 140.315 28.2632 137.16 28.2288C136.565 28.223 135.955 28.1733 135.413 27.9303C134.325 27.4425 133.688 26.2106 133.688 25.0188C133.688 20.7223 138.377 19.1614 141.152 17.0361C141.892 16.4679 142.458 15.8003 142.96 15.0772L142.954 15.0753Z" fill="url(#paint11_radial_569_3399)"/>
<path d="M149.562 11.081C149.428 10.4708 149.277 9.86439 149.099 9.26564C148.774 8.15995 148.37 7.07339 147.858 6.03657C147.002 4.32447 145.801 2.68316 144.104 1.73242C143.03 1.13367 141.808 0.871593 140.583 0.940459C135.882 1.21019 132.937 5.92179 132.036 12.2843C131.778 14.0958 131.684 16.0451 131.766 18.0633C131.837 19.8022 132.055 21.5353 132.444 23.2321C132.912 25.2962 133.613 29.0494 136.559 28.4985C138.298 28.1733 138.331 25.9734 137.713 24.6668C137.181 23.5382 136.511 22.6621 136.238 21.4129C135.987 20.2556 135.945 19.058 135.989 17.8739C136.06 16.0356 136.259 14.1054 136.611 12.3455C137.313 8.79887 138.626 5.94092 140.721 5.87779C142.072 5.83762 142.948 6.84575 143.453 7.99352C143.782 8.73383 143.989 9.52771 144.148 10.3197C144.282 10.9777 144.287 11.6587 144.44 12.313C144.452 12.3608 144.463 12.4086 144.477 12.4526L149.924 12.5272C149.924 12.0643 149.643 11.4445 149.562 11.0772V11.081Z" fill="url(#paint12_radial_569_3399)"/>
<path d="M149.562 11.081C149.428 10.4708 149.277 9.86439 149.099 9.26564C148.774 8.15995 148.37 7.07339 147.858 6.03657C147.002 4.32447 145.801 2.68316 144.104 1.73242C143.03 1.13367 141.808 0.871593 140.583 0.940459C135.882 1.21019 132.937 5.92179 132.036 12.2843C131.778 14.0958 131.684 16.0451 131.766 18.0633C131.837 19.8022 132.055 21.5353 132.444 23.2321C132.912 25.2962 133.613 29.0494 136.559 28.4985C138.298 28.1733 138.331 25.9734 137.713 24.6668C137.181 23.5382 136.511 22.6621 136.238 21.4129C135.987 20.2556 135.945 19.058 135.989 17.8739C136.06 16.0356 136.259 14.1054 136.611 12.3455C137.313 8.79887 138.626 5.94092 140.721 5.87779C142.072 5.83762 142.948 6.84575 143.453 7.99352C143.782 8.73383 143.989 9.52771 144.148 10.3197C144.282 10.9777 144.287 11.6587 144.44 12.313C144.452 12.3608 144.463 12.4086 144.477 12.4526L149.924 12.5272C149.924 12.0643 149.643 11.4445 149.562 11.0772V11.081Z" fill="url(#paint13_radial_569_3399)"/>
<path d="M149.562 11.081C149.428 10.4708 149.277 9.86439 149.099 9.26564C148.774 8.15995 148.37 7.07339 147.858 6.03657C147.002 4.32447 145.801 2.68316 144.104 1.73242C143.03 1.13367 141.808 0.871593 140.583 0.940459C135.882 1.21019 132.937 5.92179 132.036 12.2843C131.778 14.0958 131.684 16.0451 131.766 18.0633C131.837 19.8022 132.055 21.5353 132.444 23.2321C132.912 25.2962 133.613 29.0494 136.559 28.4985C138.298 28.1733 138.331 25.9734 137.713 24.6668C137.181 23.5382 136.511 22.6621 136.238 21.4129C135.987 20.2556 135.945 19.058 135.989 17.8739C136.06 16.0356 136.259 14.1054 136.611 12.3455C137.313 8.79887 138.626 5.94092 140.721 5.87779C142.072 5.83762 142.948 6.84575 143.453 7.99352C143.782 8.73383 143.989 9.52771 144.148 10.3197C144.282 10.9777 144.287 11.6587 144.44 12.313C144.452 12.3608 144.463 12.4086 144.477 12.4526L149.924 12.5272C149.924 12.0643 149.643 11.4445 149.562 11.0772V11.081Z" fill="#A6BBBE"/>
<path d="M181.075 15.6415C181.618 14.8553 182.083 14.0059 182.608 13.1508C182.803 12.8314 183 12.51 183.122 12.1561C183.195 11.9438 183.243 11.718 183.369 11.5306C183.704 11.0294 184.425 11.0122 185.024 11.0772C187.414 11.3335 188.101 12.6726 188.005 14.9509C187.841 18.9012 186.293 22.6984 183.472 25.453C181.22 27.651 178.436 28.8294 175.281 28.795C174.686 28.7873 174.076 28.7395 173.534 28.4966C172.446 28.0088 171.809 26.7768 171.809 25.585C171.809 21.2885 176.498 19.7276 179.273 17.6023C180.013 17.0341 180.579 16.3665 181.081 15.6434L181.075 15.6415Z" fill="url(#paint14_radial_569_3399)"/>
<path d="M187.684 11.6473C187.551 11.0371 187.399 10.4306 187.221 9.83189C186.896 8.7262 186.492 7.63964 185.98 6.60282C185.124 4.89073 183.923 3.24941 182.226 2.29868C181.152 1.69992 179.93 1.43785 178.705 1.50671C174.004 1.77644 171.059 6.48805 170.158 12.8505C169.9 14.6621 169.806 16.6114 169.888 18.6296C169.959 20.3684 170.177 22.1016 170.566 23.7984C171.034 25.8624 171.735 29.6157 174.681 29.0647C176.421 28.7395 176.453 26.5396 175.835 25.2331C175.303 24.1044 174.633 23.2283 174.36 21.9791C174.109 20.8218 174.067 19.6243 174.111 18.4402C174.182 16.6018 174.381 14.6717 174.733 12.9117C175.435 9.36513 176.748 6.50717 178.843 6.44405C180.194 6.40388 181.07 7.412 181.575 8.55977C181.904 9.30009 182.111 10.094 182.27 10.8859C182.404 11.544 182.409 12.225 182.562 12.8792C182.574 12.927 182.585 12.9749 182.599 13.0189L188.046 13.0935C188.046 12.6305 187.765 12.0107 187.684 11.6435V11.6473Z" fill="url(#paint15_radial_569_3399)"/>
<path d="M187.684 11.6473C187.551 11.0371 187.399 10.4306 187.221 9.83189C186.896 8.7262 186.492 7.63964 185.98 6.60282C185.124 4.89073 183.923 3.24941 182.226 2.29868C181.152 1.69992 179.93 1.43785 178.705 1.50671C174.004 1.77644 171.059 6.48805 170.158 12.8505C169.9 14.6621 169.806 16.6114 169.888 18.6296C169.959 20.3684 170.177 22.1016 170.566 23.7984C171.034 25.8624 171.735 29.6157 174.681 29.0647C176.421 28.7395 176.453 26.5396 175.835 25.2331C175.303 24.1044 174.633 23.2283 174.36 21.9791C174.109 20.8218 174.067 19.6243 174.111 18.4402C174.182 16.6018 174.381 14.6717 174.733 12.9117C175.435 9.36513 176.748 6.50717 178.843 6.44405C180.194 6.40388 181.07 7.412 181.575 8.55977C181.904 9.30009 182.111 10.094 182.27 10.8859C182.404 11.544 182.409 12.225 182.562 12.8792C182.574 12.927 182.585 12.9749 182.599 13.0189L188.046 13.0935C188.046 12.6305 187.765 12.0107 187.684 11.6435V11.6473Z" fill="url(#paint16_radial_569_3399)"/>
<path d="M187.684 11.6473C187.551 11.0371 187.399 10.4306 187.221 9.83189C186.896 8.7262 186.492 7.63964 185.98 6.60282C185.124 4.89073 183.923 3.24941 182.226 2.29868C181.152 1.69992 179.93 1.43785 178.705 1.50671C174.004 1.77644 171.059 6.48805 170.158 12.8505C169.9 14.6621 169.806 16.6114 169.888 18.6296C169.959 20.3684 170.177 22.1016 170.566 23.7984C171.034 25.8624 171.735 29.6157 174.681 29.0647C176.421 28.7395 176.453 26.5396 175.835 25.2331C175.303 24.1044 174.633 23.2283 174.36 21.9791C174.109 20.8218 174.067 19.6243 174.111 18.4402C174.182 16.6018 174.381 14.6717 174.733 12.9117C175.435 9.36513 176.748 6.50717 178.843 6.44405C180.194 6.40388 181.07 7.412 181.575 8.55977C181.904 9.30009 182.111 10.094 182.27 10.8859C182.404 11.544 182.409 12.225 182.562 12.8792C182.574 12.927 182.585 12.9749 182.599 13.0189L188.046 13.0935C188.046 12.6305 187.765 12.0107 187.684 11.6435V11.6473Z" fill="#A6BBBE"/>
<path d="M219.196 16.244C219.739 15.4578 220.204 14.6085 220.729 13.7534C220.924 13.4339 221.121 13.1125 221.243 12.7586C221.316 12.5463 221.364 12.3206 221.49 12.1331C221.825 11.6319 222.546 11.6147 223.145 11.6797C225.535 11.9361 226.222 13.2751 226.126 15.5535C225.962 19.5037 224.414 23.3009 221.593 26.0556C219.341 28.2536 216.558 29.4319 213.402 29.3975C212.807 29.3918 212.197 29.342 211.656 29.0991C210.567 28.6113 209.93 27.3793 209.93 26.1876C209.93 21.8911 214.619 20.3301 217.394 18.2048C218.134 17.6367 218.701 16.9691 219.202 16.246L219.196 16.244Z" fill="url(#paint17_radial_569_3399)"/>
<path d="M225.806 12.2498C225.672 11.6396 225.52 11.0332 225.343 10.4344C225.017 9.32874 224.614 8.24218 224.101 7.20536C223.245 5.49327 222.044 3.85195 220.347 2.90122C219.273 2.30246 218.051 2.04039 216.826 2.10925C212.125 2.37898 209.18 7.09058 208.279 13.4531C208.021 15.2646 207.927 17.2139 208.009 19.2321C208.08 20.971 208.298 22.7041 208.687 24.4009C209.156 26.465 209.856 30.2182 212.802 29.6673C214.542 29.3421 214.574 27.1422 213.956 25.8356C213.424 24.707 212.755 23.8308 212.481 22.5817C212.23 21.4243 212.188 20.2268 212.232 19.0427C212.303 17.2044 212.502 15.2742 212.854 13.5143C213.556 9.96767 214.869 7.10971 216.964 7.04659C218.315 7.00641 219.191 8.01454 219.696 9.16231C220.025 9.90263 220.232 10.6965 220.391 11.4885C220.525 12.1465 220.53 12.8275 220.684 13.4818C220.695 13.5296 220.706 13.5774 220.72 13.6214L226.167 13.696C226.167 13.2331 225.886 12.6133 225.806 12.246V12.2498Z" fill="url(#paint18_radial_569_3399)"/>
<path d="M225.806 12.2498C225.672 11.6396 225.52 11.0332 225.343 10.4344C225.017 9.32874 224.614 8.24218 224.101 7.20536C223.245 5.49327 222.044 3.85195 220.347 2.90122C219.273 2.30246 218.051 2.04039 216.826 2.10925C212.125 2.37898 209.18 7.09058 208.279 13.4531C208.021 15.2646 207.927 17.2139 208.009 19.2321C208.08 20.971 208.298 22.7041 208.687 24.4009C209.156 26.465 209.856 30.2182 212.802 29.6673C214.542 29.3421 214.574 27.1422 213.956 25.8356C213.424 24.707 212.755 23.8308 212.481 22.5817C212.23 21.4243 212.188 20.2268 212.232 19.0427C212.303 17.2044 212.502 15.2742 212.854 13.5143C213.556 9.96767 214.869 7.10971 216.964 7.04659C218.315 7.00641 219.191 8.01454 219.696 9.16231C220.025 9.90263 220.232 10.6965 220.391 11.4885C220.525 12.1465 220.53 12.8275 220.684 13.4818C220.695 13.5296 220.706 13.5774 220.72 13.6214L226.167 13.696C226.167 13.2331 225.886 12.6133 225.806 12.246V12.2498Z" fill="url(#paint19_radial_569_3399)"/>
<path d="M225.806 12.2498C225.672 11.6396 225.52 11.0332 225.343 10.4344C225.017 9.32874 224.614 8.24218 224.101 7.20536C223.245 5.49327 222.044 3.85195 220.347 2.90122C219.273 2.30246 218.051 2.04039 216.826 2.10925C212.125 2.37898 209.18 7.09058 208.279 13.4531C208.021 15.2646 207.927 17.2139 208.009 19.2321C208.08 20.971 208.298 22.7041 208.687 24.4009C209.156 26.465 209.856 30.2182 212.802 29.6673C214.542 29.3421 214.574 27.1422 213.956 25.8356C213.424 24.707 212.755 23.8308 212.481 22.5817C212.23 21.4243 212.188 20.2268 212.232 19.0427C212.303 17.2044 212.502 15.2742 212.854 13.5143C213.556 9.96767 214.869 7.10971 216.964 7.04659C218.315 7.00641 219.191 8.01454 219.696 9.16231C220.025 9.90263 220.232 10.6965 220.391 11.4885C220.525 12.1465 220.53 12.8275 220.684 13.4818C220.695 13.5296 220.706 13.5774 220.72 13.6214L226.167 13.696C226.167 13.2331 225.886 12.6133 225.806 12.246V12.2498Z" fill="#A6BBBE"/>
<path d="M81.0604 61.5023C75.9415 61.3359 70.8206 61.1676 65.7017 61.0012C63.2574 60.9219 61.6305 59.08 62.0287 56.8899C62.865 52.3046 63.5775 47.7289 64.1662 43.1648C64.4481 40.9844 66.6332 39.2857 69.0851 39.365C74.2193 39.5314 79.3535 39.6978 84.4858 39.8622C86.9376 39.9416 88.7227 41.7699 88.4331 43.9503C87.8292 48.5163 87.1014 53.0939 86.2518 57.6793C85.846 59.8694 83.5046 61.5816 81.0604 61.5004V61.5023ZM155.905 91.6494C157.294 87.0602 158.557 82.4807 159.698 77.9089C160.243 75.7265 158.673 73.8963 156.231 73.8169C151.118 73.6505 146.003 73.4842 140.888 73.3178C138.445 73.2384 136.06 74.9391 135.523 77.1215C134.397 81.6913 133.147 86.2709 131.774 90.8581C131.118 93.0483 132.528 94.8921 134.965 94.9714C140.065 95.1378 145.164 95.3061 150.264 95.4725C152.699 95.5518 155.242 93.8396 155.905 91.6475V91.6494Z" fill="#39B54A"/>
<defs>
<linearGradient id="paint0_linear_569_3399" x1="19.9182" y1="69.6335" x2="250.334" y2="115.051" gradientUnits="userSpaceOnUse">
<stop stop-color="#A6BBBE"/>
<stop offset="0.06" stop-color="#ECFCFF"/>
<stop offset="0.09" stop-color="#DEEEF1"/>
<stop offset="0.17" stop-color="#BCCCCF"/>
<stop offset="0.25" stop-color="#A1B0B3"/>
<stop offset="0.35" stop-color="#8B9A9D"/>
<stop offset="0.45" stop-color="#7C8A8D"/>
<stop offset="0.57" stop-color="#738184"/>
<stop offset="0.74" stop-color="#717F82"/>
<stop offset="0.78" stop-color="#738285"/>
<stop offset="0.81" stop-color="#7C8B8E"/>
<stop offset="0.84" stop-color="#8A9C9E"/>
<stop offset="0.87" stop-color="#9EB3B5"/>
<stop offset="0.9" stop-color="#BED8D9"/>
<stop offset="1" stop-color="#A6BBBE"/>
</linearGradient>
<linearGradient id="paint1_linear_569_3399" x1="135.78" y1="14.6549" x2="125.966" y2="166.046" gradientUnits="userSpaceOnUse">
<stop stop-color="#F3F8FB"/>
<stop offset="0.03" stop-color="#DCEAED"/>
<stop offset="0.06" stop-color="#C4DFE0"/>
<stop offset="0.84" stop-color="#C1DADB"/>
<stop offset="0.9" stop-color="#E7F0F1"/>
<stop offset="0.95" stop-color="white"/>
<stop offset="1" stop-color="#A6BBBE"/>
</linearGradient>
<radialGradient id="paint2_radial_569_3399" cx="0" cy="0" r="1" gradientUnits="userSpaceOnUse" gradientTransform="translate(-104.364 9.04371) scale(345.69 345.617)">
<stop offset="0.41" stop-color="#F3F8FB"/>
<stop offset="0.47" stop-color="#DCEAED"/>
<stop offset="0.97" stop-color="#ECFCFF"/>
<stop offset="0.98" stop-color="#BED8D9"/>
<stop offset="1" stop-color="#A6BBBE"/>
</radialGradient>
<linearGradient id="paint3_linear_569_3399" x1="122.964" y1="11.2092" x2="118.148" y2="149.606" gradientUnits="userSpaceOnUse">
<stop stop-color="#F3F8FB"/>
<stop offset="0.03" stop-color="#DCEAED"/>
<stop offset="0.06" stop-color="#C4DFE0"/>
<stop offset="0.5" stop-color="#C1DADB"/>
<stop offset="0.75" stop-color="#E7F0F1"/>
<stop offset="0.94" stop-color="white"/>
<stop offset="1" stop-color="#A6BBBE"/>
</linearGradient>
<linearGradient id="paint4_linear_569_3399" x1="119.351" y1="35.7577" x2="116.751" y2="129.99" gradientUnits="userSpaceOnUse">
<stop offset="0.05" stop-color="#BED8D9"/>
<stop offset="0.09" stop-color="#B0C7CA"/>
<stop offset="0.13" stop-color="#A8BEC0"/>
<stop offset="0.18" stop-color="#A6BBBE"/>
<stop offset="0.21" stop-color="#A2B7BA"/>
<stop offset="0.25" stop-color="#99ACAF"/>
<stop offset="0.28" stop-color="#88999C"/>
<stop offset="0.3" stop-color="#728083"/>
<stop offset="0.31" stop-color="#717F82"/>
<stop offset="0.39" stop-color="#BED8D9"/>
<stop offset="0.42" stop-color="#B2CACC"/>
<stop offset="0.46" stop-color="#A9BEC1"/>
<stop offset="0.51" stop-color="#A6BBBE"/>
<stop offset="0.55" stop-color="#A3B8BB"/>
<stop offset="0.58" stop-color="#9CB0B3"/>
<stop offset="0.6" stop-color="#8FA1A4"/>
<stop offset="0.62" stop-color="#7D8D90"/>
<stop offset="0.63" stop-color="#717F82"/>
<stop offset="0.72" stop-color="#BED8D9"/>
<stop offset="0.74" stop-color="#B6CFD0"/>
<stop offset="0.8" stop-color="#AAC0C2"/>
<stop offset="0.84" stop-color="#A6BBBE"/>
<stop offset="0.89" stop-color="#A4B8BB"/>
<stop offset="0.91" stop-color="#9DB1B4"/>
<stop offset="0.93" stop-color="#91A3A6"/>
<stop offset="0.94" stop-color="#819194"/>
<stop offset="0.95" stop-color="#717F82"/>
</linearGradient>
<radialGradient id="paint5_radial_569_3399" cx="0" cy="0" r="1" gradientUnits="userSpaceOnUse" gradientTransform="translate(52.8213 8.67764) rotate(8.67821) scale(21.5166 21.5123)">
<stop offset="0.74" stop-color="#A6BBBE"/>
<stop offset="0.85" stop-color="#A6BBBE"/>
<stop offset="0.98" stop-color="#A6BBBE"/>
</radialGradient>
<radialGradient id="paint6_radial_569_3399" cx="0" cy="0" r="1" gradientUnits="userSpaceOnUse" gradientTransform="translate(91.2015 15.5286) scale(39.1893 39.1811)">
<stop offset="0.88" stop-color="#6945A9"/>
<stop offset="0.94" stop-color="#CF8AFF"/>
<stop offset="0.97" stop-color="#E8C7FC"/>
</radialGradient>
<radialGradient id="paint7_radial_569_3399" cx="0" cy="0" r="1" gradientUnits="userSpaceOnUse" gradientTransform="translate(69.8006 11.6472) scale(12.255 12.2525)">
<stop stop-color="#6125E5"/>
<stop offset="0.92" stop-color="#CF8AFF"/>
</radialGradient>
<radialGradient id="paint8_radial_569_3399" cx="0" cy="0" r="1" gradientUnits="userSpaceOnUse" gradientTransform="translate(90.9473 9.13324) rotate(8.67821) scale(21.5166 21.5123)">
<stop offset="0.74" stop-color="#A6BBBE"/>
<stop offset="0.85" stop-color="#A6BBBE"/>
<stop offset="0.98" stop-color="#A6BBBE"/>
</radialGradient>
<radialGradient id="paint9_radial_569_3399" cx="0" cy="0" r="1" gradientUnits="userSpaceOnUse" gradientTransform="translate(129.324 15.9935) scale(39.1893 39.1811)">
<stop offset="0.88" stop-color="#6945A9"/>
<stop offset="0.94" stop-color="#CF8AFF"/>
<stop offset="0.97" stop-color="#E8C7FC"/>
</radialGradient>
<radialGradient id="paint10_radial_569_3399" cx="0" cy="0" r="1" gradientUnits="userSpaceOnUse" gradientTransform="translate(107.923 12.1102) scale(12.255 12.2525)">
<stop stop-color="#6125E5"/>
<stop offset="0.92" stop-color="#CF8AFF"/>
</radialGradient>
<radialGradient id="paint11_radial_569_3399" cx="0" cy="0" r="1" gradientUnits="userSpaceOnUse" gradientTransform="translate(129.073 9.58689) rotate(8.6782) scale(21.5166 21.5123)">
<stop offset="0.74" stop-color="#A6BBBE"/>
<stop offset="0.85" stop-color="#A6BBBE"/>
<stop offset="0.98" stop-color="#A6BBBE"/>
</radialGradient>
<radialGradient id="paint12_radial_569_3399" cx="0" cy="0" r="1" gradientUnits="userSpaceOnUse" gradientTransform="translate(167.445 16.4583) scale(39.1893 39.1811)">
<stop offset="0.88" stop-color="#6945A9"/>
<stop offset="0.94" stop-color="#CF8AFF"/>
<stop offset="0.97" stop-color="#E8C7FC"/>
</radialGradient>
<radialGradient id="paint13_radial_569_3399" cx="0" cy="0" r="1" gradientUnits="userSpaceOnUse" gradientTransform="translate(146.044 12.575) scale(12.255 12.2525)">
<stop stop-color="#6125E5"/>
<stop offset="0.92" stop-color="#CF8AFF"/>
</radialGradient>
<radialGradient id="paint14_radial_569_3399" cx="0" cy="0" r="1" gradientUnits="userSpaceOnUse" gradientTransform="translate(167.2 10.1442) rotate(8.67821) scale(21.5166 21.5123)">
<stop offset="0.74" stop-color="#A6BBBE"/>
<stop offset="0.85" stop-color="#A6BBBE"/>
<stop offset="0.98" stop-color="#A6BBBE"/>
</radialGradient>
<radialGradient id="paint15_radial_569_3399" cx="0" cy="0" r="1" gradientUnits="userSpaceOnUse" gradientTransform="translate(205.567 17.0246) scale(39.1893 39.1811)">
<stop offset="0.88" stop-color="#6945A9"/>
<stop offset="0.94" stop-color="#CF8AFF"/>
<stop offset="0.97" stop-color="#E8C7FC"/>
</radialGradient>
<radialGradient id="paint16_radial_569_3399" cx="0" cy="0" r="1" gradientUnits="userSpaceOnUse" gradientTransform="translate(184.166 13.1432) scale(12.255 12.2525)">
<stop stop-color="#6125E5"/>
<stop offset="0.92" stop-color="#CF8AFF"/>
</radialGradient>
<radialGradient id="paint17_radial_569_3399" cx="0" cy="0" r="1" gradientUnits="userSpaceOnUse" gradientTransform="translate(205.324 10.7371) rotate(8.6782) scale(21.5166 21.5123)">
<stop offset="0.74" stop-color="#A6BBBE"/>
<stop offset="0.85" stop-color="#A6BBBE"/>
<stop offset="0.98" stop-color="#A6BBBE"/>
</radialGradient>
<radialGradient id="paint18_radial_569_3399" cx="0" cy="0" r="1" gradientUnits="userSpaceOnUse" gradientTransform="translate(243.686 17.6271) scale(39.1893 39.1811)">
<stop offset="0.88" stop-color="#6945A9"/>
<stop offset="0.94" stop-color="#CF8AFF"/>
<stop offset="0.97" stop-color="#E8C7FC"/>
</radialGradient>
<radialGradient id="paint19_radial_569_3399" cx="0" cy="0" r="1" gradientUnits="userSpaceOnUse" gradientTransform="translate(222.285 13.7438) scale(12.255 12.2525)">
<stop stop-color="#6125E5"/>
<stop offset="0.92" stop-color="#CF8AFF"/>
</radialGradient>
</defs>
</svg>
