<svg xmlns="http://www.w3.org/2000/svg" width="293" height="190" fill="none"><path fill="#2B2B2B" d="M286.101 170.277 66.376 158.102c-4-.211-7.718-3.27-8.308-6.833L46.226 23.651c-.602-3.59 2.072-6.52 5.973-6.544l205.159-.046c3.918.02 7.697 3.218 8.438 7.143l26.258 139.478c.73 3.896-1.935 6.847-5.951 6.595z"/><path fill="#5C5C5C" d="M221.268 189.695 7.145 175.978c-3.9-.238-6.324-3.685-5.414-7.699l41.9-143.794c.911-4.047 4.812-7.35 8.712-7.372l204.731-.052c3.9.023 6.325 3.627 5.415 8.048L229.98 182.267c-.912 4.391-4.812 7.716-8.712 7.432z"/><path fill="url(#a)" d="M210.196 170.277 18.304 158.389c-3.656-.207-5.93-3.193-5.074-6.672L43.697 27.093c.854-3.506 4.512-6.368 8.168-6.389l191.892-.046c3.657.02 5.929 3.143 5.074 6.974l-30.469 136.205c-.853 3.804-4.511 6.687-8.168 6.44z"/><path fill="url(#b)" d="m210.297 170.185-191.91-11.889c-3.656-.206-5.93-3.192-5.074-6.672l30.47-124.627c.853-3.507 4.512-6.368 8.168-6.39l191.91-.045c3.656.019 5.929 3.143 5.074 6.974l-30.472 136.208c-.854 3.805-4.512 6.688-8.168 6.441z"/><mask id="c" width="241" height="144" x="0" y="11" maskUnits="userSpaceOnUse" style="mask-type:luminance"><path fill="#fff" d="M201.741 154.246 6.875 145.183c-4.634-.323-7.443-5.265-5.348-9.41.165-.327.285-.564.346-.673 10.065-18.177 18.43-37.615 24.761-57.374 6.207-19.374 11.985-39.548 12.148-60.074.029-3.614 3.008-6.506 6.62-6.437l188.571 2.575c3.769.072 6.691 3.323 6.35 7.078-1.779 19.586-4.829 39.827-9.352 58.976-4.315 18.269-10.55 36.015-16.48 53.802-1.858 5.576-4.029 11.12-6.287 16.587a6.51 6.51 0 0 1-6.465 4.013z"/></mask><g mask="url(#c)"><path fill="url(#d)" d="M201.741 154.246 6.875 145.183c-4.634-.323-7.443-5.265-5.348-9.41.165-.327.285-.564.346-.673 10.065-18.177 18.43-37.615 24.761-57.374 6.207-19.374 11.985-39.548 12.148-60.074.029-3.614 3.008-6.506 6.62-6.437l188.571 2.575c3.769.072 6.691 3.323 6.35 7.078-1.779 19.586-4.829 39.827-9.352 58.976-4.315 18.269-10.55 36.015-16.48 53.802-1.858 5.576-4.029 11.12-6.287 16.587a6.51 6.51 0 0 1-6.465 4.013z"/><path fill="url(#e)" d="M201.741 154.246 6.875 145.183c-4.634-.323-7.443-5.265-5.348-9.41.165-.327.285-.564.346-.673 10.065-18.177 18.43-37.615 24.761-57.374 6.207-19.374 11.985-39.548 12.148-60.074.029-3.614 3.008-6.506 6.62-6.437l188.571 2.575c3.769.072 6.691 3.323 6.35 7.078-1.779 19.586-4.829 39.827-9.352 58.976-4.315 18.269-10.55 36.015-16.48 53.802-1.858 5.576-4.029 11.12-6.287 16.587a6.51 6.51 0 0 1-6.465 4.013z"/></g><path fill="url(#f)" d="m80.775 61.366-15.421-.498c-2.454-.079-4.088-1.91-3.688-4.086q1.26-6.836 2.146-13.64c.283-2.168 2.477-3.856 4.94-3.777l15.462.494c2.462.079 4.254 1.896 3.964 4.063a265 265 0 0 1-2.19 13.645c-.408 2.176-2.759 3.878-5.213 3.797zm44.362-2.534q1.314-6.84 2.257-13.65c.3-2.167-1.482-3.986-3.942-4.065l-15.462-.496c-2.461-.08-4.663 1.611-4.958 3.778a266 266 0 0 1-2.215 13.646c-.411 2.177 1.213 4.008 3.669 4.087q7.71.248 15.419.498c2.454.078 4.815-1.623 5.232-3.8zm39.142 1.263a267 267 0 0 0 2.326-13.656c.311-2.169-1.462-3.988-3.922-4.067l-15.459-.496c-2.462-.079-4.671 1.612-4.977 3.78a263 263 0 0 1-2.284 13.653c-.423 2.177 1.194 4.009 3.648 4.088l15.417.498c2.452.079 4.822-1.623 5.251-3.802zm39.136 1.266a267 267 0 0 0 2.394-13.66c.324-2.17-1.442-3.99-3.902-4.07l-15.457-.495c-2.462-.08-4.679 1.613-4.996 3.782a265 265 0 0 1-2.353 13.658c-.432 2.177 1.172 4.01 3.627 4.088q7.706.249 15.413.498c2.452.079 4.83-1.623 5.27-3.802zM72.282 92.599l-15.367-.498c-2.447-.079-3.881-1.91-3.246-4.086a283 283 0 0 0 3.626-13.64c.519-2.168 2.895-3.856 5.349-3.777l15.41.494c2.451.079 4.047 1.896 3.52 4.063a281 281 0 0 1-3.67 13.645c-.643 2.176-3.18 3.878-5.626 3.797zm44.637-2.534a284 284 0 0 0 3.74-13.65c.536-2.168-1.05-3.987-3.502-4.065l-15.408-.496c-2.454-.08-4.837 1.61-5.367 3.778a284 284 0 0 1-3.696 13.646c-.646 2.177.779 4.008 3.225 4.087q7.683.248 15.366.498c2.444.078 4.99-1.623 5.644-3.8zm39.004 1.263a285 285 0 0 0 3.809-13.656c.547-2.169-1.029-3.988-3.481-4.067l-15.406-.496c-2.452-.079-4.847 1.612-5.387 3.78a284 284 0 0 1-3.764 13.653c-.658 2.176.757 4.009 3.204 4.088l15.362.498c2.444.079 4.998-1.623 5.663-3.802zm39.001 1.265a287 287 0 0 0 3.877-13.66c.558-2.169-1.008-3.99-3.46-4.068l-15.402-.496c-2.453-.08-4.855 1.613-5.406 3.782a283 283 0 0 1-3.835 13.658c-.67 2.177.738 4.009 3.183 4.088l15.36.498c2.444.079 5.005-1.623 5.683-3.802M60.954 123.33l-15.315-.498c-2.44-.079-3.682-1.909-2.822-4.086a310 310 0 0 0 5.046-13.641c.744-2.167 3.296-3.855 5.74-3.776q7.681.249 15.359.494c2.444.079 3.85 1.896 3.1 4.063a310 310 0 0 1-5.088 13.645c-.87 2.176-3.583 3.878-6.02 3.797zm44.902-2.534a316 316 0 0 0 5.159-13.65c.761-2.168-.635-3.987-3.08-4.065l-15.356-.496c-2.445-.079-5.006 1.611-5.76 3.778a311 311 0 0 1-5.114 13.646c-.873 2.177.361 4.008 2.8 4.086q7.657.25 15.314.498c2.437.079 5.159-1.622 6.039-3.799zm38.872 1.263a312 312 0 0 0 5.227-13.656c.773-2.169-.614-3.988-3.058-4.067l-15.354-.496c-2.445-.079-5.014 1.611-5.779 3.78a312 312 0 0 1-5.183 13.653c-.884 2.176.342 4.009 2.779 4.088l15.31.498c2.437.079 5.166-1.623 6.058-3.802zm38.868 1.265a313 313 0 0 0 5.297-13.66c.784-2.169-.595-3.989-3.038-4.068l-15.35-.496c-2.445-.079-5.023 1.613-5.8 3.782a314 314 0 0 1-5.254 13.658c-.896 2.177.321 4.009 2.758 4.088q7.654.249 15.308.498c2.435.079 5.174-1.623 6.077-3.802z"/><path fill="url(#g)" d="M66.71 14.146c.544-.787 1.01-1.636 1.533-2.491.196-.32.393-.641.515-.995.073-.212.12-.438.247-.625.335-.502 1.056-.519 1.655-.454 2.39.257 3.077 1.596 2.98 3.874-.164 3.95-1.712 7.747-4.532 10.502-2.252 2.198-5.036 3.376-8.19 3.342-.596-.006-1.206-.055-1.748-.298-1.089-.488-1.726-1.72-1.726-2.912 0-4.296 4.69-5.857 7.464-7.983.74-.568 1.307-1.236 1.808-1.959z"/><path fill="url(#h)" d="M73.321 10.151a26 26 0 0 0-.463-1.815 20 20 0 0 0-1.242-3.23c-.855-1.711-2.056-3.353-3.754-4.303a6.47 6.47 0 0 0-3.52-.792c-4.701.27-7.646 4.981-8.547 11.344a32 32 0 0 0-.27 5.779c.07 1.738.289 3.472.677 5.168.47 2.064 1.17 5.818 4.116 5.267 1.74-.325 1.772-2.525 1.154-3.832-.532-1.128-1.202-2.005-1.475-3.254-.251-1.157-.293-2.355-.25-3.539.072-1.838.27-3.768.623-5.528.702-3.547 2.015-6.405 4.11-6.468 1.35-.04 2.227.968 2.732 2.116.329.74.536 1.534.694 2.326.134.658.14 1.339.293 1.993q.017.073.037.14l5.447.075c0-.463-.281-1.083-.362-1.45z"/><path fill="url(#i)" d="M73.321 10.151a26 26 0 0 0-.463-1.815 20 20 0 0 0-1.242-3.23c-.855-1.711-2.056-3.353-3.754-4.303a6.47 6.47 0 0 0-3.52-.792c-4.701.27-7.646 4.981-8.547 11.344a32 32 0 0 0-.27 5.779c.07 1.738.289 3.472.677 5.168.47 2.064 1.17 5.818 4.116 5.267 1.74-.325 1.772-2.525 1.154-3.832-.532-1.128-1.202-2.005-1.475-3.254-.251-1.157-.293-2.355-.25-3.539.072-1.838.27-3.768.623-5.528.702-3.547 2.015-6.405 4.11-6.468 1.35-.04 2.227.968 2.732 2.116.329.74.536 1.534.694 2.326.134.658.14 1.339.293 1.993q.017.073.037.14l5.447.075c0-.463-.281-1.083-.362-1.45z"/><path fill="#A6BBBE" d="M73.321 10.151a26 26 0 0 0-.463-1.815 20 20 0 0 0-1.242-3.23c-.855-1.711-2.056-3.353-3.754-4.303a6.47 6.47 0 0 0-3.52-.792c-4.701.27-7.646 4.981-8.547 11.344a32 32 0 0 0-.27 5.779c.07 1.738.289 3.472.677 5.168.47 2.064 1.17 5.818 4.116 5.267 1.74-.325 1.772-2.525 1.154-3.832-.532-1.128-1.202-2.005-1.475-3.254-.251-1.157-.293-2.355-.25-3.539.072-1.838.27-3.768.623-5.528.702-3.547 2.015-6.405 4.11-6.468 1.35-.04 2.227.968 2.732 2.116.329.74.536 1.534.694 2.326.134.658.14 1.339.293 1.993q.017.073.037.14l5.447.075c0-.463-.281-1.083-.362-1.45z"/><path fill="url(#j)" d="M104.833 14.61c.543-.786 1.008-1.635 1.532-2.49.196-.32.393-.641.515-.995.073-.212.121-.438.247-.626.335-.5 1.056-.518 1.655-.453 2.39.256 3.077 1.596 2.981 3.874-.165 3.95-1.712 7.747-4.533 10.502-2.252 2.198-5.036 3.376-8.19 3.342-.596-.006-1.206-.056-1.748-.299-1.088-.487-1.726-1.72-1.726-2.911 0-4.297 4.69-5.857 7.464-7.983.741-.568 1.307-1.236 1.809-1.959z"/><path fill="url(#k)" d="M111.441 10.616a26 26 0 0 0-.463-1.815 20 20 0 0 0-1.241-3.23c-.856-1.711-2.057-3.353-3.754-4.303a6.47 6.47 0 0 0-3.521-.792c-4.701.27-7.646 4.98-8.547 11.343a32 32 0 0 0-.27 5.78c.071 1.738.29 3.471.678 5.168.468 2.064 1.169 5.817 4.115 5.267 1.739-.326 1.772-2.525 1.154-3.832-.532-1.129-1.202-2.005-1.475-3.254-.25-1.157-.293-2.355-.249-3.539.07-1.838.27-3.768.622-5.528.702-3.547 2.015-6.405 4.11-6.468 1.351-.04 2.227.968 2.732 2.116.329.74.536 1.534.695 2.326.133.658.139 1.339.292 1.993q.017.073.037.14l5.447.074c0-.463-.281-1.082-.362-1.45z"/><path fill="url(#l)" d="M111.441 10.616a26 26 0 0 0-.463-1.815 20 20 0 0 0-1.241-3.23c-.856-1.711-2.057-3.353-3.754-4.303a6.47 6.47 0 0 0-3.521-.792c-4.701.27-7.646 4.98-8.547 11.343a32 32 0 0 0-.27 5.78c.071 1.738.29 3.471.678 5.168.468 2.064 1.169 5.817 4.115 5.267 1.739-.326 1.772-2.525 1.154-3.832-.532-1.129-1.202-2.005-1.475-3.254-.25-1.157-.293-2.355-.249-3.539.07-1.838.27-3.768.622-5.528.702-3.547 2.015-6.405 4.11-6.468 1.351-.04 2.227.968 2.732 2.116.329.74.536 1.534.695 2.326.133.658.139 1.339.292 1.993q.017.073.037.14l5.447.074c0-.463-.281-1.082-.362-1.45z"/><path fill="#A6BBBE" d="M111.441 10.616a26 26 0 0 0-.463-1.815 20 20 0 0 0-1.241-3.23c-.856-1.711-2.057-3.353-3.754-4.303a6.47 6.47 0 0 0-3.521-.792c-4.701.27-7.646 4.98-8.547 11.343a32 32 0 0 0-.27 5.78c.071 1.738.29 3.471.678 5.168.468 2.064 1.169 5.817 4.115 5.267 1.739-.326 1.772-2.525 1.154-3.832-.532-1.129-1.202-2.005-1.475-3.254-.25-1.157-.293-2.355-.249-3.539.07-1.838.27-3.768.622-5.528.702-3.547 2.015-6.405 4.11-6.468 1.351-.04 2.227.968 2.732 2.116.329.74.536 1.534.695 2.326.133.658.139 1.339.292 1.993q.017.073.037.14l5.447.074c0-.463-.281-1.082-.362-1.45z"/><path fill="url(#m)" d="M142.954 15.075c.543-.786 1.008-1.635 1.532-2.49.196-.32.393-.641.515-.995.073-.213.121-.438.247-.626.335-.5 1.056-.518 1.655-.453 2.39.256 3.077 1.595 2.981 3.874-.164 3.948-1.712 7.747-4.533 10.502-2.252 2.198-5.036 3.376-8.191 3.342-.595-.006-1.205-.056-1.747-.299-1.088-.488-1.725-1.72-1.725-2.911 0-4.297 4.689-5.858 7.464-7.983.74-.568 1.306-1.236 1.808-1.959z"/><path fill="url(#n)" d="M149.562 11.081a26 26 0 0 0-.463-1.815 20 20 0 0 0-1.241-3.23c-.856-1.712-2.057-3.353-3.754-4.304a6.47 6.47 0 0 0-3.521-.792c-4.701.27-7.646 4.982-8.547 11.344a32 32 0 0 0-.27 5.78 28.3 28.3 0 0 0 .678 5.168c.468 2.064 1.169 5.817 4.115 5.267 1.739-.326 1.772-2.526 1.154-3.832-.532-1.129-1.202-2.005-1.475-3.254-.251-1.157-.293-2.355-.249-3.54.071-1.837.27-3.768.622-5.528.702-3.546 2.015-6.404 4.11-6.467 1.351-.04 2.227.968 2.732 2.116.329.74.536 1.534.695 2.326.134.658.139 1.339.292 1.993q.017.073.037.14l5.447.074c0-.463-.281-1.082-.362-1.45z"/><path fill="url(#o)" d="M149.562 11.081a26 26 0 0 0-.463-1.815 20 20 0 0 0-1.241-3.23c-.856-1.712-2.057-3.353-3.754-4.304a6.47 6.47 0 0 0-3.521-.792c-4.701.27-7.646 4.982-8.547 11.344a32 32 0 0 0-.27 5.78 28.3 28.3 0 0 0 .678 5.168c.468 2.064 1.169 5.817 4.115 5.267 1.739-.326 1.772-2.526 1.154-3.832-.532-1.129-1.202-2.005-1.475-3.254-.251-1.157-.293-2.355-.249-3.54.071-1.837.27-3.768.622-5.528.702-3.546 2.015-6.404 4.11-6.467 1.351-.04 2.227.968 2.732 2.116.329.74.536 1.534.695 2.326.134.658.139 1.339.292 1.993q.017.073.037.14l5.447.074c0-.463-.281-1.082-.362-1.45z"/><path fill="#A6BBBE" d="M149.562 11.081a26 26 0 0 0-.463-1.815 20 20 0 0 0-1.241-3.23c-.856-1.712-2.057-3.353-3.754-4.304a6.47 6.47 0 0 0-3.521-.792c-4.701.27-7.646 4.982-8.547 11.344a32 32 0 0 0-.27 5.78 28.3 28.3 0 0 0 .678 5.168c.468 2.064 1.169 5.817 4.115 5.267 1.739-.326 1.772-2.526 1.154-3.832-.532-1.129-1.202-2.005-1.475-3.254-.251-1.157-.293-2.355-.249-3.54.071-1.837.27-3.768.622-5.528.702-3.546 2.015-6.404 4.11-6.467 1.351-.04 2.227.968 2.732 2.116.329.74.536 1.534.695 2.326.134.658.139 1.339.292 1.993q.017.073.037.14l5.447.074c0-.463-.281-1.082-.362-1.45z"/><path fill="url(#p)" d="M181.075 15.642c.543-.787 1.008-1.636 1.533-2.491.195-.32.392-.641.514-.995.073-.212.121-.438.247-.625.335-.502 1.056-.519 1.655-.454 2.39.257 3.077 1.596 2.981 3.874-.164 3.95-1.712 7.747-4.533 10.502-2.252 2.198-5.036 3.376-8.191 3.342-.595-.008-1.205-.056-1.747-.298-1.088-.488-1.725-1.72-1.725-2.912 0-4.297 4.689-5.857 7.464-7.983.74-.568 1.306-1.236 1.808-1.959z"/><path fill="url(#q)" d="M187.684 11.647a25 25 0 0 0-.463-1.815 20 20 0 0 0-1.241-3.23c-.856-1.711-2.057-3.353-3.754-4.303a6.47 6.47 0 0 0-3.521-.792c-4.701.27-7.646 4.981-8.547 11.344a32 32 0 0 0-.27 5.779c.071 1.738.289 3.472.678 5.168.468 2.064 1.169 5.818 4.115 5.267 1.74-.326 1.772-2.525 1.154-3.832-.532-1.129-1.202-2.005-1.475-3.254-.251-1.157-.293-2.355-.249-3.539.071-1.838.27-3.768.622-5.528.702-3.547 2.015-6.405 4.11-6.468 1.351-.04 2.227.968 2.732 2.116.329.74.536 1.534.695 2.326.134.658.139 1.339.292 1.993q.017.073.037.14l5.447.075c0-.463-.281-1.083-.362-1.45z"/><path fill="url(#r)" d="M187.684 11.647a25 25 0 0 0-.463-1.815 20 20 0 0 0-1.241-3.23c-.856-1.711-2.057-3.353-3.754-4.303a6.47 6.47 0 0 0-3.521-.792c-4.701.27-7.646 4.981-8.547 11.344a32 32 0 0 0-.27 5.779c.071 1.738.289 3.472.678 5.168.468 2.064 1.169 5.818 4.115 5.267 1.74-.326 1.772-2.525 1.154-3.832-.532-1.129-1.202-2.005-1.475-3.254-.251-1.157-.293-2.355-.249-3.539.071-1.838.27-3.768.622-5.528.702-3.547 2.015-6.405 4.11-6.468 1.351-.04 2.227.968 2.732 2.116.329.74.536 1.534.695 2.326.134.658.139 1.339.292 1.993q.017.073.037.14l5.447.075c0-.463-.281-1.083-.362-1.45z"/><path fill="#A6BBBE" d="M187.684 11.647a25 25 0 0 0-.463-1.815 20 20 0 0 0-1.241-3.23c-.856-1.711-2.057-3.353-3.754-4.303a6.47 6.47 0 0 0-3.521-.792c-4.701.27-7.646 4.981-8.547 11.344a32 32 0 0 0-.27 5.779c.071 1.738.289 3.472.678 5.168.468 2.064 1.169 5.818 4.115 5.267 1.74-.326 1.772-2.525 1.154-3.832-.532-1.129-1.202-2.005-1.475-3.254-.251-1.157-.293-2.355-.249-3.539.071-1.838.27-3.768.622-5.528.702-3.547 2.015-6.405 4.11-6.468 1.351-.04 2.227.968 2.732 2.116.329.74.536 1.534.695 2.326.134.658.139 1.339.292 1.993q.017.073.037.14l5.447.075c0-.463-.281-1.083-.362-1.45z"/><path fill="url(#s)" d="M219.196 16.244c.543-.786 1.008-1.636 1.533-2.49.195-.32.392-.641.514-.995.073-.213.121-.438.247-.626.335-.501 1.056-.518 1.655-.453 2.39.256 3.077 1.595 2.981 3.874-.164 3.95-1.712 7.747-4.533 10.502-2.252 2.198-5.035 3.376-8.191 3.342-.595-.006-1.205-.056-1.746-.299-1.089-.488-1.726-1.72-1.726-2.911 0-4.297 4.689-5.858 7.464-7.983.74-.568 1.307-1.236 1.808-1.959z"/><path fill="url(#t)" d="M225.806 12.25a26 26 0 0 0-.463-1.816 20 20 0 0 0-1.242-3.229c-.856-1.712-2.057-3.353-3.754-4.304a6.47 6.47 0 0 0-3.521-.792c-4.701.27-7.646 4.982-8.547 11.344a32 32 0 0 0-.27 5.78 28.3 28.3 0 0 0 .678 5.168c.469 2.064 1.169 5.817 4.115 5.266 1.74-.325 1.772-2.525 1.154-3.831-.532-1.129-1.201-2.005-1.475-3.254-.251-1.158-.293-2.355-.249-3.54.071-1.838.27-3.768.622-5.528.702-3.546 2.015-6.404 4.11-6.467 1.351-.04 2.227.968 2.732 2.115.329.74.536 1.534.695 2.326.134.659.139 1.34.293 1.994q.016.072.036.14l5.447.074c0-.463-.281-1.083-.361-1.45z"/><path fill="url(#u)" d="M225.806 12.25a26 26 0 0 0-.463-1.816 20 20 0 0 0-1.242-3.229c-.856-1.712-2.057-3.353-3.754-4.304a6.47 6.47 0 0 0-3.521-.792c-4.701.27-7.646 4.982-8.547 11.344a32 32 0 0 0-.27 5.78 28.3 28.3 0 0 0 .678 5.168c.469 2.064 1.169 5.817 4.115 5.266 1.74-.325 1.772-2.525 1.154-3.831-.532-1.129-1.201-2.005-1.475-3.254-.251-1.158-.293-2.355-.249-3.54.071-1.838.27-3.768.622-5.528.702-3.546 2.015-6.404 4.11-6.467 1.351-.04 2.227.968 2.732 2.115.329.74.536 1.534.695 2.326.134.659.139 1.34.293 1.994q.016.072.036.14l5.447.074c0-.463-.281-1.083-.361-1.45z"/><path fill="#A6BBBE" d="M225.806 12.25a26 26 0 0 0-.463-1.816 20 20 0 0 0-1.242-3.229c-.856-1.712-2.057-3.353-3.754-4.304a6.47 6.47 0 0 0-3.521-.792c-4.701.27-7.646 4.982-8.547 11.344a32 32 0 0 0-.27 5.78 28.3 28.3 0 0 0 .678 5.168c.469 2.064 1.169 5.817 4.115 5.266 1.74-.325 1.772-2.525 1.154-3.831-.532-1.129-1.201-2.005-1.475-3.254-.251-1.158-.293-2.355-.249-3.54.071-1.838.27-3.768.622-5.528.702-3.546 2.015-6.404 4.11-6.467 1.351-.04 2.227.968 2.732 2.115.329.74.536 1.534.695 2.326.134.659.139 1.34.293 1.994q.016.072.036.14l5.447.074c0-.463-.281-1.083-.361-1.45z"/><path fill="#39B54A" d="m81.06 61.502-15.358-.5c-2.445-.08-4.072-1.922-3.673-4.112a267 267 0 0 0 2.137-13.725c.282-2.18 2.467-3.88 4.92-3.8q7.7.25 15.4.497c2.452.08 4.237 1.908 3.947 4.088a269 269 0 0 1-2.181 13.73c-.406 2.19-2.747 3.902-5.192 3.82zm74.845 30.147a289 289 0 0 0 3.793-13.74c.545-2.183-1.025-4.013-3.467-4.092l-15.343-.5c-2.443-.079-4.828 1.622-5.365 3.805a289 289 0 0 1-3.749 13.736c-.656 2.19.754 4.034 3.191 4.113q7.65.251 15.299.501c2.435.08 4.978-1.632 5.641-3.825z"/><defs><radialGradient id="d" cx="0" cy="0" r="1" gradientTransform="matrix(345.69 0 0 345.617 -104.364 9.044)" gradientUnits="userSpaceOnUse"><stop offset=".41" stop-color="#F3F8FB"/><stop offset=".47" stop-color="#DCEAED"/><stop offset=".97" stop-color="#ECFCFF"/><stop offset=".98" stop-color="#BED8D9"/><stop offset="1" stop-color="#A6BBBE"/></radialGradient><radialGradient id="g" cx="0" cy="0" r="1" gradientTransform="matrix(21.27026 3.24653 -3.24588 21.26601 52.821 8.678)" gradientUnits="userSpaceOnUse"><stop offset=".74" stop-color="#A6BBBE"/><stop offset=".85" stop-color="#A6BBBE"/><stop offset=".98" stop-color="#A6BBBE"/></radialGradient><radialGradient id="h" cx="0" cy="0" r="1" gradientTransform="matrix(39.1893 0 0 39.1811 91.201 15.529)" gradientUnits="userSpaceOnUse"><stop offset=".88" stop-color="#6945A9"/><stop offset=".94" stop-color="#CF8AFF"/><stop offset=".97" stop-color="#E8C7FC"/></radialGradient><radialGradient id="i" cx="0" cy="0" r="1" gradientTransform="matrix(12.255 0 0 12.2525 69.8 11.647)" gradientUnits="userSpaceOnUse"><stop stop-color="#6125E5"/><stop offset=".92" stop-color="#CF8AFF"/></radialGradient><radialGradient id="j" cx="0" cy="0" r="1" gradientTransform="matrix(21.27026 3.24653 -3.24588 21.26601 90.947 9.133)" gradientUnits="userSpaceOnUse"><stop offset=".74" stop-color="#A6BBBE"/><stop offset=".85" stop-color="#A6BBBE"/><stop offset=".98" stop-color="#A6BBBE"/></radialGradient><radialGradient id="k" cx="0" cy="0" r="1" gradientTransform="matrix(39.1893 0 0 39.1811 129.324 15.993)" gradientUnits="userSpaceOnUse"><stop offset=".88" stop-color="#6945A9"/><stop offset=".94" stop-color="#CF8AFF"/><stop offset=".97" stop-color="#E8C7FC"/></radialGradient><radialGradient id="l" cx="0" cy="0" r="1" gradientTransform="matrix(12.255 0 0 12.2525 107.923 12.11)" gradientUnits="userSpaceOnUse"><stop stop-color="#6125E5"/><stop offset=".92" stop-color="#CF8AFF"/></radialGradient><radialGradient id="m" cx="0" cy="0" r="1" gradientTransform="rotate(8.678 1.362 855.338)scale(21.5166 21.5123)" gradientUnits="userSpaceOnUse"><stop offset=".74" stop-color="#A6BBBE"/><stop offset=".85" stop-color="#A6BBBE"/><stop offset=".98" stop-color="#A6BBBE"/></radialGradient><radialGradient id="n" cx="0" cy="0" r="1" gradientTransform="matrix(39.1893 0 0 39.1811 167.445 16.458)" gradientUnits="userSpaceOnUse"><stop offset=".88" stop-color="#6945A9"/><stop offset=".94" stop-color="#CF8AFF"/><stop offset=".97" stop-color="#E8C7FC"/></radialGradient><radialGradient id="o" cx="0" cy="0" r="1" gradientTransform="matrix(12.255 0 0 12.2525 146.044 12.575)" gradientUnits="userSpaceOnUse"><stop stop-color="#6125E5"/><stop offset=".92" stop-color="#CF8AFF"/></radialGradient><radialGradient id="p" cx="0" cy="0" r="1" gradientTransform="matrix(21.27026 3.24653 -3.24588 21.26601 167.2 10.144)" gradientUnits="userSpaceOnUse"><stop offset=".74" stop-color="#A6BBBE"/><stop offset=".85" stop-color="#A6BBBE"/><stop offset=".98" stop-color="#A6BBBE"/></radialGradient><radialGradient id="q" cx="0" cy="0" r="1" gradientTransform="matrix(39.1893 0 0 39.1811 205.567 17.025)" gradientUnits="userSpaceOnUse"><stop offset=".88" stop-color="#6945A9"/><stop offset=".94" stop-color="#CF8AFF"/><stop offset=".97" stop-color="#E8C7FC"/></radialGradient><radialGradient id="r" cx="0" cy="0" r="1" gradientTransform="matrix(12.255 0 0 12.2525 184.166 13.143)" gradientUnits="userSpaceOnUse"><stop stop-color="#6125E5"/><stop offset=".92" stop-color="#CF8AFF"/></radialGradient><radialGradient id="s" cx="0" cy="0" r="1" gradientTransform="rotate(8.678 31.908 1358.38)scale(21.5166 21.5123)" gradientUnits="userSpaceOnUse"><stop offset=".74" stop-color="#A6BBBE"/><stop offset=".85" stop-color="#A6BBBE"/><stop offset=".98" stop-color="#A6BBBE"/></radialGradient><radialGradient id="t" cx="0" cy="0" r="1" gradientTransform="matrix(39.1893 0 0 39.1811 243.686 17.627)" gradientUnits="userSpaceOnUse"><stop offset=".88" stop-color="#6945A9"/><stop offset=".94" stop-color="#CF8AFF"/><stop offset=".97" stop-color="#E8C7FC"/></radialGradient><radialGradient id="u" cx="0" cy="0" r="1" gradientTransform="matrix(12.255 0 0 12.2525 222.285 13.744)" gradientUnits="userSpaceOnUse"><stop stop-color="#6125E5"/><stop offset=".92" stop-color="#CF8AFF"/></radialGradient><linearGradient id="a" x1="19.918" x2="250.334" y1="69.633" y2="115.051" gradientUnits="userSpaceOnUse"><stop stop-color="#A6BBBE"/><stop offset=".06" stop-color="#ECFCFF"/><stop offset=".09" stop-color="#DEEEF1"/><stop offset=".17" stop-color="#BCCCCF"/><stop offset=".25" stop-color="#A1B0B3"/><stop offset=".35" stop-color="#8B9A9D"/><stop offset=".45" stop-color="#7C8A8D"/><stop offset=".57" stop-color="#738184"/><stop offset=".74" stop-color="#717F82"/><stop offset=".78" stop-color="#738285"/><stop offset=".81" stop-color="#7C8B8E"/><stop offset=".84" stop-color="#8A9C9E"/><stop offset=".87" stop-color="#9EB3B5"/><stop offset=".9" stop-color="#BED8D9"/><stop offset="1" stop-color="#A6BBBE"/></linearGradient><linearGradient id="b" x1="135.78" x2="125.966" y1="14.655" y2="166.046" gradientUnits="userSpaceOnUse"><stop stop-color="#F3F8FB"/><stop offset=".03" stop-color="#DCEAED"/><stop offset=".06" stop-color="#C4DFE0"/><stop offset=".84" stop-color="#C1DADB"/><stop offset=".9" stop-color="#E7F0F1"/><stop offset=".95" stop-color="#fff"/><stop offset="1" stop-color="#A6BBBE"/></linearGradient><linearGradient id="e" x1="122.964" x2="118.148" y1="11.209" y2="149.606" gradientUnits="userSpaceOnUse"><stop stop-color="#F3F8FB"/><stop offset=".03" stop-color="#DCEAED"/><stop offset=".06" stop-color="#C4DFE0"/><stop offset=".5" stop-color="#C1DADB"/><stop offset=".75" stop-color="#E7F0F1"/><stop offset=".94" stop-color="#fff"/><stop offset="1" stop-color="#A6BBBE"/></linearGradient><linearGradient id="f" x1="119.351" x2="116.751" y1="35.758" y2="129.99" gradientUnits="userSpaceOnUse"><stop offset=".05" stop-color="#BED8D9"/><stop offset=".09" stop-color="#B0C7CA"/><stop offset=".13" stop-color="#A8BEC0"/><stop offset=".18" stop-color="#A6BBBE"/><stop offset=".21" stop-color="#A2B7BA"/><stop offset=".25" stop-color="#99ACAF"/><stop offset=".28" stop-color="#88999C"/><stop offset=".3" stop-color="#728083"/><stop offset=".31" stop-color="#717F82"/><stop offset=".39" stop-color="#BED8D9"/><stop offset=".42" stop-color="#B2CACC"/><stop offset=".46" stop-color="#A9BEC1"/><stop offset=".51" stop-color="#A6BBBE"/><stop offset=".55" stop-color="#A3B8BB"/><stop offset=".58" stop-color="#9CB0B3"/><stop offset=".6" stop-color="#8FA1A4"/><stop offset=".62" stop-color="#7D8D90"/><stop offset=".63" stop-color="#717F82"/><stop offset=".72" stop-color="#BED8D9"/><stop offset=".74" stop-color="#B6CFD0"/><stop offset=".8" stop-color="#AAC0C2"/><stop offset=".84" stop-color="#A6BBBE"/><stop offset=".89" stop-color="#A4B8BB"/><stop offset=".91" stop-color="#9DB1B4"/><stop offset=".93" stop-color="#91A3A6"/><stop offset=".94" stop-color="#819194"/><stop offset=".95" stop-color="#717F82"/></linearGradient></defs></svg>