<svg width="44" height="46" viewBox="0 0 44 46" fill="none" xmlns="http://www.w3.org/2000/svg">
<path opacity="0.2" d="M0 10C0 4.47715 4.47715 0 10 0L34 0C39.5228 0 44 4.47715 44 10V36C44 41.5228 39.5228 46 34 46H10C4.47715 46 0 41.5228 0 36L0 10Z" fill="#FA7CA1" fill-opacity="0.6"/>
<path d="M22.0001 28.3501C22.9003 28.3501 23.6301 27.6203 23.6301 26.7201C23.6301 25.8199 22.9003 25.0901 22.0001 25.0901C21.0999 25.0901 20.3701 25.8199 20.3701 26.7201C20.3701 27.6203 21.0999 28.3501 22.0001 28.3501Z" fill="white"/>
<path d="M28.28 20.53V19.28C28.28 16.58 27.63 13 22 13C16.37 13 15.72 16.58 15.72 19.28V20.53C12.92 20.88 12 22.3 12 25.79V27.65C12 31.75 13.25 33 17.35 33H26.65C30.75 33 32 31.75 32 27.65V25.79C32 22.3 31.08 20.88 28.28 20.53ZM22 29.74C20.33 29.74 18.98 28.38 18.98 26.72C18.98 25.05 20.34 23.7 22 23.7C23.66 23.7 25.02 25.06 25.02 26.72C25.02 28.39 23.67 29.74 22 29.74ZM17.35 20.44C17.27 20.44 17.2 20.44 17.12 20.44V19.28C17.12 16.35 17.95 14.4 22 14.4C26.05 14.4 26.88 16.35 26.88 19.28V20.45C26.8 20.45 26.73 20.45 26.65 20.45H17.35V20.44Z" fill="white"/>
</svg>
