<svg width="28" height="28" viewBox="0 0 28 28" fill="none" xmlns="http://www.w3.org/2000/svg">
<path fill-rule="evenodd" clip-rule="evenodd" d="M13.7 2.25999C10.53 2.25999 7.67 3.53 5.59 5.61C3.52 7.69 2.24002 10.52 2.24002 13.71C2.24002 16.9 3.52 19.73 5.59 21.81C7.67 23.89 10.52 25.13 13.7 25.13C16.88 25.13 19.73 23.88 21.8 21.81C23.88 19.73 25.12 16.88 25.12 13.71C25.12 10.54 23.88 7.69 21.8 5.61C19.72 3.53 16.87 2.25999 13.7 2.25999ZM13.86 16.67C14.46 16.67 14.98 17.16 14.98 17.76C14.98 18.39 14.46 18.88 13.86 18.88C13.29 18.88 12.8 18.39 12.8 17.76C12.8 17.13 13.29 16.67 13.86 16.67ZM13.81 16.07C13.55 16.07 13.23 15.94 13.05 15.73C12.85 15.55 12.74 15.24 12.74 14.93V8.09999C12.74 7.75999 12.84 7.47999 13.05 7.28999C13.24 7.05999 13.55 6.95 13.81 6.95C14.14 6.95 14.43 7.04999 14.63 7.28999C14.84 7.47999 14.97 7.75999 14.97 8.09999V14.93C14.97 15.24 14.84 15.55 14.63 15.73C14.42 15.94 14.14 16.07 13.81 16.07ZM13.7 27.41C9.93001 27.41 6.51002 25.88 4.02002 23.39C1.53002 20.93 0 17.5 0 13.71C0 9.91999 1.53002 6.52 4.02002 4.03C6.51002 1.54 9.93001 0 13.7 0C17.47 0 20.91 1.54 23.38 4.03C25.87 6.52 27.4 9.94999 27.4 13.71C27.4 17.47 25.87 20.93 23.38 23.39C20.92 25.88 17.49 27.41 13.7 27.41Z" fill="white"/>
</svg>
