<svg width="44" height="46" viewBox="0 0 44 46" fill="none" xmlns="http://www.w3.org/2000/svg">
<path opacity="0.2" d="M0 10C0 4.47715 4.47715 0 10 0L34 0C39.5228 0 44 4.47715 44 10V36C44 41.5228 39.5228 46 34 46H10C4.47715 46 0 41.5228 0 36L0 10Z" fill="#FA7CA1" fill-opacity="0.6"/>
<path d="M31.5297 26.9301C31.3697 26.6601 30.9197 26.2401 29.7997 26.4401C29.1797 26.5501 28.5497 26.6001 27.9197 26.5701C25.5897 26.4701 23.4797 25.4001 22.0097 23.7501C20.7097 22.3001 19.9097 20.4101 19.8997 18.3701C19.8997 17.2301 20.1197 16.1301 20.5697 15.0901C21.0097 14.0801 20.6997 13.5501 20.4797 13.3301C20.2497 13.1001 19.7097 12.7801 18.6497 13.2201C14.5597 14.9401 12.0297 19.0401 12.3297 23.4301C12.6297 27.5601 15.5297 31.0901 19.3697 32.4201C20.2897 32.7401 21.2597 32.9301 22.2597 32.9701C22.4197 32.9801 22.5797 32.9901 22.7397 32.9901C26.0897 32.9901 29.2297 31.4101 31.2097 28.7201C31.8797 27.7901 31.6997 27.2001 31.5297 26.9301Z" fill="white"/>
</svg>
