<svg width="8" height="10" viewBox="0 0 8 10" fill="none" xmlns="http://www.w3.org/2000/svg">
<path d="M5.85253 5.95953C5.72572 5.93937 5.5989 5.93265 5.47209 5.93265H5.43871L5.33192 5.25382C5.54551 5.13957 5.74574 4.9917 5.92595 4.81024C6.253 4.4809 6.45991 4.08436 6.5667 3.66766C6.83368 3.58028 7.03391 3.33161 7.03391 3.02916C7.03391 2.72671 6.827 2.46459 6.54667 2.38394C6.43321 2.00084 6.23298 1.6379 5.93262 1.33546C4.97818 0.374347 3.43637 0.374347 2.48193 1.33546C2.1749 1.64462 1.96132 2.021 1.85453 2.41754C1.62092 2.52508 1.46073 2.7536 1.46073 3.02916C1.46073 3.30472 1.60757 3.51307 1.82783 3.62733C1.92795 4.05748 2.14153 4.47418 2.48193 4.81024C2.64211 4.97154 2.82232 5.10596 3.01588 5.2135L2.90242 5.93265C2.56202 5.93265 2.2283 6.0133 1.93462 6.141C1.04024 6.53082 0.412842 7.43144 0.412842 8.4732V9.89806H8.00838V8.4732C8.00838 7.20292 7.07396 6.14772 5.86588 5.95953H5.85253ZM4.59773 6.28886L4.49761 6.69213H3.90359L3.80347 6.28886H4.60441H4.59773ZM4.48426 6.96097C4.48426 7.04834 4.41085 7.12227 4.32408 7.12227H4.07045C3.98368 7.12227 3.91026 7.04834 3.91026 6.96097C3.91026 6.87359 3.98368 6.79966 4.07045 6.79966H4.32408C4.41085 6.79966 4.48426 6.87359 4.48426 6.96097ZM4.23064 9.28645L3.69668 8.90335L3.91694 7.24997H4.49094L4.75792 8.88318L4.23731 9.27973L4.23064 9.28645Z" fill="white"/>
</svg>
