<svg width="44" height="46" viewBox="0 0 44 46" fill="none" xmlns="http://www.w3.org/2000/svg">
<path opacity="0.2" d="M0 10C0 4.47715 4.47715 0 10 0L34 0C39.5228 0 44 4.47715 44 10V36C44 41.5228 39.5228 46 34 46H10C4.47715 46 0 41.5228 0 36L0 10Z" fill="#FA7CA1" fill-opacity="0.6"/>
<path d="M30.1 20.2199C28.29 20.2199 27.55 18.9399 28.45 17.3699C28.97 16.4599 28.66 15.2999 27.75 14.7799L26.02 13.7899C25.23 13.3199 24.21 13.5999 23.74 14.3899L23.63 14.5799C22.73 16.1499 21.25 16.1499 20.34 14.5799L20.23 14.3899C19.78 13.5999 18.76 13.3199 17.97 13.7899L16.24 14.7799C15.33 15.2999 15.02 16.4699 15.54 17.3799C16.45 18.9399 15.71 20.2199 13.9 20.2199C12.86 20.2199 12 21.0699 12 22.1199V23.8799C12 24.9199 12.85 25.7799 13.9 25.7799C15.71 25.7799 16.45 27.0599 15.54 28.6299C15.02 29.5399 15.33 30.6999 16.24 31.2199L17.97 32.2099C18.76 32.6799 19.78 32.3999 20.25 31.6099L20.36 31.4199C21.26 29.8499 22.74 29.8499 23.65 31.4199L23.76 31.6099C24.23 32.3999 25.25 32.6799 26.04 32.2099L27.77 31.2199C28.68 30.6999 28.99 29.5299 28.47 28.6299C27.56 27.0599 28.3 25.7799 30.11 25.7799C31.15 25.7799 32.01 24.9299 32.01 23.8799V22.1199C32 21.0799 31.15 20.2199 30.1 20.2199ZM22 26.2499C20.21 26.2499 18.75 24.7899 18.75 22.9999C18.75 21.2099 20.21 19.7499 22 19.7499C23.79 19.7499 25.25 21.2099 25.25 22.9999C25.25 24.7899 23.79 26.2499 22 26.2499Z" fill="white"/>
</svg>
