<svg width="692" height="346" viewBox="0 0 692 346" fill="none" xmlns="http://www.w3.org/2000/svg">
<path d="M689.111 259.869C683.941 280.283 669.471 297.357 647.649 310.738C625.823 324.121 596.671 333.791 562.214 339.398C493.302 350.611 403.268 345.554 308.457 321.544C213.646 297.535 132.056 259.132 76.7856 216.471C49.1499 195.141 28.1142 172.761 15.2889 150.603C2.46516 128.448 -2.13481 106.546 3.0349 86.1312C8.20461 65.7164 22.6744 48.6434 44.4971 35.2621C66.3225 21.8792 95.4744 12.2085 129.932 6.6018C198.844 -4.6114 288.878 0.446352 383.689 24.4557C478.5 48.465 560.09 86.8683 615.36 129.529C642.996 150.859 664.032 173.239 676.857 195.397C689.681 217.552 694.281 239.454 689.111 259.869Z" stroke="white" stroke-opacity="0.07"/>
</svg>