<svg width="28" height="28" viewBox="0 0 28 28" fill="none" xmlns="http://www.w3.org/2000/svg">
<path fill-rule="evenodd" clip-rule="evenodd" d="M14.38 22.05V20.83H13.08V22.05C8.95 21.74 5.66 18.45 5.36 14.37H6.62V13.07H5.36C5.71 8.75 9.29 5.31 13.73 5.31C18.17 5.31 21.76 8.75 22.06 13.07H20.8V14.37H22.06C21.75 18.46 18.47 21.75 14.38 22.05ZM13.04 9.18H12.43V5.97H13.23C13.23 5.97 14.18 7.76 14.37 8.22V5.97H14.98V9.18H14.26C14.26 9.18 13.19 7.2 13.04 6.81V9.18ZM27.41 13.68C27.41 21.25 21.29 27.4 13.72 27.4C6.15 27.4 0 21.25 0 13.68C0 6.11 6.16 0 13.72 0C21.28 0 27.4 6.12 27.4 13.68H27.41ZM12.84 1.72C12.84 2.18 13.23 2.57 13.72 2.57C14.18 2.57 14.57 2.18 14.57 1.72C14.57 1.22 14.18 0.84 13.72 0.84C13.23 0.84 12.84 1.22 12.84 1.72ZM2.61 13.68C2.61 13.22 2.22 12.85 1.72 12.85C1.26 12.85 0.89 13.23 0.89 13.68C0.89 14.18 1.27 14.57 1.72 14.57C2.22 14.57 2.61 14.18 2.61 13.68ZM14.57 25.68C14.57 25.18 14.18 24.8 13.72 24.8C13.23 24.8 12.84 25.18 12.84 25.68C12.84 26.14 13.23 26.52 13.72 26.52C14.18 26.52 14.57 26.13 14.57 25.68ZM23.97 13.68C23.97 8.03 19.38 3.44 13.72 3.44C8.06 3.44 3.44 8.03 3.44 13.68C3.44 19.33 8.06 23.96 13.72 23.96C19.38 23.96 23.97 19.34 23.97 13.68ZM26.57 13.68C26.57 13.22 26.18 12.85 25.69 12.85C25.23 12.85 24.85 13.23 24.85 13.68C24.85 14.18 25.24 14.57 25.69 14.57C26.18 14.57 26.57 14.18 26.57 13.68ZM14.91 14.11L17.81 17.81L14.1 14.9C13.64 15.06 13.15 14.98 12.8 14.64C12.45 14.26 12.34 13.76 12.49 13.34L9.59 9.59L13.34 12.5C13.76 12.35 14.26 12.46 14.63 12.8C14.98 13.15 15.06 13.64 14.9 14.1L14.91 14.11Z" fill="white"/>
</svg>
