<svg width="28" height="35" viewBox="0 0 28 35" fill="none" xmlns="http://www.w3.org/2000/svg">
<path d="M4.53803 13.6886L0 34.5883L11.6541 17.0139C12.0672 16.3911 12.2345 15.634 12.123 14.8927L10.338 3.02734H6.9654L5.44255 9.99489L9.15504 9.98007C9.33782 9.97924 9.50797 10.0739 9.60526 10.2304C10.2615 11.2858 10.0197 12.6722 9.04635 13.4371C8.8473 13.5935 8.60224 13.6787 8.35026 13.6795L4.53844 13.6894L4.53803 13.6886Z" fill="#7B0000"/>
<path d="M20.8275 3.02734H14.2432L15.8999 11.3504L20.8275 3.02734Z" fill="#7B0000"/>
<path d="M13.6846 20.7562L24.463 4.11499C24.463 4.11499 31.452 8.15366 25.7807 15.9317C20.6972 22.9034 16.127 21.279 13.685 20.7567L13.6846 20.7562Z" fill="#7B0000"/>
<path d="M19.6926 2.61689L11.7002 2.78072L18.7376 0.103779C19.1997 -0.0719942 19.6926 0.273378 19.6926 0.772294V2.61689Z" fill="#7B0000"/>
<path d="M7.67578 2.87178C7.67578 2.87178 13.8682 0.15944 14.6603 0.0137171C15.4525 -0.132006 15.8241 0.923869 14.8553 1.2606C13.8865 1.59732 10.0523 2.87137 10.0523 2.87137H7.67619L7.67578 2.87178Z" fill="#7B0000"/>
<path d="M8.31032 12.263C8.5448 12.263 8.73489 12.0708 8.73489 11.8336C8.73489 11.5965 8.5448 11.4043 8.31032 11.4043C8.07583 11.4043 7.88574 11.5965 7.88574 11.8336C7.88574 12.0708 8.07583 12.263 8.31032 12.263Z" fill="#7B0000"/>
</svg>
