<svg width="26" height="28" viewBox="0 0 26 28" fill="none" xmlns="http://www.w3.org/2000/svg">
<path fill-rule="evenodd" clip-rule="evenodd" d="M9.77 23.83H15.29V24.8H9.77V23.83ZM9.77 21.82H15.29V22.83H9.77V21.82ZM12.07 0H13V3.92999H12.07V0ZM5.84999 1.92001L6.67999 1.42999L8.66 4.83002L7.83 5.32001L5.84999 1.92001ZM1.42999 6.67001L1.92 5.83002L5.31999 7.82001L4.84 8.64999L1.42999 6.67001ZM0 13V12.06H3.92999V13H0ZM18.38 1.42999L19.22 1.92001L17.24 5.32001L16.41 4.83002L18.38 1.42999ZM23.14 5.83002L23.62 6.67001L20.22 8.64999L19.74 7.82001L23.14 5.83002ZM25.06 12.06V13H21.12V12.06H25.06ZM12.51 8.62C13.24 8.62 13.79 10.32 13.79 12.44C13.79 14.56 13.24 16.26 12.51 16.26C11.82 16.26 11.26 14.56 11.26 12.44C11.26 10.32 11.82 8.62 12.51 8.62ZM12.51 16.53C13.14 16.53 13.65 17.05 13.65 17.65C13.65 18.25 13.14 18.72 12.51 18.72C11.92 18.72 11.4 18.24 11.4 17.65C11.4 17.06 11.92 16.53 12.51 16.53ZM12.51 5.35001C8.16999 5.35001 4.62 8.89 4.62 13.28C4.62 15.87 5.89999 18.17 7.84999 19.6C8.32999 20.01 8.86 20.36 9.45 20.64H8.95999V26.23H10.67C10.88 26.89 11.6 27.42 12.51 27.42C13.42 27.42 14.18 26.9 14.39 26.23H16.09V20.64H15.61C16.16 20.36 16.69 20.04 17.14 19.66C19.16 18.24 20.44 15.91 20.44 13.27C20.44 8.88002 16.9 5.34 12.52 5.34L12.51 5.35001Z" fill="white"/>
</svg>
