<svg width="28" height="24" viewBox="0 0 28 24" fill="none" xmlns="http://www.w3.org/2000/svg">
<path fill-rule="evenodd" clip-rule="evenodd" d="M23.21 7.65002C23.59 7.88002 23.99 8.06 24.43 8.06C24.87 8.06 25.25 8.32001 25.42 8.73001L27.36 13.77C27.56 14.31 27.29 14.93 26.75 15.13C26.21 15.33 25.59 15.06 25.39 14.51L24.47 12.1V15.06L24.87 22C24.91 22.57 24.47 23.09 23.89 23.12H23.82C23.25 23.12 22.81 22.68 22.77 22.1L22.43 16.15L22.06 22.1C22.02 22.68 21.58 23.12 21.01 23.12H20.97C20.36 23.09 19.92 22.58 19.95 22L20.36 15.06V10.17H20.19L14 8.84003C13.45 8.70003 13.08 8.15002 13.18 7.58002C13.28 7.17002 13.56 6.91002 13.93 6.80002H13L11.41 8.22V9.24002H9.81V8.26001C9.34 7.82001 8.72 7.31002 8.28 6.93002H7.09C6.31 7.54002 5.04 8.56002 4.19 9.24002V10.37H2.63V8.77002H4.06L6.95 6.52002V5.37003H8.55V6.52002C8.96 6.86002 9.47 7.31002 9.91 7.68002H11.27C11.71 7.27002 12.29 6.76 12.69 6.38V5.19H14.29V6.73001C14.29 6.73001 14.39 6.76001 14.43 6.76001L20.48 8.06C21.09 8.06 21.54 7.92002 21.84 7.74002C21.06 7.48002 20.51 6.79001 20.51 5.95001C20.51 4.93001 21.36 4.07001 22.42 4.07001C23.48 4.07001 24.29 4.93001 24.29 5.95001C24.29 6.69001 23.85 7.34001 23.2 7.64001L23.21 7.65002ZM16.41 1.46002H9.54C9.64 1.33002 9.67 1.19002 9.67 1.02002C9.67 0.44002 9.23 0 8.68 0C8.13 0 7.67 0.44002 7.67 1.02002C7.67 1.19002 7.73 1.33002 7.8 1.46002H0.919998C0.409998 1.46002 0 1.91001 0 2.39001V12.62C0 13.13 0.409998 13.54 0.919998 13.54H6.53L5.44 22.46C5.38 22.73 5.5 23 5.81 23.03L6.22 23.1C6.49 23.16 6.8 22.99 6.86 22.72L8.02 13.54H9.28L10.46 22.72C10.53 22.99 10.81 23.16 11.07 23.1L11.51 23.03C11.79 23 11.95 22.73 11.86 22.46L10.77 13.54H16.38C16.9 13.54 17.33 13.13 17.33 12.62V9.90002L15.56 9.49002V11.73H1.76V3.09003H15.56V6.69L17.33 7.13V2.38C17.33 1.9 16.9 1.45001 16.38 1.45001L16.41 1.46002Z" fill="white"/>
</svg>
