<svg width="28" height="24" viewBox="0 0 28 24" fill="none" xmlns="http://www.w3.org/2000/svg">
<path d="M27.06 7.55C26.79 7.21 26.35 7 25.88 7H21.3C21.3 5.96 21.33 4.96 21.33 3.94C21.33 3.11 20.63 2.42999 19.8 2.42999H19.03V0.759995C19.03 0.339995 18.68 0 18.27 0H3.04C2.62 0 2.27 0.349995 2.27 0.759995V2.81999H1.51C0.670002 2.81999 0 3.5 0 4.33V22.2C0 23.04 0.670002 23.73 1.51 23.73H22.83C23.55 23.73 24.17 23.22 24.32 22.52L27.38 8.84C27.4 8.75 27.42 8.62999 27.42 8.53999V8.47C27.4 8.15 27.28 7.83 27.07 7.55H27.06ZM2.26 14.34L1.5 17.84V4.34H2.26V14.34ZM5.09 6.89999C4.44 6.89999 3.76 7.46 3.63 8.11L3.04 10.85V0.769989H18.27V6.89999H5.09ZM19.8 7H19.73C19.62 6.93 19.46 6.89999 19.31 6.89999H19.04V3.94H19.81V7H19.8ZM16.48 5.09999C16.48 5.51999 16.13 5.87 15.72 5.87H5.63C5.21 5.87 4.89001 5.51999 4.89001 5.09999C4.89001 4.67999 5.21 4.34 5.63 4.34H15.72C16.14 4.34 16.48 4.68999 16.48 5.09999ZM16.48 2.59999C16.48 3.01999 16.13 3.37 15.72 3.37H5.63C5.21 3.37 4.89001 3.01999 4.89001 2.59999C4.89001 2.17999 5.21 1.84 5.63 1.84H15.72C16.14 1.84 16.48 2.18999 16.48 2.59999Z" fill="white"/>
</svg>
